<?xml version="1.0" standalone="no"?>
<!DOCTYPE svg PUBLIC "-//W3C//DTD SVG 1.1//EN" "http://www.w3.org/Graphics/SVG/1.1/DTD/svg11.dtd" >
<svg xmlns="http://www.w3.org/2000/svg" xmlns:xlink="http://www.w3.org/1999/xlink" version="1.1">
<metadata></metadata>
<defs>
<font id="boonbold" horiz-adv-x="0" >
<font-face units-per-em="1200" ascent="960" descent="-240" />
<missing-glyph horiz-adv-x="330" />
<glyph unicode="&#xeab;&#xe99;" horiz-adv-x="1120" d="M530 75q65 9 65 63v272q0 48 -6.5 66.5t-23.5 18.5q-22 0 -41 -28q-5 -15 -23.5 -50t-18.5 -57v-211q0 -69 -50.5 -117t-144.5 -48q-98 0 -150.5 48t-52.5 117v151q0 51 48 103q-41 6 -66.5 33.5t-25.5 69.5q0 48 32.5 76.5t82.5 28.5t82.5 -28.5t32.5 -76.5 q0 -36 -20.5 -98t-20.5 -108v-156q0 -35 15.5 -47.5t42.5 -12.5q30 0 47.5 12t17.5 48v186q0 34 37 73q-40 7 -64.5 34.5t-24.5 68.5q0 48 32.5 76.5t82.5 28.5q75 0 104 -57q51 57 101 57q120 0 120 -180v-215q44 -122 115 -122q55 0 55 90v416h150v-406q0 -88 -40 -149 t-125 -61q-109 0 -168 96q-23 -49 -73.5 -71.5t-93.5 -24.5zM186 506q0 33 -31 33t-31 -33t31 -33t31 33zM446 506q0 33 -31 33t-31 -33t31 -33t31 33z" />
<glyph unicode="&#xeab;&#xea1;" horiz-adv-x="1120" d="M84 149v151q0 51 48 103q-41 6 -66.5 33.5t-25.5 69.5q0 48 32.5 76.5t82.5 28.5t82.5 -28.5t32.5 -76.5q0 -36 -20.5 -98t-20.5 -108v-156q0 -35 15.5 -47.5t42.5 -12.5q30 0 47.5 12t17.5 48v186q0 34 37 73q-40 7 -64.5 34.5t-24.5 68.5q0 48 32.5 76.5t82.5 28.5 q75 0 104 -57q51 57 101 57q120 0 120 -180v-221q0 -12 2 -32q10 -9 27.5 -27t29 -28.5t29.5 -19.5t37 -9q25 0 35 21t10 79v406h150v-406q0 -89 -38 -149.5t-122 -60.5q-50 0 -84.5 23.5t-65.5 63.5q-7 -38 -38.5 -60t-74.5 -22q-50 0 -82.5 28.5t-32.5 76.5q0 40 23.5 67 t62.5 35q-13 19 -13 44v170q0 48 -6.5 66.5t-23.5 18.5q-22 0 -41 -28q-5 -15 -23.5 -50t-18.5 -57v-211q0 -69 -50.5 -117t-144.5 -48q-98 0 -150.5 48t-52.5 117zM186 506q0 33 -31 33t-31 -33t31 -33t31 33zM446 506q0 33 -31 33t-31 -33t31 -33t31 33zM668 94 q0 33 -31 33t-31 -33t31 -33t31 33z" />
<glyph unicode="&#x2e;&#x200d;&#x2e;&#x200d;&#x2e;" horiz-adv-x="870" d="M610 82q0 40 27 64t68 24t68 -24t27 -64t-27 -64t-68 -24t-68 24t-27 64zM340 82q0 40 27 64t68 24t68 -24t27 -64t-27 -64t-68 -24t-68 24t-27 64zM70 82q0 40 27 64t68 24t68 -24t27 -64t-27 -64t-68 -24t-68 24t-27 64z" />
<glyph unicode="&#xe4f;&#x200d;&#x2e;&#x200d;&#x2e;" horiz-adv-x="660" d="M370 900h120l-20 -270h-80zM170 900h120l-20 -270h-80zM299 300q0 -33 31 -33t31 33t-31 33t-31 -33zM215 300q0 48 32.5 76.5t82.5 28.5t82.5 -28.5t32.5 -76.5t-32.5 -76.5t-82.5 -28.5t-82.5 28.5t-32.5 76.5zM330 40q-125 0 -200 75t-75 185t75 185t200 75t200 -75 t75 -185t-75 -185t-200 -75zM330 120q78 0 126.5 48t48.5 132t-48.5 132t-126.5 48t-126.5 -48t-48.5 -132t48.5 -132t126.5 -48z" />
<glyph unicode="&#xe24;&#x200d;&#xe45;" horiz-adv-x="950" d="M680 615q96 0 150.5 -54t54.5 -131v-640h-150v640q0 75 -60 75q-62 0 -81 -93q1 -7 1 -21v-601h-150v601q0 120 -130 120q-89 0 -119 -72l129 -29l-15 -60q-19 5 -35 5q-40 0 -40 -50v-65q0 -23 -14 -44q38 -8 61 -35t23 -67q0 -48 -32.5 -76.5t-82.5 -28.5t-82.5 28.5 t-32.5 76.5q0 24 5 58.5t5 57.5v80q0 71 64 95l-114 24q12 87 85 149.5t195 62.5q132 0 211 -73q56 67 154 67zM159 94q0 -33 31 -33t31 33t-31 33t-31 -33z" />
<glyph unicode="&#xe26;&#x200d;&#xe45;" horiz-adv-x="960" d="M181 94q0 33 -31 33t-31 -33t31 -33t31 33zM536 548q56 67 154 67q96 0 150.5 -54t54.5 -131v-640h-150v640q0 75 -60 75q-62 0 -81 -94q1 -7 1 -20v-601h-150v601q0 120 -130 120q-88 0 -118 -71l138 -30l-15 -60q-19 5 -35 5q-40 0 -40 -50v-65v-30q0 -23 5 -57.5 t5 -58.5q0 -48 -32.5 -76.5t-82.5 -28.5t-82.5 28.5t-32.5 76.5q0 40 23 67t61 35q-14 21 -14 44v50q0 70 63 94l-123 25q12 87 85 149.5t195 62.5q132 0 211 -73z" />
<glyph unicode="[FontUni]" horiz-adv-x="840" d="M0 40v760q0 16 12 28t28 12h760q16 0 28 -12t12 -28v-760q0 -16 -12 -28t-28 -12h-128v420q0 106 -73 179t-179 73t-179 -73t-73 -179t73 -179t179 -73q25 0 52 5v-173h-432q-16 0 -28 12t-12 28zM315 420q0 44 30.5 74.5t74.5 30.5t74.5 -30.5t30.5 -74.5t-30.5 -74.5 t-74.5 -30.5t-74.5 30.5t-30.5 74.5z" />
<glyph />
<glyph />
<glyph unicode="&#x9;" horiz-adv-x="330" />
<glyph unicode=" "  horiz-adv-x="330" />
<glyph unicode="&#x09;" horiz-adv-x="330" />
<glyph unicode="&#xa0;" horiz-adv-x="330" />
<glyph unicode="!" horiz-adv-x="330" d="M110 270l-40 540h190l-40 -540h-110zM70 82q0 40 27 64t68 24t68 -24t27 -64t-27 -64t-68 -24t-68 24t-27 64z" />
<glyph unicode="&#x22;" horiz-adv-x="540" d="M455 900l-25 -360h-100l-25 360h150zM235 900l-25 -360h-100l-25 360h150z" />
<glyph unicode="#" horiz-adv-x="810" d="M30 190v110h146l48 180h-134v110h164l51 190h130l-51 -190h150l51 190h130l-51 -190h116v-110h-146l-48 -180h134v-110h-164l-51 -190h-130l51 190h-150l-51 -190h-130l51 190h-116zM354 480l-48 -180h150l48 180h-150z" />
<glyph unicode="$" horiz-adv-x="660" d="M45 191l165 10q7 -44 40.5 -70t80.5 -26q119 0 119 105q0 70 -75 96q-30 10 -168 64q-61 25 -103 76.5t-42 127.5q0 80 55.5 142t157.5 76v108h120v-109q95 -17 144.5 -76.5t59.5 -120.5l-165 -12q-7 45 -34.5 69t-68.5 24q-42 0 -73 -24.5t-31 -76.5q0 -20 7 -35 t22.5 -25.5t24 -15.5t26.5 -12q112 -44 154 -58q69 -22 111.5 -76t42.5 -142q0 -81 -57 -143.5t-163 -78.5v-108h-120v108q-107 15 -163.5 76.5t-66.5 126.5z" />
<glyph unicode="%" horiz-adv-x="780" d="M615 68q18 0 31.5 28t13.5 90v19q0 62 -13 89.5t-32 27.5t-32 -27.5t-13 -89.5v-19q0 -62 13.5 -90t31.5 -28zM615 401q45 0 76 -19t45.5 -51t20 -62t5.5 -64v-19q0 -26 -3 -50t-12.5 -52t-25 -48t-43 -33.5t-63.5 -13.5t-63.5 13.5t-43 33.5t-25 48t-12.5 52t-3 50v19 q0 34 5.5 64t20 62t45.5 51t76 19zM165 458q18 0 31.5 28t13.5 90v19q0 62 -13 89.5t-32 27.5t-32 -27.5t-13 -89.5v-19q0 -62 13.5 -90t31.5 -28zM165 791q45 0 76 -19t45.5 -51t20 -62t5.5 -64v-19q0 -26 -3 -50t-12.5 -52t-25 -48t-43 -33.5t-63.5 -13.5t-63.5 13.5 t-43 33.5t-25 48t-12.5 52t-3 50v19q0 34 5.5 64t20 62t45.5 51t76 19zM60 0v8l560 772h100v-8l-560 -772h-100z" />
<glyph unicode="&#x26;" horiz-adv-x="810" d="M805 8v-8h-185q-24 26 -59 64q-114 -85 -251 -85q-127 0 -193.5 58t-66.5 143q0 75 50 134t136 114q-76 106 -76 187q0 88 56.5 137t143.5 49q95 0 145 -49t50 -114q0 -63 -35 -122t-99 -104q16 -17 66 -70.5t81 -85.5q36 72 42 164l140 -20q-9 -126 -92 -239zM310 338 q-95 -76 -95 -158q0 -79 95 -79q101 0 170 50q-62 67 -170 187zM360 695q-55 0 -55 -84q0 -49 41 -110q34 32 51.5 69.5t17.5 67.5q0 29 -15.5 43t-39.5 14z" />
<glyph unicode="'" horiz-adv-x="330" d="M240 900l-25 -360h-100l-25 360h150z" />
<glyph unicode="(" horiz-adv-x="390" d="M50 390q0 300 185 525l100 -40q-140 -185 -140 -485t140 -485l-100 -40q-185 225 -185 525z" />
<glyph unicode=")" horiz-adv-x="390" d="M340 390q0 -300 -185 -525l-100 40q140 185 140 485t-140 485l100 40q185 -225 185 -525z" />
<glyph unicode="*" horiz-adv-x="570" d="M35 668l43 133l167 -86l-30 185h140l-30 -185l167 86l43 -133l-185 -29l133 -132l-113 -82l-85 167l-85 -167l-113 82l133 132z" />
<glyph unicode="+" horiz-adv-x="600" d="M75 415h150v155h150v-155h150v-110h-150v-155h-150v155h-150v110z" />
<glyph unicode="," horiz-adv-x="330" d="M70 78q0 41 25.5 66.5t69.5 25.5q55 0 82.5 -37t27.5 -88q0 -84 -46.5 -150t-110.5 -105l-48 64q77 47 95 140h-5q-39 0 -64.5 23t-25.5 61z" />
<glyph unicode="-" horiz-adv-x="600" d="M75 420h450v-120h-450v120z" />
<glyph unicode="." horiz-adv-x="330" d="M70 82q0 40 27 64t68 24t68 -24t27 -64t-27 -64t-68 -24t-68 24t-27 64z" />
<glyph unicode="/" horiz-adv-x="510" d="M165 0h-145v8l325 772h145v-8z" />
<glyph unicode="0" horiz-adv-x="660" d="M45 370v40q0 54 6 102.5t24.5 103.5t48.5 94t83 65t123 26t123 -26t83 -65t48.5 -94t24.5 -103.5t6 -102.5v-40q0 -54 -6 -102.5t-24.5 -103.5t-48.5 -94t-83 -65t-123 -26t-123 26t-83 65t-48.5 94t-24.5 103.5t-6 102.5zM330 101q49 0 84 68.5t35 200.5v40 q0 132 -35 200.5t-84 68.5t-84 -68.5t-35 -200.5v-40q0 -132 35 -200.5t84 -68.5z" />
<glyph unicode="1" horiz-adv-x="660" d="M80 630l265 156l119 -12v-644h141v-130h-485v130h180v475l-150 -93z" />
<glyph unicode="2" horiz-adv-x="660" d="M55 60q0 51 17 98.5t41.5 82t62.5 69.5t67 55.5t69 46.5q63 41 94.5 76.5t31.5 81.5q0 109 -105 109q-37 0 -65.5 -26.5t-36.5 -65.5l-171 16q6 30 23.5 61.5t48 63.5t82.5 52.5t116 20.5q67 0 118.5 -18.5t79 -44t45 -59.5t22.5 -60t5 -49q0 -46 -17.5 -88t-49 -75 t-58 -54.5t-60.5 -44.5q-75 -49 -117.5 -89.5t-57.5 -88.5h365v-130h-541q-9 25 -9 60z" />
<glyph unicode="3" horiz-adv-x="660" d="M35 603q6 30 23.5 61.5t48 63.5t82.5 52.5t116 20.5q67 0 118.5 -18.5t79 -44t45 -59.5t22.5 -60t5 -49q0 -103 -93 -168q63 -26 90.5 -74t27.5 -98q0 -28 -6 -57.5t-25.5 -65.5t-50.5 -63.5t-87 -46t-128 -18.5q-67 0 -120.5 17.5t-84.5 45t-48 51t-25 44.5l164 30 q25 -68 114 -68q68 0 98 34t30 87q0 105 -120 105h-116v120h100q55 0 86.5 35t31.5 90q0 109 -105 109q-37 0 -65.5 -26.5t-36.5 -65.5z" />
<glyph unicode="4" horiz-adv-x="660" d="M360 180h-333l-12 80l365 526l140 -12v-474h125v-120h-125v-180h-160v180zM365 300v260l-175 -260h175z" />
<glyph unicode="5" horiz-adv-x="660" d="M45 137l164 30q25 -68 114 -68q68 0 98 40t30 101q0 141 -113 141q-73 0 -136 -91l-1 1v-1l-120 64l15 426h477v-120h-322l-7 -196q57 32 127 32q59 0 105.5 -19.5t72.5 -47t43 -63t22.5 -64t5.5 -52.5q0 -30 -6 -61t-25.5 -70t-50.5 -69t-87 -50.5t-128 -20.5 q-67 0 -120.5 17.5t-84.5 45t-48 51t-25 44.5z" />
<glyph unicode="6" horiz-adv-x="660" d="M65 301v133q0 30 1.5 57t8.5 65.5t18 70.5t32 65.5t49.5 56.5t72 37.5t97.5 14.5q53 0 97.5 -14t71 -33t46.5 -44.5t28.5 -43t13.5 -34.5l-162 -26q-22 73 -95 73q-107 0 -113 -220q56 36 137 36q118 0 185 -74t67 -181q0 -108 -72 -184.5t-204 -76.5q-140 0 -209.5 87.5 t-69.5 234.5zM455 240q0 74 -32.5 107.5t-84.5 33.5q-39 0 -68 -25t-39 -76q6 -179 113 -179q47 0 79 32.5t32 106.5z" />
<glyph unicode="7" horiz-adv-x="660" d="M50 650v130h538l12 -91q-89 -118 -160.5 -294t-71.5 -335v-60h-175v60q0 244 212 590h-355z" />
<glyph unicode="8" horiz-adv-x="660" d="M330 -21q-132 0 -213.5 67.5t-81.5 163.5q0 124 149 191q-114 60 -114 173q0 94 71 160.5t189 66.5t189 -66.5t71 -160.5q0 -113 -114 -173q149 -67 149 -191q0 -96 -81.5 -163.5t-213.5 -67.5zM330 99q59 0 92 28t33 83q0 81 -81 115q-5 2 -12 5t-16.5 6.5t-15.5 6.5 q-6 -3 -15.5 -6.5t-16.5 -6.5t-12 -5q-81 -34 -81 -115q0 -55 33 -83t92 -28zM330 681q-39 0 -67 -25.5t-28 -81.5q0 -42 19 -67.5t45 -36.5q4 -1 14.5 -5.5t16.5 -6.5q6 2 16.5 6.5t14.5 5.5q26 11 45 36.5t19 67.5q0 56 -28 81.5t-67 25.5z" />
<glyph unicode="9" horiz-adv-x="660" d="M595 479v-133q0 -30 -1.5 -57t-8.5 -65.5t-18 -70.5t-32 -65.5t-49.5 -56.5t-72 -37.5t-97.5 -14.5q-53 0 -97.5 14t-71 33t-46.5 44.5t-28.5 43t-13.5 34.5l162 26q22 -73 95 -73q107 0 113 220q-56 -36 -137 -36q-118 0 -185 74t-67 181q0 108 72 184.5t204 76.5 q140 0 209.5 -87.5t69.5 -234.5zM205 540q0 -74 32.5 -107.5t84.5 -33.5q39 0 68 25t39 76q-6 179 -113 179q-47 0 -79 -32.5t-32 -106.5z" />
<glyph unicode=":" horiz-adv-x="330" d="M70 502q0 40 27 64t68 24t68 -24t27 -64t-27 -64t-68 -24t-68 24t-27 64zM70 82q0 40 27 64t68 24t68 -24t27 -64t-27 -64t-68 -24t-68 24t-27 64z" />
<glyph unicode=";" horiz-adv-x="330" d="M70 502q0 40 27 64t68 24t68 -24t27 -64t-27 -64t-68 -24t-68 24t-27 64zM70 78q0 41 25.5 66.5t69.5 25.5q55 0 82.5 -37t27.5 -88q0 -84 -46.5 -150t-110.5 -105l-48 64q77 47 95 140h-5q-39 0 -64.5 23t-25.5 61z" />
<glyph unicode="&#x3c;" horiz-adv-x="600" d="M75 315v45v45l420 255l30 -125l-300 -175l300 -175l-30 -125z" />
<glyph unicode="=" horiz-adv-x="600" d="M75 300h450v-115h-450v115zM75 535h450v-115h-450v115z" />
<glyph unicode="&#x3e;" horiz-adv-x="600" d="M525 405v-45v-45l-420 -255l-30 125l300 175l-300 175l30 125z" />
<glyph unicode="?" horiz-adv-x="570" d="M40 640q0 81 67 136t178 55q109 0 172 -55.5t63 -145.5q0 -45 -19.5 -83.5t-47.5 -64.5t-56 -49t-47.5 -49.5t-19.5 -53.5q0 -23 10 -45l-130 -15q-20 34 -20 70q0 43 16.5 77t40 57t47 44.5t40 48.5t16.5 58q0 83 -70 83t-70 -68q0 -29 10 -50l-160 -40q-20 45 -20 90z M190 82q0 40 27 64t68 24t68 -24t27 -64t-27 -64t-68 -24t-68 24t-27 64z" />
<glyph unicode="@" horiz-adv-x="1020" d="M70 238q0 76 20 152.5t61.5 146.5t98.5 124.5t137 86.5t171 32q95 0 171.5 -32t123.5 -86t72 -122.5t25 -144.5q0 -84 -29 -166t-88.5 -140t-134.5 -58q-74 0 -100 57q-56 -63 -128 -63q-101 0 -148 62.5t-47 142.5q0 53 18.5 109.5t53.5 108.5t95.5 85.5t135.5 33.5 q71 0 105 -42t34 -94q0 -13 -2.5 -31.5t-5.5 -36.5t-6.5 -34t-6.5 -27l-2 -10q-16 -96 -16 -135q0 -46 20 -46q52 0 107 87.5t55 196.5q0 135 -77.5 220t-224.5 85q-87 0 -163 -40t-126.5 -105t-79.5 -148t-29 -169q0 -73 20.5 -134.5t61 -110t107 -76t153.5 -27.5 q42 0 93 16.5t76 31.5l50 -66q-36 -22 -96 -42t-123 -20q-109 0 -194 36t-136 97.5t-76.5 136.5t-25.5 158zM470 115q86 0 116 193l2 10q2 11 5 26.5t6.5 32t5.5 32t2 22.5q0 46 -29 46q-66 0 -124.5 -76.5t-58.5 -170.5q0 -57 22.5 -86t52.5 -29z" />
<glyph unicode="A" horiz-adv-x="750" d="M750 0h-190l-49 150h-272l-49 -150h-190v11l305 769h140l305 -769v-11zM472 270l-97 296l-97 -296h194z" />
<glyph unicode="B" horiz-adv-x="745" d="M541 440q164 -55 164 -205q0 -112 -92 -178t-243 -66q-61 0 -135 2t-117 5l-43 2v780q146 9 270 9q122 0 203.5 -53.5t81.5 -145.5q0 -97 -89 -150zM370 464q39 5 67 33t28 78q0 95 -140 95q-51 0 -90 -3v-205q82 2 135 2zM235 115q62 -4 115 -4q189 0 189 124 q0 68 -50.5 93.5t-138.5 25.5q-53 0 -115 -4v-235z" />
<glyph unicode="C" horiz-adv-x="755" d="M45 375v30q0 56 10 108.5t36 106t66.5 93t106 64t148.5 24.5q75 0 136 -22t97.5 -57t57.5 -70.5t27 -69.5l-174 -16q-8 42 -46 74.5t-98 32.5q-89 0 -139 -68.5t-50 -199.5v-30q0 -131 50 -199.5t139 -68.5q60 0 98 32.5t46 74.5l174 -16q-6 -34 -27 -69.5t-57.5 -70.5 t-97.5 -57t-136 -22q-83 0 -148.5 24.5t-106 64t-66.5 93t-36 106t-10 108.5z" />
<glyph unicode="D" horiz-adv-x="770" d="M245 114q10 0 28.5 -0.5t26.5 -0.5q255 0 255 267v20q0 267 -255 267q-8 0 -26.5 -0.5t-28.5 -0.5v-552zM75 780q112 9 225 9q115 0 201 -34.5t133 -92.5t69 -123.5t22 -138.5v-20q0 -73 -22 -138.5t-69 -123.5t-133 -92.5t-201 -34.5q-50 0 -106.5 2t-87.5 5l-31 2v780z " />
<glyph unicode="E" horiz-adv-x="675" d="M75 0v780h545v-130h-375v-205h335v-120h-335v-195h390v-130h-560z" />
<glyph unicode="F" horiz-adv-x="640" d="M75 0v780h535v-130h-363v-200h323v-130h-323v-320h-172z" />
<glyph unicode="G" horiz-adv-x="770" d="M415 285v120h310v-270q-37 -63 -116 -109.5t-197 -46.5q-83 0 -148.5 24.5t-106 64t-66.5 93t-36 106t-10 108.5v30q0 56 10 108.5t36 106t66.5 93t106 64t148.5 24.5q75 0 136 -22t97.5 -57t57.5 -70.5t27 -69.5l-172 -16q-8 42 -46.5 75.5t-99.5 33.5q-92 0 -142.5 -68 t-50.5 -202v-30q0 -134 50.5 -202t142.5 -68q109 0 158 55v125h-155z" />
<glyph unicode="H" horiz-adv-x="790" d="M75 0v780h170v-325h300v325h170v-780h-170v325h-300v-325h-170z" />
<glyph unicode="I" horiz-adv-x="320" d="M75 0v780h170v-780h-170z" />
<glyph unicode="J" horiz-adv-x="520" d="M5 143l170 12q9 -56 50 -56q50 0 50 70v611h170v-611q0 -78 -58.5 -134t-161.5 -56q-98 0 -154 49.5t-66 114.5z" />
<glyph unicode="K" horiz-adv-x="715" d="M75 0v780h164v-313l266 313l190 -13v-8l-303 -314l333 -437v-8h-199l-243 332l-44 -45v-287h-164z" />
<glyph unicode="L" horiz-adv-x="570" d="M75 0v780h172v-650h313v-130h-485z" />
<glyph unicode="M" horiz-adv-x="880" d="M805 0h-168v466l-157 -271h-80l-157 271v-466h-168v765l140 15l225 -412l225 412l140 -15v-765z" />
<glyph unicode="N" horiz-adv-x="790" d="M75 0v765l145 15l329 -507v507h166v-780h-145l-329 507v-507h-166z" />
<glyph unicode="O" horiz-adv-x="820" d="M45 373v34q0 56 10 108t36 105.5t65.5 92.5t105 63.5t148.5 24.5t148.5 -24.5t105 -63.5t65.5 -92.5t36 -105.5t10 -108v-34q0 -56 -10 -108t-36 -105.5t-65.5 -92.5t-105 -63.5t-148.5 -24.5t-148.5 24.5t-105 63.5t-65.5 92.5t-36 105.5t-10 108zM410 104q91 0 141 69 t50 200v34q0 131 -50 200t-141 69t-141 -69t-50 -200v-34q0 -131 50 -200t141 -69z" />
<glyph unicode="P" horiz-adv-x="710" d="M243 424q72 -3 87 -3q187 0 187 124t-187 124q-15 0 -87 -3v-242zM243 303v-303h-168v310v470q137 9 275 9q151 0 243 -66t92 -178t-92 -178t-243 -66q-39 0 -107 2z" />
<glyph unicode="Q" horiz-adv-x="820" d="M375 250l65 85l139 -108q22 61 22 146v34q0 131 -50 200t-141 69t-141 -69t-50 -200v-34q0 -131 50 -200t141 -69q62 0 106 32zM45 373v34q0 56 10 108t36 105.5t65.5 92.5t105 63.5t148.5 24.5t148.5 -24.5t105 -63.5t65.5 -92.5t36 -105.5t10 -108v-34q0 -146 -64 -247 l99 -77l-70 -94l-108 87q-87 -63 -222 -63q-83 0 -148.5 24.5t-105 63.5t-65.5 92.5t-36 105.5t-10 108z" />
<glyph unicode="R" horiz-adv-x="730" d="M280 302q-6 0 -18.5 0.5t-18.5 0.5v-303h-168v310v470q137 9 275 9q151 0 243 -66t92 -178q0 -89 -59.5 -150t-163.5 -83l253 -304v-8h-192zM243 424q72 -3 87 -3q187 0 187 124t-187 124q-15 0 -87 -3v-242z" />
<glyph unicode="S" horiz-adv-x="710" d="M40 184l168 24q7 -43 46 -75t101 -32q150 0 150 106q0 68 -77 90q-78 21 -198 63q-70 26 -121.5 77t-51.5 132q0 100 83.5 166t214.5 66q67 0 123 -20t90.5 -51.5t55 -64.5t26.5 -65l-168 -24q-7 42 -41.5 72.5t-85.5 30.5q-61 0 -97 -27.5t-36 -74.5q0 -18 6 -31 t20 -22.5t24.5 -14.5t31.5 -13q67 -23 184 -59q77 -24 129.5 -78t52.5 -144q0 -102 -86 -169t-229 -67q-73 0 -133 20.5t-96.5 52.5t-58 66t-27.5 66z" />
<glyph unicode="T" horiz-adv-x="620" d="M15 655v125h590v-125h-210v-655h-170v655h-210z" />
<glyph unicode="U" horiz-adv-x="770" d="M65 246v534h172v-534q0 -73 40.5 -108t107.5 -35t107.5 35t40.5 108v534h172v-534q0 -113 -88 -190t-232 -77t-232 77t-88 190z" />
<glyph unicode="V" horiz-adv-x="750" d="M5 754v11l200 15l170 -552l170 552l200 -15v-11l-300 -754h-140z" />
<glyph unicode="W" horiz-adv-x="1060" d="M10 754v10l185 16l126 -533l139 513h140l139 -513l126 533l185 -16v-10l-225 -754h-145l-150 518l-150 -518h-145z" />
<glyph unicode="X" horiz-adv-x="740" d="M40 754v10l188 16l142 -254l142 254l188 -16v-10l-235 -340l285 -406v-8h-197l-183 274l-183 -274h-197v8l285 406z" />
<glyph unicode="Y" horiz-adv-x="670" d="M-5 754v11l190 15l150 -330l150 330l190 -15v-11l-255 -464v-290h-170v290z" />
<glyph unicode="Z" horiz-adv-x="670" d="M20 96l393 554h-363v130h577l12 -96l-391 -554h402v-130h-618z" />
<glyph unicode="[" horiz-adv-x="435" d="M105 -120v1020h255v-95h-120v-830h118v-95h-253z" />
<glyph unicode="\" horiz-adv-x="510" d="M355 0l-325 772v8h125l325 -772v-8h-125z" />
<glyph unicode="]" horiz-adv-x="435" d="M330 900v-1020h-255v95h120v830h-118v95h253z" />
<glyph unicode="^" horiz-adv-x="630" d="M15 595l270 305h60l270 -305l-80 -55l-220 192l-220 -192z" />
<glyph unicode="_" horiz-adv-x="600" d="M0 0h600v-120h-600v120z" />
<glyph unicode="`" horiz-adv-x="390" d="M375 595l-80 -55l-310 271l120 89z" />
<glyph unicode="a" horiz-adv-x="625" d="M40 174q0 63 54 109.5t159 46.5q70 0 147 -7v89q0 95 -100 95q-82 0 -95 -92l-160 12q11 78 76.5 136t178.5 58q115 0 185 -60t70 -149v-257q0 -36 10.5 -50t44.5 -18l-40 -103q-96 13 -129 72q-63 -72 -171 -72t-169 51.5t-61 138.5zM408 230q-74 9 -146 9 q-25 0 -46 -16.5t-21 -50.5q0 -49 28 -71t67 -22q100 0 118 124v27z" />
<glyph unicode="b" horiz-adv-x="675" d="M206 0h-136v810h155v-271q63 77 155 77q67 0 119 -29t80 -76t42 -98t14 -103v-20q0 -52 -14 -103t-42 -98t-80 -76t-119 -29q-98 0 -164 89zM225 364v-128q14 -62 49 -99t86 -37q52 0 83.5 46t31.5 144v20q0 98 -31.5 144t-83.5 46q-51 0 -86 -37t-49 -99z" />
<glyph unicode="c" horiz-adv-x="605" d="M424 168l161 -14q-5 -27 -21 -55t-45 -56t-78.5 -46t-110.5 -18q-68 0 -120.5 20t-84 51t-51.5 73.5t-27 82t-7 82.5v24q0 43 7 82.5t27 82t51.5 73.5t84 51t120.5 20q61 0 110.5 -18t78.5 -46t45 -56t21 -55l-161 -14q-6 29 -32 51t-62 22q-56 0 -91 -48.5t-35 -144.5 v-24q0 -96 35 -144.5t91 -48.5q36 0 62 22t32 51z" />
<glyph unicode="d" horiz-adv-x="680" d="M40 290v20q0 52 14 103t42 98t80 76t119 29q92 0 155 -77v271h155v-655q0 -36 10.5 -50t44.5 -18l-40 -103q-129 18 -143 116q-69 -116 -182 -116q-67 0 -119 29t-80 76t-42 98t-14 103zM450 364q-14 62 -49 99t-86 37q-52 0 -83.5 -46t-31.5 -144v-20q0 -98 31.5 -144 t83.5 -46q51 0 86 37t49 99v128z" />
<glyph unicode="e" horiz-adv-x="640" d="M40 287v26q0 42 8 82.5t28 82.5t51.5 73t83 50.5t117.5 19.5q67 0 120.5 -23t85.5 -61t49 -84.5t17 -95.5q0 -42 -10 -92h-393q4 -86 39 -130t92 -44q42 0 70 23t33 53l154 -14q-5 -27 -22 -55.5t-46.5 -56t-78.5 -45t-110 -17.5q-83 0 -142.5 29t-89.5 77t-43 97.5 t-13 104.5zM199 365h251q-1 75 -35 109.5t-87 34.5q-51 0 -85 -36.5t-44 -107.5z" />
<glyph unicode="f" horiz-adv-x="400" d="M20 500v100h80v67q0 25 8.5 50.5t27.5 52.5t57 44t90 17q87 0 152 -51l-66 -85q-39 26 -74 26q-18 0 -29 -14.5t-11 -39.5v-67h135v-100h-130v-500h-160v500h-80z" />
<glyph unicode="g" horiz-adv-x="670" d="M40 315q0 50 14 100t42 96.5t80 75.5t119 29q98 0 164 -89l10 73h136v-615q0 -92 -71 -154t-187 -62q-104 0 -170 37t-82 77l148 42q7 -16 33.5 -31.5t70.5 -15.5q108 0 108 107v113q-65 -84 -160 -84q-67 0 -119 29t-80 75.5t-42 96.5t-14 100zM450 364q-14 62 -49 99 t-86 37q-52 0 -83.5 -45.5t-31.5 -139.5t31.5 -139.5t83.5 -45.5q51 0 86 37t49 99v98z" />
<glyph unicode="h" horiz-adv-x="665" d="M70 0v810h155v-328q77 134 210 134q86 0 130.5 -62t44.5 -148v-406h-160v400q0 90 -60 90q-50 0 -97.5 -56t-62.5 -131v-303h-160z" />
<glyph unicode="i" horiz-adv-x="300" d="M55 780q0 40 27 64t68 24t68 -24t27 -64t-27 -64t-68 -24t-68 24t-27 64zM70 0v600h160v-600h-160z" />
<glyph unicode="j" horiz-adv-x="310" d="M65 780q0 40 27 64t68 24t68 -24t27 -64t-28 -64t-69 -24t-67 24t-26 64zM35 -226l-50 101q51 13 73 38.5t22 81.5v605h160v-615q0 -85 -59 -139t-146 -72z" />
<glyph unicode="k" horiz-adv-x="605" d="M80 0v810h152v-428l188 218l175 -10v-6l-238 -243l258 -335v-6h-182l-177 238l-24 -25v-213h-152z" />
<glyph unicode="l" horiz-adv-x="315" d="M70 140v670h160v-655q0 -34 19 -48.5t66 -19.5l-30 -103q-215 15 -215 156z" />
<glyph unicode="m" horiz-adv-x="945" d="M60 591l145 12l13 -97q60 110 172 110q116 0 155 -115q61 115 175 115q85 0 127.5 -61.5t42.5 -148.5v-406h-160v400q0 90 -55 90q-39 0 -70.5 -47.5t-44.5 -119.5v-323h-160v400q0 90 -55 90q-39 0 -70.5 -47.5t-44.5 -119.5v-323h-160v420z" />
<glyph unicode="n" horiz-adv-x="655" d="M70 0v420l-10 171l145 12l16 -119q73 132 204 132q86 0 130.5 -62t44.5 -148v-406h-160v400q0 90 -60 90q-49 0 -92 -54.5t-58 -130.5v-305h-160z" />
<glyph unicode="o" horiz-adv-x="660" d="M40 287v26q0 42 7.5 82t27.5 82t51 73t83.5 51t120.5 20t120.5 -20t83.5 -51t51 -73t27.5 -82t7.5 -82v-26q0 -42 -7.5 -82t-27.5 -82t-51 -73t-83.5 -51t-120.5 -20t-120.5 20t-83.5 51t-51 73t-27.5 82t-7.5 82zM330 93q59 0 94.5 48.5t35.5 145.5v26q0 97 -35.5 145.5 t-94.5 48.5t-94.5 -48.5t-35.5 -145.5v-26q0 -97 35.5 -145.5t94.5 -48.5z" />
<glyph unicode="p" horiz-adv-x="675" d="M635 290q0 -52 -14 -103t-42 -98t-80 -76t-119 -29q-89 0 -150 71v-265h-160v630l-10 171l145 12l10 -77q67 90 165 90q67 0 119 -29t80 -76t42 -98t14 -103v-20zM230 217q36 -117 130 -117q52 0 83.5 46t31.5 144v20q0 98 -31.5 144t-83.5 46q-94 0 -130 -117v-166z" />
<glyph unicode="q" horiz-adv-x="675" d="M469 600h136v-810h-155v271q-63 -77 -155 -77q-67 0 -119 29t-80 76t-42 98t-14 103v20q0 52 14 103t42 98t80 76t119 29q98 0 164 -89zM450 236v128q-14 62 -49 99t-86 37q-52 0 -83.5 -46t-31.5 -144v-20q0 -98 31.5 -144t83.5 -46q51 0 86 37t49 99z" />
<glyph unicode="r" horiz-adv-x="435" d="M55 588l134 15l33 -120q48 133 157 133q37 0 71 -17l-60 -130q-17 11 -39 11q-36 0 -63 -47t-38 -119v-314h-160v450z" />
<glyph unicode="s" horiz-adv-x="570" d="M30 143l155 20q5 -31 33 -51.5t73 -20.5q46 0 71.5 19t25.5 52q0 46 -55 63q-131 39 -148 45q-27 10 -48 21t-44 30.5t-35.5 48t-12.5 65.5q0 79 66.5 132.5t173.5 53.5t168 -51t72 -110l-155 -20q-11 69 -85 69q-39 0 -63.5 -18.5t-24.5 -49.5q0 -37 58 -56 q24 -8 76.5 -23t61.5 -18q66 -20 106.5 -59.5t40.5 -116.5q0 -81 -70 -135t-185 -54q-114 0 -179 51.5t-76 112.5z" />
<glyph unicode="t" horiz-adv-x="415" d="M20 500v100h86v123l151 12v-135h133v-100h-130v-336q0 -39 8.5 -52.5t30.5 -13.5q50 0 84 21l37 -104q-62 -31 -142 -31q-178 0 -178 156v360h-80z" />
<glyph unicode="u" horiz-adv-x="620" d="M50 194v406h160v-406q0 -53 27.5 -77t72.5 -24t72.5 24t27.5 77v406h160v-406q0 -90 -71 -152.5t-189 -62.5t-189 62.5t-71 152.5z" />
<glyph unicode="v" horiz-adv-x="600" d="M0 580v8l175 12l125 -395l125 395l175 -12v-8l-235 -580h-130z" />
<glyph unicode="w" horiz-adv-x="830" d="M825 580l-173 -580h-135l-102 362l-102 -362h-135l-173 580v8l170 12l84 -364l93 349h126l93 -349l84 364l170 -12v-8z" />
<glyph unicode="x" horiz-adv-x="600" d="M35 580v8l169 12l96 -172l96 172l169 -12v-8l-178 -257l218 -317v-6h-179l-126 193l-126 -193h-179v6l218 317z" />
<glyph unicode="y" horiz-adv-x="600" d="M0 580v8l175 12l127 -400l123 400l175 -12v-8l-235 -595q-2 -5 -14.5 -32t-15.5 -33l-14.5 -29t-17 -29.5t-18 -24.5t-21.5 -24t-24 -17.5t-29.5 -15.5t-33 -7.5t-39.5 -3.5q-71 0 -128 42l75 94q30 -26 48 -26q27 0 47 27.5t52 101.5z" />
<glyph unicode="z" horiz-adv-x="530" d="M15 79l285 411h-260v110h460l9 -79l-285 -411h291v-110h-491z" />
<glyph unicode="{" horiz-adv-x="390" d="M30 365v25v25q95 29 95 125q0 15 -17.5 86t-17.5 104q0 70 47 120t133 50h60v-80h-40q-60 0 -60 -100q0 -24 15 -96t15 -99q0 -101 -87 -135q87 -34 87 -135q0 -27 -15 -99t-15 -96q0 -100 60 -100h40v-80h-60q-86 0 -133 50t-47 120q0 33 17.5 104t17.5 86q0 96 -95 125 z" />
<glyph unicode="|" horiz-adv-x="360" d="M110 -120v1020h140v-1020h-140z" />
<glyph unicode="}" horiz-adv-x="390" d="M360 415v-25v-25q-95 -29 -95 -125q0 -15 17.5 -86t17.5 -104q0 -70 -47 -120t-133 -50h-60v80h40q60 0 60 100q0 24 -15 96t-15 99q0 101 87 135q-87 34 -87 135q0 27 15 99t15 96q0 100 -60 100h-40v80h60q86 0 133 -50t47 -120q0 -33 -17.5 -104t-17.5 -86 q0 -96 95 -125z" />
<glyph unicode="~" horiz-adv-x="600" d="M30 315q15 44 27 71t32.5 58t49 46t65.5 15q32 0 62.5 -15t42 -25.5t33.5 -32.5q42 -42 59 -42q42 0 69 105l100 -30q-15 -44 -27 -71t-32.5 -58t-49 -46t-65.5 -15q-32 0 -62.5 15t-42 25.5t-33.5 32.5q-42 42 -59 42q-42 0 -69 -105z" />
<glyph unicode="&#xa1;" horiz-adv-x="330" d="M220 330l40 -540h-190l40 540h110zM260 518q0 -40 -27 -64t-68 -24t-68 24t-27 64t27 64t68 24t68 -24t27 -64z" />
<glyph unicode="&#xa2;" horiz-adv-x="605" d="M40 318v24q0 49 10.5 95t35 91.5t73 77.5t116.5 41v133h120v-135q85 -16 133 -67t57 -102l-161 -14q-6 29 -32 51t-62 22q-56 0 -91 -48.5t-35 -144.5v-24q0 -96 35 -144.5t91 -48.5q36 0 62 22t32 51l161 -14q-9 -51 -57 -102t-133 -67v-135h-120v133q-68 9 -116.5 41 t-73 77.5t-35 91.5t-10.5 95z" />
<glyph unicode="&#xa3;" horiz-adv-x="660" d="M60 96q49 38 72 82.5t23 123.5v43h-95v90h95v108q0 18 1.5 34.5t7.5 50.5t21 61t38.5 54t65 42.5t94.5 15.5q61 0 107 -20.5t70 -52.5t34.5 -54t15.5 -42l-158 -18q-17 73 -69 73q-34 0 -51 -39.5t-17 -104.5v-108h195v-90h-195v-43q0 -111 -47 -188h352v-114h-545z" />
<glyph unicode="&#xa4;" horiz-adv-x="720" d="M672 162l-84 -84l-90 90q-63 -33 -138 -33t-138 33l-90 -90l-84 84l85 85q-43 64 -43 143q0 78 43 143l-85 85l84 84l90 -90q63 33 138 33t138 -33l90 90l84 -84l-85 -85q43 -65 43 -143t-43 -143zM360 255q52 0 86 34.5t34 100.5t-34 100.5t-86 34.5t-86 -34.5 t-34 -100.5t34 -100.5t86 -34.5z" />
<glyph unicode="&#xa5;" horiz-adv-x="660" d="M90 150v90h155v59v1h-155v90h108l-188 364v11l190 15l130 -330l130 330l190 -15v-11l-188 -364h108v-90h-155v-1v-59h155v-90h-155v-150h-170v150h-155z" />
<glyph unicode="&#xa6;" horiz-adv-x="360" d="M110 450v450h140v-450h-140zM110 -120v450h140v-450h-140z" />
<glyph unicode="&#xa7;" horiz-adv-x="660" d="M86 609q0 92 69 157t186 65q62 0 111 -20.5t77.5 -53t44.5 -65t21 -63.5l-155 -12q-7 46 -32.5 75t-66.5 29q-44 0 -72 -28.5t-28 -83.5q0 -28 12 -48t24.5 -28t34.5 -18q81 -36 146 -58t108.5 -75.5t43.5 -136.5q0 -70 -63 -133q33 -53 33 -117q0 -95 -71.5 -160.5 t-197.5 -65.5q-65 0 -117.5 20.5t-83 53.5t-48 66.5t-22.5 65.5l155 12q7 -46 36 -77t80 -31q114 0 114 116q0 33 -12.5 55.5t-25 30.5t-33.5 16q-42 17 -153 64q-58 25 -101.5 75.5t-43.5 122.5q0 77 68 132q-38 52 -38 118zM446 200q9 18 9 45q0 77 -66 102 q-100 39 -158 64q-1 1 -2.5 1t-2.5 1q-15 -23 -15 -54q0 -21 7 -37t22.5 -27.5t23.5 -16t28 -13.5q111 -49 136 -58q12 -4 18 -7z" />
<glyph unicode="&#xa8;" horiz-adv-x="510" d="M130 859q37 0 61 -21.5t24 -57.5t-24 -57.5t-61 -21.5t-61 21.5t-24 57.5t24 57.5t61 21.5zM380 859q37 0 61 -21.5t24 -57.5t-24 -57.5t-61 -21.5t-61 21.5t-24 57.5t24 57.5t61 21.5z" />
<glyph unicode="&#xa9;" horiz-adv-x="1020" d="M685 498l-102 -9q-3 20 -20.5 34.5t-41.5 14.5q-37 0 -60.5 -32t-23.5 -95v-16q0 -63 23.5 -95t60.5 -32q24 0 41.5 14.5t20.5 34.5l102 -9q-8 -40 -48.5 -75.5t-115.5 -35.5q-54 0 -92.5 18.5t-57.5 49.5t-27.5 63t-8.5 67v16q0 35 8.5 67t27.5 63t57.5 49.5t92.5 18.5 q75 0 115.5 -35.5t48.5 -75.5zM510 -20q-196 0 -315.5 120.5t-119.5 304.5t119.5 304.5t315.5 120.5t315.5 -120.5t119.5 -304.5t-119.5 -304.5t-315.5 -120.5zM510 60q156 0 250.5 94.5t94.5 250.5t-94.5 250.5t-250.5 94.5t-250.5 -94.5t-94.5 -250.5t94.5 -250.5 t250.5 -94.5z" />
<glyph unicode="&#xaa;" horiz-adv-x="313" d="M16 597q0 38 30 59t88 21q36 0 51 -1v41q0 38 -35 38q-30 0 -35 -37l-97 6q5 38 38.5 67.5t93.5 29.5q61 0 96.5 -30.5t35.5 -73.5v-122q0 -18 5 -25t22 -9l-24 -60q-46 4 -69 32q-32 -32 -81 -32q-58 0 -88.5 26t-30.5 70zM191 622q-22 3 -50 3q-30 0 -30 -29 q0 -17 10 -28t27 -11q41 0 43 65z" />
<glyph unicode="&#xab;" horiz-adv-x="780" d="M60 330v60l305 270l55 -80l-192 -220l192 -220l-55 -80zM360 330v60l305 270l55 -80l-192 -220l192 -220l-55 -80z" />
<glyph unicode="&#xac;" horiz-adv-x="600" d="M75 295v120h450v-240h-150v120h-300z" />
<glyph unicode="&#xad;" horiz-adv-x="450" d="M60 420h330v-120h-330v120z" />
<glyph unicode="&#xae;" horiz-adv-x="870" d="M435 259q-158 0 -254.5 97t-96.5 244t96.5 244t254.5 97t254.5 -97t96.5 -244t-96.5 -244t-254.5 -97zM435 319q126 0 202.5 77t76.5 204t-76.5 204t-202.5 77t-202.5 -77t-76.5 -204t76.5 -204t202.5 -77zM602 673q0 -44 -30 -75t-82 -42l126 -152v-4h-107l-121 151h-2 v-151h-97v155v235q76 5 145 5q76 0 122 -33t46 -89zM505 673q0 32 -24 43t-69 11q-5 0 -13.5 -0.5t-12.5 -0.5v-107h26q45 0 69 11t24 43z" />
<glyph unicode="&#xaf;" horiz-adv-x="510" d="M45 730v100h420v-100h-420z" />
<glyph unicode="&#xb0;" horiz-adv-x="330" d="M165 649q-64 0 -102 39t-38 92t38 92t102 39t102 -39t38 -92t-38 -92t-102 -39zM165 721q21 0 35.5 15t14.5 44t-14.5 44t-35.5 15t-35.5 -15t-14.5 -44t14.5 -44t35.5 -15z" />
<glyph unicode="&#xb1;" horiz-adv-x="600" d="M75 168v110h450v-110h-450zM75 442v110h155v105h140v-105h155v-110h-155v-105h-140v105h-155z" />
<glyph unicode="&#xb2;" horiz-adv-x="330" d="M124 801l-98 9q6 35 40 68t98 33q43 0 73.5 -13.5t43.5 -34.5t18 -37.5t5 -31.5q0 -66 -84 -128q-71 -52 -84 -84h170v-72h-276q-6 15 -6 34q0 27 8.5 51.5t18 40t30 34t29.5 25t31 21.5q21 15 32 23.5t21.5 23.5t10.5 31q0 48 -41 48q-15 0 -26 -11t-14 -30z" />
<glyph unicode="&#xb3;" horiz-adv-x="330" d="M249 712q55 -28 55 -87q0 -13 -2.5 -27t-12.5 -32.5t-25.5 -32.5t-44.5 -24t-67 -10q-46 0 -79.5 17t-45.5 32.5t-18 31.5l97 18q9 -27 46 -27q52 0 52 49q0 47 -50 47h-58v71h46q22 0 35 17t13 39q0 48 -40 48q-15 0 -26.5 -11t-14.5 -30l-97 9q6 35 40 68t98 33 q43 0 73.5 -13.5t43 -34.5t17.5 -37.5t5 -31.5q0 -49 -40 -82z" />
<glyph unicode="&#xb4;" horiz-adv-x="390" d="M15 595l270 305l120 -89l-310 -271z" />
<glyph unicode="&#xb5;" horiz-adv-x="665" d="M70 600h160v-303q15 -75 62.5 -131t97.5 -56q60 0 60 90v400h160v-406q0 -86 -44.5 -148t-130.5 -62q-133 0 -210 134v-328h-155v810z" />
<glyph unicode="&#xb6;" horiz-adv-x="725" d="M290 431v228q-92 -25 -92 -114t92 -114zM500 665q-19 1 -70 3v-878h-140v516q-120 16 -190 79.5t-70 159.5q0 112 92 178t243 66q61 0 130 -2.5t107 -4.5l38 -2v-990h-140v875z" />
<glyph unicode="&#xb7;" horiz-adv-x="330" d="M70 360q0 40 27 64t68 24t68 -24t27 -64t-27 -64t-68 -24t-68 24t-27 64z" />
<glyph unicode="&#xb8;" horiz-adv-x="330" d="M40 -265q140 32 140 90q0 25 -55 25q-10 0 -40 -5l-45 45l75 135h85l-58 -105q138 0 138 -95q0 -28 -11 -51t-34.5 -40t-41 -28t-50.5 -20.5t-42.5 -12t-35.5 -8.5z" />
<glyph unicode="&#xb9;" horiz-adv-x="330" d="M36 825l132 78l72 -6v-315h66v-72h-250v72h86v216l-65 -42z" />
<glyph unicode="&#xba;" horiz-adv-x="330" d="M165 567q49 0 49 86v14q0 86 -49 86t-49 -86v-14q0 -86 49 -86zM165 821q43 0 74 -15t46.5 -39.5t22 -49t6.5 -50.5v-14q0 -26 -6.5 -50.5t-22 -49t-46.5 -39.5t-74 -15t-74 15t-46.5 39.5t-22 49t-6.5 50.5v14q0 26 6.5 50.5t22 49t46.5 39.5t74 15z" />
<glyph unicode="&#xbb;" horiz-adv-x="780" d="M720 390v-60l-305 -270l-55 80l192 220l-192 220l55 80zM420 390v-60l-305 -270l-55 80l192 220l-192 220l55 80z" />
<glyph unicode="&#xbc;" horiz-adv-x="780" d="M614 85h-153l-7 50l180 258l80 -6v-232h62v-70h-62v-85h-100v85zM619 155v95l-64 -95h64zM36 705l132 78l72 -6v-315h66v-72h-250v72h86v216l-65 -42zM60 0v8l560 772h100v-8l-560 -772h-100z" />
<glyph unicode="&#xbd;" horiz-adv-x="780" d="M574 291l-98 9q6 35 40 68t98 33q43 0 73.5 -13.5t43.5 -34.5t18 -37.5t5 -31.5q0 -66 -84 -128q-71 -52 -84 -84h170v-72h-276q-6 15 -6 34q0 27 8.5 51.5t18 40t30 34t29.5 25t31 21.5q21 15 32 23.5t21.5 23.5t10.5 31q0 48 -41 48q-15 0 -26 -11t-14 -30zM60 0v8 l560 772h100v-8l-560 -772h-100zM36 705l132 78l72 -6v-315h66v-72h-250v72h86v216l-65 -42z" />
<glyph unicode="&#xbe;" horiz-adv-x="780" d="M249 592q55 -28 55 -87q0 -13 -2.5 -27t-12.5 -32.5t-25.5 -32.5t-44.5 -24t-67 -10q-46 0 -79.5 17t-45.5 32.5t-18 31.5l97 18q9 -27 46 -27q52 0 52 49q0 47 -50 47h-58v71h46q22 0 35 17t13 39q0 48 -40 48q-15 0 -26.5 -11t-14.5 -30l-97 9q6 35 40 68t98 33 q43 0 73.5 -13.5t43 -34.5t17.5 -37.5t5 -31.5q0 -49 -40 -82zM60 0v8l560 772h100v-8l-560 -772h-100zM614 85h-153l-7 50l180 258l80 -6v-232h62v-70h-62v-85h-100v85zM619 155v95l-64 -95h64z" />
<glyph unicode="&#xbf;" horiz-adv-x="570" d="M530 -40q0 -81 -67 -136t-178 -55q-109 0 -172 55.5t-63 145.5q0 45 19.5 83.5t47.5 64.5t56 49t47.5 49.5t19.5 53.5q0 23 -10 45l130 15q20 -34 20 -70q0 -43 -16.5 -77t-40 -57t-47 -44.5t-40 -48.5t-16.5 -58q0 -83 70 -83t70 68q0 29 -10 50l160 40q20 -45 20 -90z M380 518q0 -40 -27 -64t-68 -24t-68 24t-27 64t27 64t68 24t68 -24t27 -64z" />
<glyph unicode="&#xc0;" horiz-adv-x="750" d="M210 955l65 105l220 -160l-40 -60zM750 0h-190l-49 150h-272l-49 -150h-190v11l305 769h140l305 -769v-11zM472 270l-97 296l-97 -296h194z" />
<glyph unicode="&#xc1;" horiz-adv-x="750" d="M540 955l-245 -115l-40 60l220 160zM750 0h-190l-49 150h-272l-49 -150h-190v11l305 769h140l305 -769v-11zM472 270l-97 296l-97 -296h194z" />
<glyph unicode="&#xc2;" horiz-adv-x="750" d="M165 875l190 145h40l190 -145l-45 -50l-165 80l-165 -80zM750 0h-190l-49 150h-272l-49 -150h-190v11l305 769h140l305 -769v-11zM472 270l-97 296l-97 -296h194z" />
<glyph unicode="&#xc3;" horiz-adv-x="750" d="M165 890q24 60 54 92.5t81 32.5q59 0 115 -48q32 -27 39 -27t13.5 4.5t13 15t9.5 16.5t9 19.5t6 14.5l80 -30q-24 -60 -54 -92.5t-81 -32.5q-59 0 -115 48q-32 27 -39 27t-13.5 -4.5t-13 -15t-9.5 -16.5t-9 -19.5t-6 -14.5zM750 0h-190l-49 150h-272l-49 -150h-190v11 l305 769h140l305 -769v-11zM472 270l-97 296l-97 -296h194z" />
<glyph unicode="&#xc4;" horiz-adv-x="750" d="M250 1009q37 0 61 -21.5t24 -57.5t-24 -57.5t-61 -21.5t-61 21.5t-24 57.5t24 57.5t61 21.5zM500 1009q37 0 61 -21.5t24 -57.5t-24 -57.5t-61 -21.5t-61 21.5t-24 57.5t24 57.5t61 21.5zM750 0h-190l-49 150h-272l-49 -150h-190v11l305 769h140l305 -769v-11zM472 270 l-97 296l-97 -296h194z" />
<glyph unicode="&#xc5;" horiz-adv-x="750" d="M375 795q-57 0 -93.5 32.5t-36.5 87.5t36.5 87.5t93.5 32.5t93.5 -32.5t36.5 -87.5t-36.5 -87.5t-93.5 -32.5zM375 865q23 0 36.5 14t13.5 36t-13.5 36t-36.5 14t-36.5 -14t-13.5 -36t13.5 -36t36.5 -14zM750 0h-190l-49 150h-272l-49 -150h-190v11l305 769h140l305 -769 v-11zM472 270l-97 296l-97 -296h194z" />
<glyph unicode="&#xc6;" horiz-adv-x="980" d="M5 0v11l365 769h70h70h415v-130h-315v-205h275v-120h-275v-195h330v-130h-500v150h-184l-61 -150h-190zM440 607l-136 -337h136v337z" />
<glyph unicode="&#xc7;" horiz-adv-x="755" d="M307 -265q140 32 140 90q0 25 -55 25q-10 0 -40 -5l-45 45l51 92q-71 8 -126.5 35.5t-90 66.5t-57 89.5t-31 100t-8.5 101.5v30q0 56 10 108.5t36 106t66.5 93t106 64t148.5 24.5q75 0 136 -22t97.5 -57t57.5 -70.5t27 -69.5l-174 -16q-8 42 -46 74.5t-98 32.5 q-89 0 -139 -68.5t-50 -199.5v-30q0 -131 50 -199.5t139 -68.5q60 0 98 32.5t46 74.5l174 -16q-6 -32 -25 -66t-52 -67.5t-88 -57t-123 -27.5l-33 -60q138 0 138 -95q0 -28 -11 -51t-34.5 -40t-41 -28t-50.5 -20.5t-42.5 -12t-35.5 -8.5z" />
<glyph unicode="&#xc8;" horiz-adv-x="675" d="M185 955l65 105l220 -160l-40 -60zM75 0v780h545v-130h-375v-205h335v-120h-335v-195h390v-130h-560z" />
<glyph unicode="&#xc9;" horiz-adv-x="675" d="M515 955l-245 -115l-40 60l220 160zM75 0v780h545v-130h-375v-205h335v-120h-335v-195h390v-130h-560z" />
<glyph unicode="&#xca;" horiz-adv-x="675" d="M140 875l190 145h40l190 -145l-45 -50l-165 80l-165 -80zM75 0v780h545v-130h-375v-205h335v-120h-335v-195h390v-130h-560z" />
<glyph unicode="&#xcb;" horiz-adv-x="675" d="M225 1009q37 0 61 -21.5t24 -57.5t-24 -57.5t-61 -21.5t-61 21.5t-24 57.5t24 57.5t61 21.5zM475 1009q37 0 61 -21.5t24 -57.5t-24 -57.5t-61 -21.5t-61 21.5t-24 57.5t24 57.5t61 21.5zM75 0v780h545v-130h-375v-205h335v-120h-335v-195h390v-130h-560z" />
<glyph unicode="&#xcc;" horiz-adv-x="320" d="M-5 955l65 105l220 -160l-40 -60zM75 0v780h170v-780h-170z" />
<glyph unicode="&#xcd;" horiz-adv-x="320" d="M325 955l-245 -115l-40 60l220 160zM75 0v780h170v-780h-170z" />
<glyph unicode="&#xce;" horiz-adv-x="320" d="M-50 875l190 145h40l190 -145l-45 -50l-165 80l-165 -80zM75 0v780h170v-780h-170z" />
<glyph unicode="&#xcf;" horiz-adv-x="320" d="M35 1009q37 0 61 -21.5t24 -57.5t-24 -57.5t-61 -21.5t-61 21.5t-24 57.5t24 57.5t61 21.5zM285 1009q37 0 61 -21.5t24 -57.5t-24 -57.5t-61 -21.5t-61 21.5t-24 57.5t24 57.5t61 21.5zM75 0v780h170v-780h-170z" />
<glyph unicode="&#xd0;" horiz-adv-x="770" d="M5 345v90h70v345q112 9 225 9q115 0 201 -34.5t133 -92.5t69 -123.5t22 -138.5v-20q0 -73 -22 -138.5t-69 -123.5t-133 -92.5t-201 -34.5q-50 0 -106.5 2t-87.5 5l-31 2v345h-70zM245 114q10 0 28.5 -0.5t26.5 -0.5q255 0 255 267v20q0 267 -255 267q-8 0 -26.5 -0.5 t-28.5 -0.5v-231h180v-90h-180v-231z" />
<glyph unicode="&#xd1;" horiz-adv-x="790" d="M185 890q24 60 54 92.5t81 32.5q59 0 115 -48q32 -27 39 -27t13.5 4.5t13 15t9.5 16.5t9 19.5t6 14.5l80 -30q-24 -60 -54 -92.5t-81 -32.5q-59 0 -115 48q-32 27 -39 27t-13.5 -4.5t-13 -15t-9.5 -16.5t-9 -19.5t-6 -14.5zM75 0v765l145 15l329 -507v507h166v-780h-145 l-329 507v-507h-166z" />
<glyph unicode="&#xd2;" horiz-adv-x="820" d="M245 955l65 105l220 -160l-40 -60zM45 373v34q0 56 10 108t36 105.5t65.5 92.5t105 63.5t148.5 24.5t148.5 -24.5t105 -63.5t65.5 -92.5t36 -105.5t10 -108v-34q0 -56 -10 -108t-36 -105.5t-65.5 -92.5t-105 -63.5t-148.5 -24.5t-148.5 24.5t-105 63.5t-65.5 92.5 t-36 105.5t-10 108zM410 104q91 0 141 69t50 200v34q0 131 -50 200t-141 69t-141 -69t-50 -200v-34q0 -131 50 -200t141 -69z" />
<glyph unicode="&#xd3;" horiz-adv-x="820" d="M575 955l-245 -115l-40 60l220 160zM45 373v34q0 56 10 108t36 105.5t65.5 92.5t105 63.5t148.5 24.5t148.5 -24.5t105 -63.5t65.5 -92.5t36 -105.5t10 -108v-34q0 -56 -10 -108t-36 -105.5t-65.5 -92.5t-105 -63.5t-148.5 -24.5t-148.5 24.5t-105 63.5t-65.5 92.5 t-36 105.5t-10 108zM410 104q91 0 141 69t50 200v34q0 131 -50 200t-141 69t-141 -69t-50 -200v-34q0 -131 50 -200t141 -69z" />
<glyph unicode="&#xd4;" horiz-adv-x="820" d="M200 875l190 145h40l190 -145l-45 -50l-165 80l-165 -80zM45 373v34q0 56 10 108t36 105.5t65.5 92.5t105 63.5t148.5 24.5t148.5 -24.5t105 -63.5t65.5 -92.5t36 -105.5t10 -108v-34q0 -56 -10 -108t-36 -105.5t-65.5 -92.5t-105 -63.5t-148.5 -24.5t-148.5 24.5 t-105 63.5t-65.5 92.5t-36 105.5t-10 108zM410 104q91 0 141 69t50 200v34q0 131 -50 200t-141 69t-141 -69t-50 -200v-34q0 -131 50 -200t141 -69z" />
<glyph unicode="&#xd5;" horiz-adv-x="820" d="M200 890q24 60 54 92.5t81 32.5q59 0 115 -48q32 -27 39 -27t13.5 4.5t13 15t9.5 16.5t9 19.5t6 14.5l80 -30q-24 -60 -54 -92.5t-81 -32.5q-59 0 -115 48q-32 27 -39 27t-13.5 -4.5t-13 -15t-9.5 -16.5t-9 -19.5t-6 -14.5zM45 373v34q0 56 10 108t36 105.5t65.5 92.5 t105 63.5t148.5 24.5t148.5 -24.5t105 -63.5t65.5 -92.5t36 -105.5t10 -108v-34q0 -56 -10 -108t-36 -105.5t-65.5 -92.5t-105 -63.5t-148.5 -24.5t-148.5 24.5t-105 63.5t-65.5 92.5t-36 105.5t-10 108zM410 104q91 0 141 69t50 200v34q0 131 -50 200t-141 69t-141 -69 t-50 -200v-34q0 -131 50 -200t141 -69z" />
<glyph unicode="&#xd6;" horiz-adv-x="820" d="M285 1009q37 0 61 -21.5t24 -57.5t-24 -57.5t-61 -21.5t-61 21.5t-24 57.5t24 57.5t61 21.5zM535 1009q37 0 61 -21.5t24 -57.5t-24 -57.5t-61 -21.5t-61 21.5t-24 57.5t24 57.5t61 21.5zM45 373v34q0 56 10 108t36 105.5t65.5 92.5t105 63.5t148.5 24.5t148.5 -24.5 t105 -63.5t65.5 -92.5t36 -105.5t10 -108v-34q0 -56 -10 -108t-36 -105.5t-65.5 -92.5t-105 -63.5t-148.5 -24.5t-148.5 24.5t-105 63.5t-65.5 92.5t-36 105.5t-10 108zM410 104q91 0 141 69t50 200v34q0 131 -50 200t-141 69t-141 -69t-50 -200v-34q0 -131 50 -200t141 -69 z" />
<glyph unicode="&#xd7;" horiz-adv-x="600" d="M78 498l84 84l138 -138l138 138l84 -84l-138 -138l138 -138l-84 -84l-138 138l-138 -138l-84 84l138 138z" />
<glyph unicode="&#xd8;" horiz-adv-x="820" d="M45 373v34q0 56 10 108t36 105.5t65.5 92.5t105 63.5t148.5 24.5q134 0 223 -64l57 70l70 -51l-65 -79q80 -106 80 -270v-34q0 -56 -10 -108t-36 -105.5t-65.5 -92.5t-105 -63.5t-148.5 -24.5q-140 0 -229 68l-51 -62l-70 51l60 73q-75 103 -75 264zM539 622 q-48 54 -129 54q-91 0 -141 -69t-50 -200v-34q0 -71 15 -124zM583 540l-307 -376q49 -60 134 -60q91 0 141 69t50 200v34q0 78 -18 133z" />
<glyph unicode="&#xd9;" horiz-adv-x="770" d="M220 955l65 105l220 -160l-40 -60zM65 246v534h172v-534q0 -73 40.5 -108t107.5 -35t107.5 35t40.5 108v534h172v-534q0 -113 -88 -190t-232 -77t-232 77t-88 190z" />
<glyph unicode="&#xda;" horiz-adv-x="770" d="M550 955l-245 -115l-40 60l220 160zM65 246v534h172v-534q0 -73 40.5 -108t107.5 -35t107.5 35t40.5 108v534h172v-534q0 -113 -88 -190t-232 -77t-232 77t-88 190z" />
<glyph unicode="&#xdb;" horiz-adv-x="770" d="M175 875l190 145h40l190 -145l-45 -50l-165 80l-165 -80zM65 246v534h172v-534q0 -73 40.5 -108t107.5 -35t107.5 35t40.5 108v534h172v-534q0 -113 -88 -190t-232 -77t-232 77t-88 190z" />
<glyph unicode="&#xdc;" horiz-adv-x="770" d="M260 1009q37 0 61 -21.5t24 -57.5t-24 -57.5t-61 -21.5t-61 21.5t-24 57.5t24 57.5t61 21.5zM510 1009q37 0 61 -21.5t24 -57.5t-24 -57.5t-61 -21.5t-61 21.5t-24 57.5t24 57.5t61 21.5zM65 246v534h172v-534q0 -73 40.5 -108t107.5 -35t107.5 35t40.5 108v534h172v-534 q0 -113 -88 -190t-232 -77t-232 77t-88 190z" />
<glyph unicode="&#xdd;" horiz-adv-x="670" d="M500 955l-245 -115l-40 60l220 160zM-5 754v11l190 15l150 -330l150 330l190 -15v-11l-255 -464v-290h-170v290z" />
<glyph unicode="&#xde;" horiz-adv-x="725" d="M243 286q72 -3 87 -3q187 0 187 124t-187 124q-15 0 -87 -3v-242zM243 649q68 2 107 2q151 0 243 -66t92 -178t-92 -178t-243 -66q-39 0 -107 2v-165h-168v172v470v138h168v-131z" />
<glyph unicode="&#xdf;" horiz-adv-x="780" d="M305 148l150 10q4 -31 25 -49t50 -18q75 0 75 72q0 45 -54 66q-21 8 -61 25.5t-51 21.5q-122 50 -122 159q0 76 52.5 125.5t145.5 50.5q-18 56 -61 82t-94 26q-125 0 -125 -149v-570h-160v570q0 118 78.5 189.5t206.5 71.5q132 0 212 -79.5t88 -191.5l-75 -65 q-27 15 -60 15q-25 0 -41.5 -14.5t-16.5 -45.5q0 -44 54 -68q13 -5 52 -21.5t56 -23.5q126 -49 126 -174q0 -75 -59 -129.5t-166 -54.5q-56 0 -100.5 17.5t-69.5 45.5t-38.5 54.5t-16.5 51.5z" />
<glyph unicode="&#xe0;" horiz-adv-x="625" d="M145 805l65 105l220 -160l-40 -60zM40 174q0 63 54 109.5t159 46.5q70 0 147 -7v89q0 95 -100 95q-82 0 -95 -92l-160 12q11 78 76.5 136t178.5 58q115 0 185 -60t70 -149v-257q0 -36 10.5 -50t44.5 -18l-40 -103q-96 13 -129 72q-63 -72 -171 -72t-169 51.5t-61 138.5z M408 230q-74 9 -146 9q-25 0 -46 -16.5t-21 -50.5q0 -49 28 -71t67 -22q100 0 118 124v27z" />
<glyph unicode="&#xe1;" horiz-adv-x="625" d="M475 805l-245 -115l-40 60l220 160zM40 174q0 63 54 109.5t159 46.5q70 0 147 -7v89q0 95 -100 95q-82 0 -95 -92l-160 12q11 78 76.5 136t178.5 58q115 0 185 -60t70 -149v-257q0 -36 10.5 -50t44.5 -18l-40 -103q-96 13 -129 72q-63 -72 -171 -72t-169 51.5t-61 138.5z M408 230q-74 9 -146 9q-25 0 -46 -16.5t-21 -50.5q0 -49 28 -71t67 -22q100 0 118 124v27z" />
<glyph unicode="&#xe2;" horiz-adv-x="625" d="M100 725l190 145h40l190 -145l-45 -50l-165 80l-165 -80zM40 174q0 63 54 109.5t159 46.5q70 0 147 -7v89q0 95 -100 95q-82 0 -95 -92l-160 12q11 78 76.5 136t178.5 58q115 0 185 -60t70 -149v-257q0 -36 10.5 -50t44.5 -18l-40 -103q-96 13 -129 72q-63 -72 -171 -72 t-169 51.5t-61 138.5zM408 230q-74 9 -146 9q-25 0 -46 -16.5t-21 -50.5q0 -49 28 -71t67 -22q100 0 118 124v27z" />
<glyph unicode="&#xe3;" horiz-adv-x="625" d="M100 740q24 60 54 92.5t81 32.5q59 0 115 -48q32 -27 39 -27t13.5 4.5t13 15t9.5 16.5t9 19.5t6 14.5l80 -30q-24 -60 -54 -92.5t-81 -32.5q-59 0 -115 48q-32 27 -39 27t-13.5 -4.5t-13 -15t-9.5 -16.5t-9 -19.5t-6 -14.5zM40 174q0 63 54 109.5t159 46.5q70 0 147 -7 v89q0 95 -100 95q-82 0 -95 -92l-160 12q11 78 76.5 136t178.5 58q115 0 185 -60t70 -149v-257q0 -36 10.5 -50t44.5 -18l-40 -103q-96 13 -129 72q-63 -72 -171 -72t-169 51.5t-61 138.5zM408 230q-74 9 -146 9q-25 0 -46 -16.5t-21 -50.5q0 -49 28 -71t67 -22 q100 0 118 124v27z" />
<glyph unicode="&#xe4;" horiz-adv-x="625" d="M185 859q37 0 61 -21.5t24 -57.5t-24 -57.5t-61 -21.5t-61 21.5t-24 57.5t24 57.5t61 21.5zM435 859q37 0 61 -21.5t24 -57.5t-24 -57.5t-61 -21.5t-61 21.5t-24 57.5t24 57.5t61 21.5zM40 174q0 63 54 109.5t159 46.5q70 0 147 -7v89q0 95 -100 95q-82 0 -95 -92 l-160 12q11 78 76.5 136t178.5 58q115 0 185 -60t70 -149v-257q0 -36 10.5 -50t44.5 -18l-40 -103q-96 13 -129 72q-63 -72 -171 -72t-169 51.5t-61 138.5zM408 230q-74 9 -146 9q-25 0 -46 -16.5t-21 -50.5q0 -49 28 -71t67 -22q100 0 118 124v27z" />
<glyph unicode="&#xe5;" horiz-adv-x="625" d="M310 645q-57 0 -93.5 32.5t-36.5 87.5t36.5 87.5t93.5 32.5t93.5 -32.5t36.5 -87.5t-36.5 -87.5t-93.5 -32.5zM310 715q23 0 36.5 14t13.5 36t-13.5 36t-36.5 14t-36.5 -14t-13.5 -36t13.5 -36t36.5 -14zM40 174q0 63 54 109.5t159 46.5q70 0 147 -7v89q0 95 -100 95 q-82 0 -95 -92l-160 12q11 78 76.5 136t178.5 58q115 0 185 -60t70 -149v-257q0 -36 10.5 -50t44.5 -18l-40 -103q-96 13 -129 72q-63 -72 -171 -72t-169 51.5t-61 138.5zM408 230q-74 9 -146 9q-25 0 -46 -16.5t-21 -50.5q0 -49 28 -71t67 -22q100 0 118 124v27z" />
<glyph unicode="&#xe6;" horiz-adv-x="960" d="M40 174q0 63 53.5 109.5t154.5 46.5q68 0 142 -7v89q0 51 -27 73t-68 22q-34 0 -59 -22.5t-31 -69.5l-160 12q11 78 75.5 136t174.5 58q119 0 187 -73q66 73 181 73q84 0 144 -40t86.5 -98.5t26.5 -125.5q0 -42 -10 -92h-364q6 -174 117 -174q41 0 64.5 22.5t28.5 53.5 l154 -14q-5 -27 -22 -55.5t-46 -56t-76 -45t-103 -17.5q-129 0 -195 88q-68 -88 -203 -88q-104 0 -164.5 54t-60.5 141zM549 365h221q-3 144 -107 144q-45 0 -75 -36.5t-39 -107.5zM398 230q-68 9 -136 9q-25 0 -46 -16.5t-21 -50.5q0 -46 26.5 -67t63.5 -21q95 0 113 119 v27z" />
<glyph unicode="&#xe7;" horiz-adv-x="605" d="M225 -265q140 32 140 90q0 25 -55 25q-10 0 -40 -5l-45 45l51 92q-55 7 -97.5 30t-68 53.5t-42 70.5t-22.5 76.5t-6 75.5v24q0 43 7 82.5t27 82t51.5 73.5t84 51t120.5 20q61 0 110.5 -18t78.5 -46t45 -56t21 -55l-161 -14q-6 29 -32 51t-62 22q-56 0 -91 -48.5 t-35 -144.5v-24q0 -96 35 -144.5t91 -48.5q36 0 62 22t32 51l161 -14q-4 -25 -18.5 -51.5t-40.5 -53t-69.5 -46t-96.5 -23.5l-33 -60q138 0 138 -95q0 -28 -11 -51t-34.5 -40t-41 -28t-50.5 -20.5t-42.5 -12t-35.5 -8.5z" />
<glyph unicode="&#xe8;" horiz-adv-x="640" d="M165 805l65 105l220 -160l-40 -60zM40 287v26q0 42 8 82.5t28 82.5t51.5 73t83 50.5t117.5 19.5q67 0 120.5 -23t85.5 -61t49 -84.5t17 -95.5q0 -42 -10 -92h-393q4 -86 39 -130t92 -44q42 0 70 23t33 53l154 -14q-5 -27 -22 -55.5t-46.5 -56t-78.5 -45t-110 -17.5 q-83 0 -142.5 29t-89.5 77t-43 97.5t-13 104.5zM199 365h251q-1 75 -35 109.5t-87 34.5q-51 0 -85 -36.5t-44 -107.5z" />
<glyph unicode="&#xe9;" horiz-adv-x="640" d="M495 805l-245 -115l-40 60l220 160zM40 287v26q0 42 8 82.5t28 82.5t51.5 73t83 50.5t117.5 19.5q67 0 120.5 -23t85.5 -61t49 -84.5t17 -95.5q0 -42 -10 -92h-393q4 -86 39 -130t92 -44q42 0 70 23t33 53l154 -14q-5 -27 -22 -55.5t-46.5 -56t-78.5 -45t-110 -17.5 q-83 0 -142.5 29t-89.5 77t-43 97.5t-13 104.5zM199 365h251q-1 75 -35 109.5t-87 34.5q-51 0 -85 -36.5t-44 -107.5z" />
<glyph unicode="&#xea;" horiz-adv-x="640" d="M120 725l190 145h40l190 -145l-45 -50l-165 80l-165 -80zM40 287v26q0 42 8 82.5t28 82.5t51.5 73t83 50.5t117.5 19.5q67 0 120.5 -23t85.5 -61t49 -84.5t17 -95.5q0 -42 -10 -92h-393q4 -86 39 -130t92 -44q42 0 70 23t33 53l154 -14q-5 -27 -22 -55.5t-46.5 -56 t-78.5 -45t-110 -17.5q-83 0 -142.5 29t-89.5 77t-43 97.5t-13 104.5zM199 365h251q-1 75 -35 109.5t-87 34.5q-51 0 -85 -36.5t-44 -107.5z" />
<glyph unicode="&#xeb;" horiz-adv-x="640" d="M205 859q37 0 61 -21.5t24 -57.5t-24 -57.5t-61 -21.5t-61 21.5t-24 57.5t24 57.5t61 21.5zM455 859q37 0 61 -21.5t24 -57.5t-24 -57.5t-61 -21.5t-61 21.5t-24 57.5t24 57.5t61 21.5zM40 287v26q0 42 8 82.5t28 82.5t51.5 73t83 50.5t117.5 19.5q67 0 120.5 -23 t85.5 -61t49 -84.5t17 -95.5q0 -42 -10 -92h-393q4 -86 39 -130t92 -44q42 0 70 23t33 53l154 -14q-5 -27 -22 -55.5t-46.5 -56t-78.5 -45t-110 -17.5q-83 0 -142.5 29t-89.5 77t-43 97.5t-13 104.5zM199 365h251q-1 75 -35 109.5t-87 34.5q-51 0 -85 -36.5t-44 -107.5z" />
<glyph unicode="&#xec;" horiz-adv-x="300" d="M-15 805l65 105l220 -160l-40 -60zM70 0v600h160v-600h-160z" />
<glyph unicode="&#xed;" horiz-adv-x="300" d="M315 805l-245 -115l-40 60l220 160zM70 0v600h160v-600h-160z" />
<glyph unicode="&#xee;" horiz-adv-x="300" d="M-60 725l190 145h40l190 -145l-45 -50l-165 80l-165 -80zM70 0v600h160v-600h-160z" />
<glyph unicode="&#xef;" horiz-adv-x="300" d="M25 859q37 0 61 -21.5t24 -57.5t-24 -57.5t-61 -21.5t-61 21.5t-24 57.5t24 57.5t61 21.5zM275 859q37 0 61 -21.5t24 -57.5t-24 -57.5t-61 -21.5t-61 21.5t-24 57.5t24 57.5t61 21.5zM70 0v600h160v-600h-160z" />
<glyph unicode="&#xf0;" horiz-adv-x="660" d="M391 799l139 35l20 -78l-89 -22q159 -172 159 -421v-26q0 -43 -7 -82.5t-27 -81.5t-51.5 -73t-84 -51t-120.5 -20t-120.5 20t-84 51t-51.5 73t-27 81.5t-7 82.5v25q0 52 14 102t42 95.5t80 73.5t119 28q61 0 113 -34q-32 68 -88 122l-190 -48l-20 78l134 33 q-23 16 -44 29l90 80q57 -36 101 -72zM458 372q-16 57 -53.5 90t-89.5 33q-115 0 -115 -183v-25q0 -97 36 -146.5t94 -49.5t94 49.5t36 146.5v26q0 21 -2 59z" />
<glyph unicode="&#xf1;" horiz-adv-x="655" d="M120 740q24 60 54 92.5t81 32.5q59 0 115 -48q32 -27 39 -27t13.5 4.5t13 15t9.5 16.5t9 19.5t6 14.5l80 -30q-24 -60 -54 -92.5t-81 -32.5q-59 0 -115 48q-32 27 -39 27t-13.5 -4.5t-13 -15t-9.5 -16.5t-9 -19.5t-6 -14.5zM70 0v420l-10 171l145 12l16 -119 q73 132 204 132q86 0 130.5 -62t44.5 -148v-406h-160v400q0 90 -60 90q-49 0 -92 -54.5t-58 -130.5v-305h-160z" />
<glyph unicode="&#xf2;" horiz-adv-x="660" d="M165 805l65 105l220 -160l-40 -60zM40 287v26q0 42 7.5 82t27.5 82t51 73t83.5 51t120.5 20t120.5 -20t83.5 -51t51 -73t27.5 -82t7.5 -82v-26q0 -42 -7.5 -82t-27.5 -82t-51 -73t-83.5 -51t-120.5 -20t-120.5 20t-83.5 51t-51 73t-27.5 82t-7.5 82zM330 93 q59 0 94.5 48.5t35.5 145.5v26q0 97 -35.5 145.5t-94.5 48.5t-94.5 -48.5t-35.5 -145.5v-26q0 -97 35.5 -145.5t94.5 -48.5z" />
<glyph unicode="&#xf3;" horiz-adv-x="660" d="M495 805l-245 -115l-40 60l220 160zM40 287v26q0 42 7.5 82t27.5 82t51 73t83.5 51t120.5 20t120.5 -20t83.5 -51t51 -73t27.5 -82t7.5 -82v-26q0 -42 -7.5 -82t-27.5 -82t-51 -73t-83.5 -51t-120.5 -20t-120.5 20t-83.5 51t-51 73t-27.5 82t-7.5 82zM330 93 q59 0 94.5 48.5t35.5 145.5v26q0 97 -35.5 145.5t-94.5 48.5t-94.5 -48.5t-35.5 -145.5v-26q0 -97 35.5 -145.5t94.5 -48.5z" />
<glyph unicode="&#xf4;" horiz-adv-x="660" d="M120 725l190 145h40l190 -145l-45 -50l-165 80l-165 -80zM40 287v26q0 42 7.5 82t27.5 82t51 73t83.5 51t120.5 20t120.5 -20t83.5 -51t51 -73t27.5 -82t7.5 -82v-26q0 -42 -7.5 -82t-27.5 -82t-51 -73t-83.5 -51t-120.5 -20t-120.5 20t-83.5 51t-51 73t-27.5 82t-7.5 82 zM330 93q59 0 94.5 48.5t35.5 145.5v26q0 97 -35.5 145.5t-94.5 48.5t-94.5 -48.5t-35.5 -145.5v-26q0 -97 35.5 -145.5t94.5 -48.5z" />
<glyph unicode="&#xf5;" horiz-adv-x="660" d="M120 740q24 60 54 92.5t81 32.5q59 0 115 -48q32 -27 39 -27t13.5 4.5t13 15t9.5 16.5t9 19.5t6 14.5l80 -30q-24 -60 -54 -92.5t-81 -32.5q-59 0 -115 48q-32 27 -39 27t-13.5 -4.5t-13 -15t-9.5 -16.5t-9 -19.5t-6 -14.5zM40 287v26q0 42 7.5 82t27.5 82t51 73t83.5 51 t120.5 20t120.5 -20t83.5 -51t51 -73t27.5 -82t7.5 -82v-26q0 -42 -7.5 -82t-27.5 -82t-51 -73t-83.5 -51t-120.5 -20t-120.5 20t-83.5 51t-51 73t-27.5 82t-7.5 82zM330 93q59 0 94.5 48.5t35.5 145.5v26q0 97 -35.5 145.5t-94.5 48.5t-94.5 -48.5t-35.5 -145.5v-26 q0 -97 35.5 -145.5t94.5 -48.5z" />
<glyph unicode="&#xf6;" horiz-adv-x="660" d="M205 859q37 0 61 -21.5t24 -57.5t-24 -57.5t-61 -21.5t-61 21.5t-24 57.5t24 57.5t61 21.5zM455 859q37 0 61 -21.5t24 -57.5t-24 -57.5t-61 -21.5t-61 21.5t-24 57.5t24 57.5t61 21.5zM40 287v26q0 42 7.5 82t27.5 82t51 73t83.5 51t120.5 20t120.5 -20t83.5 -51t51 -73 t27.5 -82t7.5 -82v-26q0 -42 -7.5 -82t-27.5 -82t-51 -73t-83.5 -51t-120.5 -20t-120.5 20t-83.5 51t-51 73t-27.5 82t-7.5 82zM330 93q59 0 94.5 48.5t35.5 145.5v26q0 97 -35.5 145.5t-94.5 48.5t-94.5 -48.5t-35.5 -145.5v-26q0 -97 35.5 -145.5t94.5 -48.5z" />
<glyph unicode="&#xf7;" horiz-adv-x="600" d="M75 305v110h450v-110h-450zM220 195q0 34 22.5 54t57.5 20t57.5 -20t22.5 -54t-22.5 -54t-57.5 -20t-57.5 20t-22.5 54zM220 525q0 34 22.5 54t57.5 20t57.5 -20t22.5 -54t-22.5 -54t-57.5 -20t-57.5 20t-22.5 54z" />
<glyph unicode="&#xf8;" horiz-adv-x="660" d="M40 287v26q0 42 7.5 82t27.5 82t51 73t83.5 51t120.5 20q104 0 173 -46l37 46l65 -46l-45 -55q60 -81 60 -207v-26q0 -42 -7.5 -82t-27.5 -82t-51 -73t-83.5 -51t-120.5 -20q-104 0 -173 46l-37 -46l-65 46l45 55q-60 81 -60 207zM416 469q-32 38 -86 38 q-59 0 -94.5 -48.5t-35.5 -145.5v-26q0 -44 7 -75zM453 388l-209 -257q32 -38 86 -38q59 0 94.5 48.5t35.5 145.5v26q0 44 -7 75z" />
<glyph unicode="&#xf9;" horiz-adv-x="620" d="M145 805l65 105l220 -160l-40 -60zM50 194v406h160v-406q0 -53 27.5 -77t72.5 -24t72.5 24t27.5 77v406h160v-406q0 -90 -71 -152.5t-189 -62.5t-189 62.5t-71 152.5z" />
<glyph unicode="&#xfa;" horiz-adv-x="620" d="M475 805l-245 -115l-40 60l220 160zM50 194v406h160v-406q0 -53 27.5 -77t72.5 -24t72.5 24t27.5 77v406h160v-406q0 -90 -71 -152.5t-189 -62.5t-189 62.5t-71 152.5z" />
<glyph unicode="&#xfb;" horiz-adv-x="620" d="M100 725l190 145h40l190 -145l-45 -50l-165 80l-165 -80zM50 194v406h160v-406q0 -53 27.5 -77t72.5 -24t72.5 24t27.5 77v406h160v-406q0 -90 -71 -152.5t-189 -62.5t-189 62.5t-71 152.5z" />
<glyph unicode="&#xfc;" horiz-adv-x="620" d="M185 859q37 0 61 -21.5t24 -57.5t-24 -57.5t-61 -21.5t-61 21.5t-24 57.5t24 57.5t61 21.5zM435 859q37 0 61 -21.5t24 -57.5t-24 -57.5t-61 -21.5t-61 21.5t-24 57.5t24 57.5t61 21.5zM50 194v406h160v-406q0 -53 27.5 -77t72.5 -24t72.5 24t27.5 77v406h160v-406 q0 -90 -71 -152.5t-189 -62.5t-189 62.5t-71 152.5z" />
<glyph unicode="&#xfd;" horiz-adv-x="600" d="M465 805l-245 -115l-40 60l220 160zM0 580v8l175 12l127 -400l123 400l175 -12v-8l-235 -595q-2 -5 -14.5 -32t-15.5 -33l-14.5 -29t-17 -29.5t-18 -24.5t-21.5 -24t-24 -17.5t-29.5 -15.5t-33 -7.5t-39.5 -3.5q-71 0 -128 42l75 94q30 -26 48 -26q27 0 47 27.5t52 101.5 z" />
<glyph unicode="&#xfe;" horiz-adv-x="675" d="M635 290q0 -52 -14 -103t-42 -98t-80 -76t-119 -29q-89 0 -150 71v-265h-160v1020h155v-271q63 77 155 77q67 0 119 -29t80 -76t42 -98t14 -103v-20zM230 217q36 -117 130 -117q52 0 83.5 46t31.5 144v20q0 98 -31.5 144t-83.5 46q-94 0 -130 -117v-166z" />
<glyph unicode="&#xff;" horiz-adv-x="600" d="M175 859q37 0 61 -21.5t24 -57.5t-24 -57.5t-61 -21.5t-61 21.5t-24 57.5t24 57.5t61 21.5zM425 859q37 0 61 -21.5t24 -57.5t-24 -57.5t-61 -21.5t-61 21.5t-24 57.5t24 57.5t61 21.5zM0 580v8l175 12l127 -400l123 400l175 -12v-8l-235 -595q-2 -5 -14.5 -32t-15.5 -33 l-14.5 -29t-17 -29.5t-18 -24.5t-21.5 -24t-24 -17.5t-29.5 -15.5t-33 -7.5t-39.5 -3.5q-71 0 -128 42l75 94q30 -26 48 -26q27 0 47 27.5t52 101.5z" />
<glyph unicode="&#x100;" horiz-adv-x="750" d="M165 880v100h420v-100h-420zM750 0h-190l-49 150h-272l-49 -150h-190v11l305 769h140l305 -769v-11zM472 270l-97 296l-97 -296h194z" />
<glyph unicode="&#x101;" horiz-adv-x="625" d="M100 730v100h420v-100h-420zM40 174q0 63 54 109.5t159 46.5q70 0 147 -7v89q0 95 -100 95q-82 0 -95 -92l-160 12q11 78 76.5 136t178.5 58q115 0 185 -60t70 -149v-257q0 -36 10.5 -50t44.5 -18l-40 -103q-96 13 -129 72q-63 -72 -171 -72t-169 51.5t-61 138.5z M408 230q-74 9 -146 9q-25 0 -46 -16.5t-21 -50.5q0 -49 28 -71t67 -22q100 0 118 124v27z" />
<glyph unicode="&#x102;" horiz-adv-x="750" d="M165 984l96 31q26 -80 114 -80t114 80l96 -31q-19 -60 -70 -102t-140 -42t-140 42t-70 102zM750 0h-190l-49 150h-272l-49 -150h-190v11l305 769h140l305 -769v-11zM472 270l-97 296l-97 -296h194z" />
<glyph unicode="&#x103;" horiz-adv-x="625" d="M100 834l96 31q26 -80 114 -80t114 80l96 -31q-19 -60 -70 -102t-140 -42t-140 42t-70 102zM40 174q0 63 54 109.5t159 46.5q70 0 147 -7v89q0 95 -100 95q-82 0 -95 -92l-160 12q11 78 76.5 136t178.5 58q115 0 185 -60t70 -149v-257q0 -36 10.5 -50t44.5 -18l-40 -103 q-96 13 -129 72q-63 -72 -171 -72t-169 51.5t-61 138.5zM408 230q-74 9 -146 9q-25 0 -46 -16.5t-21 -50.5q0 -49 28 -71t67 -22q100 0 118 124v27z" />
<glyph unicode="&#x104;" horiz-adv-x="750" d="M472 270l-97 296l-97 -296h194zM634 0h-74l-49 150h-272l-49 -150h-190v11l305 769h140l305 -769v-11h-28q-42 -53 -42 -125q0 -55 45 -55q37 0 60 15l25 -73q-42 -22 -105 -22q-60 0 -92.5 33t-32.5 87q0 75 54 140z" />
<glyph unicode="&#x105;" horiz-adv-x="625" d="M408 230q-74 9 -146 9q-25 0 -46 -16.5t-21 -50.5q0 -49 28 -71t67 -22q100 0 118 124v27zM40 174q0 63 54 109.5t159 46.5q70 0 147 -7v89q0 95 -100 95q-82 0 -95 -92l-160 12q11 78 76.5 136t178.5 58q115 0 185 -60t70 -149v-257q0 -36 10.5 -50t44.5 -18l-40 -103 q-2 1 -6.5 1.5t-6.5 0.5q-32 -48 -32 -111q0 -55 45 -55q38 0 60 15l25 -73q-42 -22 -105 -22q-60 0 -92.5 33t-32.5 87q0 80 62 150q-30 19 -46 46q-63 -72 -171 -72t-169 51.5t-61 138.5z" />
<glyph unicode="&#x106;" horiz-adv-x="755" d="M575 955l-245 -115l-40 60l220 160zM45 375v30q0 56 10 108.5t36 106t66.5 93t106 64t148.5 24.5q75 0 136 -22t97.5 -57t57.5 -70.5t27 -69.5l-174 -16q-8 42 -46 74.5t-98 32.5q-89 0 -139 -68.5t-50 -199.5v-30q0 -131 50 -199.5t139 -68.5q60 0 98 32.5t46 74.5 l174 -16q-6 -34 -27 -69.5t-57.5 -70.5t-97.5 -57t-136 -22q-83 0 -148.5 24.5t-106 64t-66.5 93t-36 106t-10 108.5z" />
<glyph unicode="&#x107;" horiz-adv-x="605" d="M495 805l-245 -115l-40 60l220 160zM424 168l161 -14q-5 -27 -21 -55t-45 -56t-78.5 -46t-110.5 -18q-68 0 -120.5 20t-84 51t-51.5 73.5t-27 82t-7 82.5v24q0 43 7 82.5t27 82t51.5 73.5t84 51t120.5 20q61 0 110.5 -18t78.5 -46t45 -56t21 -55l-161 -14q-6 29 -32 51 t-62 22q-56 0 -91 -48.5t-35 -144.5v-24q0 -96 35 -144.5t91 -48.5q36 0 62 22t32 51z" />
<glyph unicode="&#x108;" horiz-adv-x="755" d="M200 875l190 145h40l190 -145l-45 -50l-165 80l-165 -80zM45 375v30q0 56 10 108.5t36 106t66.5 93t106 64t148.5 24.5q75 0 136 -22t97.5 -57t57.5 -70.5t27 -69.5l-174 -16q-8 42 -46 74.5t-98 32.5q-89 0 -139 -68.5t-50 -199.5v-30q0 -131 50 -199.5t139 -68.5 q60 0 98 32.5t46 74.5l174 -16q-6 -34 -27 -69.5t-57.5 -70.5t-97.5 -57t-136 -22q-83 0 -148.5 24.5t-106 64t-66.5 93t-36 106t-10 108.5z" />
<glyph unicode="&#x109;" horiz-adv-x="605" d="M120 725l190 145h40l190 -145l-45 -50l-165 80l-165 -80zM424 168l161 -14q-5 -27 -21 -55t-45 -56t-78.5 -46t-110.5 -18q-68 0 -120.5 20t-84 51t-51.5 73.5t-27 82t-7 82.5v24q0 43 7 82.5t27 82t51.5 73.5t84 51t120.5 20q61 0 110.5 -18t78.5 -46t45 -56t21 -55 l-161 -14q-6 29 -32 51t-62 22q-56 0 -91 -48.5t-35 -144.5v-24q0 -96 35 -144.5t91 -48.5q36 0 62 22t32 51z" />
<glyph unicode="&#x10a;" horiz-adv-x="755" d="M315 930q0 40 27 64t68 24t68 -24t27 -64t-27 -64t-68 -24t-68 24t-27 64zM45 375v30q0 56 10 108.5t36 106t66.5 93t106 64t148.5 24.5q75 0 136 -22t97.5 -57t57.5 -70.5t27 -69.5l-174 -16q-8 42 -46 74.5t-98 32.5q-89 0 -139 -68.5t-50 -199.5v-30q0 -131 50 -199.5 t139 -68.5q60 0 98 32.5t46 74.5l174 -16q-6 -34 -27 -69.5t-57.5 -70.5t-97.5 -57t-136 -22q-83 0 -148.5 24.5t-106 64t-66.5 93t-36 106t-10 108.5z" />
<glyph unicode="&#x10b;" horiz-adv-x="605" d="M235 780q0 40 27 64t68 24t68 -24t27 -64t-27 -64t-68 -24t-68 24t-27 64zM424 168l161 -14q-5 -27 -21 -55t-45 -56t-78.5 -46t-110.5 -18q-68 0 -120.5 20t-84 51t-51.5 73.5t-27 82t-7 82.5v24q0 43 7 82.5t27 82t51.5 73.5t84 51t120.5 20q61 0 110.5 -18t78.5 -46 t45 -56t21 -55l-161 -14q-6 29 -32 51t-62 22q-56 0 -91 -48.5t-35 -144.5v-24q0 -96 35 -144.5t91 -48.5q36 0 62 22t32 51z" />
<glyph unicode="&#x10c;" horiz-adv-x="755" d="M620 980l-190 -145h-40l-190 145l45 50l165 -80l165 80zM45 375v30q0 56 10 108.5t36 106t66.5 93t106 64t148.5 24.5q75 0 136 -22t97.5 -57t57.5 -70.5t27 -69.5l-174 -16q-8 42 -46 74.5t-98 32.5q-89 0 -139 -68.5t-50 -199.5v-30q0 -131 50 -199.5t139 -68.5 q60 0 98 32.5t46 74.5l174 -16q-6 -34 -27 -69.5t-57.5 -70.5t-97.5 -57t-136 -22q-83 0 -148.5 24.5t-106 64t-66.5 93t-36 106t-10 108.5z" />
<glyph unicode="&#x10d;" horiz-adv-x="605" d="M540 830l-190 -145h-40l-190 145l45 50l165 -80l165 80zM424 168l161 -14q-5 -27 -21 -55t-45 -56t-78.5 -46t-110.5 -18q-68 0 -120.5 20t-84 51t-51.5 73.5t-27 82t-7 82.5v24q0 43 7 82.5t27 82t51.5 73.5t84 51t120.5 20q61 0 110.5 -18t78.5 -46t45 -56t21 -55 l-161 -14q-6 29 -32 51t-62 22q-56 0 -91 -48.5t-35 -144.5v-24q0 -96 35 -144.5t91 -48.5q36 0 62 22t32 51z" />
<glyph unicode="&#x10e;" horiz-adv-x="770" d="M530 980l-190 -145h-40l-190 145l45 50l165 -80l165 80zM245 114q10 0 28.5 -0.5t26.5 -0.5q255 0 255 267v20q0 267 -255 267q-8 0 -26.5 -0.5t-28.5 -0.5v-552zM75 780q112 9 225 9q115 0 201 -34.5t133 -92.5t69 -123.5t22 -138.5v-20q0 -73 -22 -138.5t-69 -123.5 t-133 -92.5t-201 -34.5q-50 0 -106.5 2t-87.5 5l-31 2v780z" />
<glyph unicode="&#x10f;" horiz-adv-x="890" d="M782 681h-7q-33 0 -54 18.5t-21 50.5q0 37 23 61t64 24q46 0 69.5 -28.5t23.5 -65.5q0 -74 -40.5 -122t-96.5 -69l-38 50q56 21 77 81zM40 290v20q0 52 14 103t42 98t80 76t119 29q92 0 155 -77v271h155v-655q0 -36 10.5 -50t44.5 -18l-40 -103q-129 18 -143 116 q-69 -116 -182 -116q-67 0 -119 29t-80 76t-42 98t-14 103zM450 364q-14 62 -49 99t-86 37q-52 0 -83.5 -46t-31.5 -144v-20q0 -98 31.5 -144t83.5 -46q51 0 86 37t49 99v128z" />
<glyph unicode="&#x110;" horiz-adv-x="770" d="M5 345v90h70v345q112 9 225 9q115 0 201 -34.5t133 -92.5t69 -123.5t22 -138.5v-20q0 -73 -22 -138.5t-69 -123.5t-133 -92.5t-201 -34.5q-50 0 -106.5 2t-87.5 5l-31 2v345h-70zM245 114q10 0 28.5 -0.5t26.5 -0.5q255 0 255 267v20q0 267 -255 267q-8 0 -26.5 -0.5 t-28.5 -0.5v-231h180v-90h-180v-231z" />
<glyph unicode="&#x111;" horiz-adv-x="680" d="M315 675v90h135v45h155v-45h70v-90h-70v-520q0 -36 10.5 -50t44.5 -18l-40 -103q-129 18 -143 116q-69 -116 -182 -116q-67 0 -119 29t-80 76t-42 98t-14 103v20q0 52 14 103t42 98t80 76t119 29q92 0 155 -77v136h-135zM450 364q-14 62 -49 99t-86 37q-52 0 -83.5 -46 t-31.5 -144v-20q0 -98 31.5 -144t83.5 -46q51 0 86 37t49 99v128z" />
<glyph unicode="&#x112;" horiz-adv-x="675" d="M140 880v100h420v-100h-420zM75 0v780h545v-130h-375v-205h335v-120h-335v-195h390v-130h-560z" />
<glyph unicode="&#x113;" horiz-adv-x="640" d="M120 730v100h420v-100h-420zM40 287v26q0 42 8 82.5t28 82.5t51.5 73t83 50.5t117.5 19.5q67 0 120.5 -23t85.5 -61t49 -84.5t17 -95.5q0 -42 -10 -92h-393q4 -86 39 -130t92 -44q42 0 70 23t33 53l154 -14q-5 -27 -22 -55.5t-46.5 -56t-78.5 -45t-110 -17.5 q-83 0 -142.5 29t-89.5 77t-43 97.5t-13 104.5zM199 365h251q-1 75 -35 109.5t-87 34.5q-51 0 -85 -36.5t-44 -107.5z" />
<glyph unicode="&#x114;" horiz-adv-x="675" d="M140 984l96 31q26 -80 114 -80t114 80l96 -31q-19 -60 -70 -102t-140 -42t-140 42t-70 102zM75 0v780h545v-130h-375v-205h335v-120h-335v-195h390v-130h-560z" />
<glyph unicode="&#x115;" horiz-adv-x="640" d="M120 834l96 31q26 -80 114 -80t114 80l96 -31q-19 -60 -70 -102t-140 -42t-140 42t-70 102zM40 287v26q0 42 8 82.5t28 82.5t51.5 73t83 50.5t117.5 19.5q67 0 120.5 -23t85.5 -61t49 -84.5t17 -95.5q0 -42 -10 -92h-393q4 -86 39 -130t92 -44q42 0 70 23t33 53l154 -14 q-5 -27 -22 -55.5t-46.5 -56t-78.5 -45t-110 -17.5q-83 0 -142.5 29t-89.5 77t-43 97.5t-13 104.5zM199 365h251q-1 75 -35 109.5t-87 34.5q-51 0 -85 -36.5t-44 -107.5z" />
<glyph unicode="&#x116;" horiz-adv-x="675" d="M255 930q0 40 27 64t68 24t68 -24t27 -64t-27 -64t-68 -24t-68 24t-27 64zM75 0v780h545v-130h-375v-205h335v-120h-335v-195h390v-130h-560z" />
<glyph unicode="&#x117;" horiz-adv-x="640" d="M235 780q0 40 27 64t68 24t68 -24t27 -64t-27 -64t-68 -24t-68 24t-27 64zM40 287v26q0 42 8 82.5t28 82.5t51.5 73t83 50.5t117.5 19.5q67 0 120.5 -23t85.5 -61t49 -84.5t17 -95.5q0 -42 -10 -92h-393q4 -86 39 -130t92 -44q42 0 70 23t33 53l154 -14q-5 -27 -22 -55.5 t-46.5 -56t-78.5 -45t-110 -17.5q-83 0 -142.5 29t-89.5 77t-43 97.5t-13 104.5zM199 365h251q-1 75 -35 109.5t-87 34.5q-51 0 -85 -36.5t-44 -107.5z" />
<glyph unicode="&#x118;" horiz-adv-x="675" d="M75 0v780h545v-130h-375v-205h335v-120h-335v-195h390v-130h-38q-42 -53 -42 -125q0 -55 45 -55q38 0 60 15l25 -73q-42 -22 -105 -22q-60 0 -92.5 33t-32.5 87q0 75 54 140h-434z" />
<glyph unicode="&#x119;" horiz-adv-x="640" d="M199 365h251q-1 75 -35 109.5t-87 34.5q-51 0 -85 -36.5t-44 -107.5zM40 287v26q0 42 8 82.5t28 82.5t51.5 73t83 50.5t117.5 19.5q67 0 120.5 -23t85.5 -61t49 -84.5t17 -95.5q0 -42 -10 -92h-393q4 -86 39 -130t92 -44q42 0 70 23t33 53l154 -14q-7 -37 -35.5 -76 t-76.5 -65q-53 -55 -53 -137q0 -55 45 -55q37 0 60 15l25 -73q-42 -22 -105 -22q-60 0 -92.5 33t-32.5 87q0 64 39 120q-10 -1 -31 -1q-83 0 -142.5 29t-89.5 77t-43 97.5t-13 104.5z" />
<glyph unicode="&#x11a;" horiz-adv-x="675" d="M560 980l-190 -145h-40l-190 145l45 50l165 -80l165 80zM75 0v780h545v-130h-375v-205h335v-120h-335v-195h390v-130h-560z" />
<glyph unicode="&#x11b;" horiz-adv-x="640" d="M540 830l-190 -145h-40l-190 145l45 50l165 -80l165 80zM40 287v26q0 42 8 82.5t28 82.5t51.5 73t83 50.5t117.5 19.5q67 0 120.5 -23t85.5 -61t49 -84.5t17 -95.5q0 -42 -10 -92h-393q4 -86 39 -130t92 -44q42 0 70 23t33 53l154 -14q-5 -27 -22 -55.5t-46.5 -56 t-78.5 -45t-110 -17.5q-83 0 -142.5 29t-89.5 77t-43 97.5t-13 104.5zM199 365h251q-1 75 -35 109.5t-87 34.5q-51 0 -85 -36.5t-44 -107.5z" />
<glyph unicode="&#x11c;" horiz-adv-x="770" d="M200 875l190 145h40l190 -145l-45 -50l-165 80l-165 -80zM415 285v120h310v-270q-37 -63 -116 -109.5t-197 -46.5q-83 0 -148.5 24.5t-106 64t-66.5 93t-36 106t-10 108.5v30q0 56 10 108.5t36 106t66.5 93t106 64t148.5 24.5q75 0 136 -22t97.5 -57t57.5 -70.5t27 -69.5 l-172 -16q-8 42 -46.5 75.5t-99.5 33.5q-92 0 -142.5 -68t-50.5 -202v-30q0 -134 50.5 -202t142.5 -68q109 0 158 55v125h-155z" />
<glyph unicode="&#x11d;" horiz-adv-x="670" d="M150 725l190 145h40l190 -145l-45 -50l-165 80l-165 -80zM40 315q0 50 14 100t42 96.5t80 75.5t119 29q98 0 164 -89l10 73h136v-615q0 -92 -71 -154t-187 -62q-104 0 -170 37t-82 77l148 42q7 -16 33.5 -31.5t70.5 -15.5q108 0 108 107v113q-65 -84 -160 -84 q-67 0 -119 29t-80 75.5t-42 96.5t-14 100zM450 364q-14 62 -49 99t-86 37q-52 0 -83.5 -45.5t-31.5 -139.5t31.5 -139.5t83.5 -45.5q51 0 86 37t49 99v98z" />
<glyph unicode="&#x11e;" horiz-adv-x="770" d="M200 984l96 31q26 -80 114 -80t114 80l96 -31q-19 -60 -70 -102t-140 -42t-140 42t-70 102zM415 285v120h310v-270q-37 -63 -116 -109.5t-197 -46.5q-83 0 -148.5 24.5t-106 64t-66.5 93t-36 106t-10 108.5v30q0 56 10 108.5t36 106t66.5 93t106 64t148.5 24.5 q75 0 136 -22t97.5 -57t57.5 -70.5t27 -69.5l-172 -16q-8 42 -46.5 75.5t-99.5 33.5q-92 0 -142.5 -68t-50.5 -202v-30q0 -134 50.5 -202t142.5 -68q109 0 158 55v125h-155z" />
<glyph unicode="&#x11f;" horiz-adv-x="670" d="M150 834l96 31q26 -80 114 -80t114 80l96 -31q-19 -60 -70 -102t-140 -42t-140 42t-70 102zM40 315q0 50 14 100t42 96.5t80 75.5t119 29q98 0 164 -89l10 73h136v-615q0 -92 -71 -154t-187 -62q-104 0 -170 37t-82 77l148 42q7 -16 33.5 -31.5t70.5 -15.5q108 0 108 107 v113q-65 -84 -160 -84q-67 0 -119 29t-80 75.5t-42 96.5t-14 100zM450 364q-14 62 -49 99t-86 37q-52 0 -83.5 -45.5t-31.5 -139.5t31.5 -139.5t83.5 -45.5q51 0 86 37t49 99v98z" />
<glyph unicode="&#x120;" horiz-adv-x="770" d="M315 930q0 40 27 64t68 24t68 -24t27 -64t-27 -64t-68 -24t-68 24t-27 64zM415 285v120h310v-270q-37 -63 -116 -109.5t-197 -46.5q-83 0 -148.5 24.5t-106 64t-66.5 93t-36 106t-10 108.5v30q0 56 10 108.5t36 106t66.5 93t106 64t148.5 24.5q75 0 136 -22t97.5 -57 t57.5 -70.5t27 -69.5l-172 -16q-8 42 -46.5 75.5t-99.5 33.5q-92 0 -142.5 -68t-50.5 -202v-30q0 -134 50.5 -202t142.5 -68q109 0 158 55v125h-155z" />
<glyph unicode="&#x121;" horiz-adv-x="670" d="M265 780q0 40 27 64t68 24t68 -24t27 -64t-27 -64t-68 -24t-68 24t-27 64zM40 315q0 50 14 100t42 96.5t80 75.5t119 29q98 0 164 -89l10 73h136v-615q0 -92 -71 -154t-187 -62q-104 0 -170 37t-82 77l148 42q7 -16 33.5 -31.5t70.5 -15.5q108 0 108 107v113 q-65 -84 -160 -84q-67 0 -119 29t-80 75.5t-42 96.5t-14 100zM450 364q-14 62 -49 99t-86 37q-52 0 -83.5 -45.5t-31.5 -139.5t31.5 -139.5t83.5 -45.5q51 0 86 37t49 99v98z" />
<glyph unicode="&#x122;" horiz-adv-x="770" d="M397 -219h-7q-33 0 -54 18.5t-21 50.5q0 37 23 61t64 24q46 0 69.5 -28.5t23.5 -65.5q0 -74 -40.5 -122t-96.5 -69l-38 50q56 21 77 81zM415 285v120h310v-270q-37 -63 -116 -109.5t-197 -46.5q-83 0 -148.5 24.5t-106 64t-66.5 93t-36 106t-10 108.5v30q0 56 10 108.5 t36 106t66.5 93t106 64t148.5 24.5q75 0 136 -22t97.5 -57t57.5 -70.5t27 -69.5l-172 -16q-8 42 -46.5 75.5t-99.5 33.5q-92 0 -142.5 -68t-50.5 -202v-30q0 -134 50.5 -202t142.5 -68q109 0 158 55v125h-155z" />
<glyph unicode="&#x123;" horiz-adv-x="670" d="M373 849h7q33 0 54 -18.5t21 -50.5q0 -37 -23 -61t-64 -24q-46 0 -69.5 28.5t-23.5 65.5q0 74 40.5 122t96.5 69l38 -50q-56 -21 -77 -81zM40 315q0 50 14 100t42 96.5t80 75.5t119 29q98 0 164 -89l10 73h136v-615q0 -92 -71 -154t-187 -62q-104 0 -170 37t-82 77 l148 42q7 -16 33.5 -31.5t70.5 -15.5q108 0 108 107v113q-65 -84 -160 -84q-67 0 -119 29t-80 75.5t-42 96.5t-14 100zM450 364q-14 62 -49 99t-86 37q-52 0 -83.5 -45.5t-31.5 -139.5t31.5 -139.5t83.5 -45.5q51 0 86 37t49 99v98z" />
<glyph unicode="&#x124;" horiz-adv-x="790" d="M185 875l190 145h40l190 -145l-45 -50l-165 80l-165 -80zM75 0v780h170v-325h300v325h170v-780h-170v325h-300v-325h-170z" />
<glyph unicode="&#x125;" horiz-adv-x="665" d="M-75 905l190 145h40l190 -145l-45 -50l-165 80l-165 -80zM70 0v810h155v-328q77 134 210 134q86 0 130.5 -62t44.5 -148v-406h-160v400q0 90 -60 90q-50 0 -97.5 -56t-62.5 -131v-303h-160z" />
<glyph unicode="&#x126;" horiz-adv-x="790" d="M5 615v90h70v75h170v-75h300v75h170v-75h70v-90h-70v-615h-170v325h-300v-325h-170v615h-70zM545 615h-300v-160h300v160z" />
<glyph unicode="&#x127;" horiz-adv-x="665" d="M0 675v90h70v45h155v-45h135v-90h-135v-193q77 134 210 134q86 0 130.5 -62t44.5 -148v-406h-160v400q0 90 -60 90q-50 0 -97.5 -56t-62.5 -131v-303h-160v675h-70z" />
<glyph unicode="&#x128;" horiz-adv-x="320" d="M-50 890q24 60 54 92.5t81 32.5q59 0 115 -48q32 -27 39 -27t13.5 4.5t13 15t9.5 16.5t9 19.5t6 14.5l80 -30q-24 -60 -54 -92.5t-81 -32.5q-59 0 -115 48q-32 27 -39 27t-13.5 -4.5t-13 -15t-9.5 -16.5t-9 -19.5t-6 -14.5zM75 0v780h170v-780h-170z" />
<glyph unicode="&#x129;" horiz-adv-x="300" d="M-60 740q24 60 54 92.5t81 32.5q59 0 115 -48q32 -27 39 -27t13.5 4.5t13 15t9.5 16.5t9 19.5t6 14.5l80 -30q-24 -60 -54 -92.5t-81 -32.5q-59 0 -115 48q-32 27 -39 27t-13.5 -4.5t-13 -15t-9.5 -16.5t-9 -19.5t-6 -14.5zM70 0v600h160v-600h-160z" />
<glyph unicode="&#x12a;" horiz-adv-x="320" d="M-50 880v100h420v-100h-420zM75 0v780h170v-780h-170z" />
<glyph unicode="&#x12b;" horiz-adv-x="300" d="M-60 730v100h420v-100h-420zM70 0v600h160v-600h-160z" />
<glyph unicode="&#x12c;" horiz-adv-x="320" d="M-50 984l96 31q26 -80 114 -80t114 80l96 -31q-19 -60 -70 -102t-140 -42t-140 42t-70 102zM75 0v780h170v-780h-170z" />
<glyph unicode="&#x12d;" horiz-adv-x="300" d="M-60 834l96 31q26 -80 114 -80t114 80l96 -31q-19 -60 -70 -102t-140 -42t-140 42t-70 102zM70 0v600h160v-600h-160z" />
<glyph unicode="&#x12e;" horiz-adv-x="320" d="M75 0v780h170v-780h-28q-42 -53 -42 -125q0 -55 45 -55q38 0 60 15l25 -73q-42 -22 -105 -22q-60 0 -92.5 33t-32.5 87q0 75 54 140h-54z" />
<glyph unicode="&#x12f;" horiz-adv-x="300" d="M70 0v600h160v-600h-23q-42 -53 -42 -125q0 -55 45 -55q38 0 60 15l25 -73q-42 -22 -105 -22q-60 0 -92.5 33t-32.5 87q0 75 54 140h-49zM55 780q0 40 27 64t68 24t68 -24t27 -64t-27 -64t-68 -24t-68 24t-27 64z" />
<glyph unicode="&#x130;" horiz-adv-x="320" d="M65 930q0 40 27 64t68 24t68 -24t27 -64t-27 -64t-68 -24t-68 24t-27 64zM75 0v780h170v-780h-170z" />
<glyph unicode="&#x131;" horiz-adv-x="300" d="M70 0v600h160v-600h-160z" />
<glyph unicode="&#x134;" horiz-adv-x="520" d="M150 875l190 145h40l190 -145l-45 -50l-165 80l-165 -80zM5 143l170 12q9 -56 50 -56q50 0 50 70v611h170v-611q0 -78 -58.5 -134t-161.5 -56q-98 0 -154 49.5t-66 114.5z" />
<glyph unicode="&#x135;" horiz-adv-x="310" d="M-50 725l190 145h40l190 -145l-45 -50l-165 80l-165 -80zM35 -226l-50 101q51 13 73 38.5t22 81.5v605h160v-615q0 -85 -59 -139t-146 -72z" />
<glyph unicode="&#x136;" horiz-adv-x="715" d="M347 -219h-7q-33 0 -54 18.5t-21 50.5q0 37 23 61t64 24q46 0 69.5 -28.5t23.5 -65.5q0 -74 -40.5 -122t-96.5 -69l-38 50q56 21 77 81zM75 0v780h164v-313l266 313l190 -13v-8l-303 -314l333 -437v-8h-199l-243 332l-44 -45v-287h-164z" />
<glyph unicode="&#x137;" horiz-adv-x="605" d="M347 -219h-7q-33 0 -54 18.5t-21 50.5q0 37 23 61t64 24q46 0 69.5 -28.5t23.5 -65.5q0 -74 -40.5 -122t-96.5 -69l-38 50q56 21 77 81zM80 0v810h152v-428l188 218l175 -10v-6l-238 -243l258 -335v-6h-182l-177 238l-24 -25v-213h-152z" />
<glyph unicode="&#x138;" horiz-adv-x="610" d="M80 0v600h152v-218l188 218l175 -10v-6l-238 -243l258 -335v-6h-182l-177 238l-24 -25v-213h-152z" />
<glyph unicode="&#x139;" horiz-adv-x="570" d="M325 955l-245 -115l-40 60l220 160zM75 0v780h172v-650h313v-130h-485z" />
<glyph unicode="&#x13a;" horiz-adv-x="315" d="M305 985l-245 -115l-40 60l220 160zM70 140v670h160v-655q0 -34 19 -48.5t66 -19.5l-30 -103q-215 15 -215 156z" />
<glyph unicode="&#x13b;" horiz-adv-x="570" d="M307 -219h-7q-33 0 -54 18.5t-21 50.5q0 37 23 61t64 24q46 0 69.5 -28.5t23.5 -65.5q0 -74 -40.5 -122t-96.5 -69l-38 50q56 21 77 81zM75 0v780h172v-650h313v-130h-485z" />
<glyph unicode="&#x13c;" horiz-adv-x="315" d="M177 -219h-7q-33 0 -54 18.5t-21 50.5q0 37 23 61t64 24q46 0 69.5 -28.5t23.5 -65.5q0 -74 -40.5 -122t-96.5 -69l-38 50q56 21 77 81zM70 140v670h160v-655q0 -34 19 -48.5t66 -19.5l-30 -103q-215 15 -215 156z" />
<glyph unicode="&#x13d;" horiz-adv-x="570" d="M432 681h-7q-33 0 -54 18.5t-21 50.5q0 37 23 61t64 24q46 0 69.5 -28.5t23.5 -65.5q0 -74 -40.5 -122t-96.5 -69l-38 50q56 21 77 81zM75 0v780h172v-650h313v-130h-485z" />
<glyph unicode="&#x13e;" horiz-adv-x="525" d="M417 681h-7q-33 0 -54 18.5t-21 50.5q0 37 23 61t64 24q46 0 69.5 -28.5t23.5 -65.5q0 -74 -40.5 -122t-96.5 -69l-38 50q56 21 77 81zM70 140v670h160v-655q0 -34 19 -48.5t66 -19.5l-30 -103q-215 15 -215 156z" />
<glyph unicode="&#x13f;" horiz-adv-x="570" d="M340 360q0 40 27 64t68 24t68 -24t27 -64t-27 -64t-68 -24t-68 24t-27 64zM75 0v780h172v-650h313v-130h-485z" />
<glyph unicode="&#x140;" horiz-adv-x="510" d="M290 360q0 40 27 64t68 24t68 -24t27 -64t-27 -64t-68 -24t-68 24t-27 64zM70 140v670h160v-655q0 -34 19 -48.5t66 -19.5l-30 -103q-215 15 -215 156z" />
<glyph unicode="&#x141;" horiz-adv-x="580" d="M257 486l106 69l12 -97l-118 -77v-251h313v-130h-485v269l-68 -44l-12 97l80 52v406h172v-294z" />
<glyph unicode="&#x142;" horiz-adv-x="360" d="M240 478l118 77l12 -97l-130 -85v-218q0 -34 19 -48.5t66 -19.5l-30 -103q-215 15 -215 156v129l-68 -44l-12 97l80 52v436h160v-332z" />
<glyph unicode="&#x143;" horiz-adv-x="790" d="M560 955l-245 -115l-40 60l220 160zM75 0v765l145 15l329 -507v507h166v-780h-145l-329 507v-507h-166z" />
<glyph unicode="&#x144;" horiz-adv-x="655" d="M495 805l-245 -115l-40 60l220 160zM70 0v420l-10 171l145 12l16 -119q73 132 204 132q86 0 130.5 -62t44.5 -148v-406h-160v400q0 90 -60 90q-49 0 -92 -54.5t-58 -130.5v-305h-160z" />
<glyph unicode="&#x145;" horiz-adv-x="790" d="M382 -219h-7q-33 0 -54 18.5t-21 50.5q0 37 23 61t64 24q46 0 69.5 -28.5t23.5 -65.5q0 -74 -40.5 -122t-96.5 -69l-38 50q56 21 77 81zM75 0v765l145 15l329 -507v507h166v-780h-145l-329 507v-507h-166z" />
<glyph unicode="&#x146;" horiz-adv-x="655" d="M347 -219h-7q-33 0 -54 18.5t-21 50.5q0 37 23 61t64 24q46 0 69.5 -28.5t23.5 -65.5q0 -74 -40.5 -122t-96.5 -69l-38 50q56 21 77 81zM70 0v420l-10 171l145 12l16 -119q73 132 204 132q86 0 130.5 -62t44.5 -148v-406h-160v400q0 90 -60 90q-49 0 -92 -54.5 t-58 -130.5v-305h-160z" />
<glyph unicode="&#x147;" horiz-adv-x="790" d="M605 980l-190 -145h-40l-190 145l45 50l165 -80l165 80zM75 0v765l145 15l329 -507v507h166v-780h-145l-329 507v-507h-166z" />
<glyph unicode="&#x148;" horiz-adv-x="655" d="M540 830l-190 -145h-40l-190 145l45 50l165 -80l165 80zM70 0v420l-10 171l145 12l16 -119q73 132 204 132q86 0 130.5 -62t44.5 -148v-406h-160v400q0 90 -60 90q-49 0 -92 -54.5t-58 -130.5v-305h-160z" />
<glyph unicode="&#x149;" horiz-adv-x="865" d="M280 0v420l-10 171l145 12l16 -119q73 132 204 132q86 0 130.5 -62t44.5 -148v-406h-160v400q0 90 -60 90q-49 0 -92 -54.5t-58 -130.5v-305h-160zM10 818q0 41 25.5 66.5t69.5 25.5q55 0 82.5 -37t27.5 -88q0 -84 -46.5 -150t-110.5 -105l-48 64q77 47 95 140h-5 q-39 0 -64.5 23t-25.5 61z" />
<glyph unicode="&#x14c;" horiz-adv-x="820" d="M200 880v100h420v-100h-420zM45 373v34q0 56 10 108t36 105.5t65.5 92.5t105 63.5t148.5 24.5t148.5 -24.5t105 -63.5t65.5 -92.5t36 -105.5t10 -108v-34q0 -56 -10 -108t-36 -105.5t-65.5 -92.5t-105 -63.5t-148.5 -24.5t-148.5 24.5t-105 63.5t-65.5 92.5t-36 105.5 t-10 108zM410 104q91 0 141 69t50 200v34q0 131 -50 200t-141 69t-141 -69t-50 -200v-34q0 -131 50 -200t141 -69z" />
<glyph unicode="&#x14d;" horiz-adv-x="660" d="M120 730v100h420v-100h-420zM40 287v26q0 42 7.5 82t27.5 82t51 73t83.5 51t120.5 20t120.5 -20t83.5 -51t51 -73t27.5 -82t7.5 -82v-26q0 -42 -7.5 -82t-27.5 -82t-51 -73t-83.5 -51t-120.5 -20t-120.5 20t-83.5 51t-51 73t-27.5 82t-7.5 82zM330 93q59 0 94.5 48.5 t35.5 145.5v26q0 97 -35.5 145.5t-94.5 48.5t-94.5 -48.5t-35.5 -145.5v-26q0 -97 35.5 -145.5t94.5 -48.5z" />
<glyph unicode="&#x14e;" horiz-adv-x="820" d="M200 984l96 31q26 -80 114 -80t114 80l96 -31q-19 -60 -70 -102t-140 -42t-140 42t-70 102zM45 373v34q0 56 10 108t36 105.5t65.5 92.5t105 63.5t148.5 24.5t148.5 -24.5t105 -63.5t65.5 -92.5t36 -105.5t10 -108v-34q0 -56 -10 -108t-36 -105.5t-65.5 -92.5t-105 -63.5 t-148.5 -24.5t-148.5 24.5t-105 63.5t-65.5 92.5t-36 105.5t-10 108zM410 104q91 0 141 69t50 200v34q0 131 -50 200t-141 69t-141 -69t-50 -200v-34q0 -131 50 -200t141 -69z" />
<glyph unicode="&#x14f;" horiz-adv-x="660" d="M120 834l96 31q26 -80 114 -80t114 80l96 -31q-19 -60 -70 -102t-140 -42t-140 42t-70 102zM40 287v26q0 42 7.5 82t27.5 82t51 73t83.5 51t120.5 20t120.5 -20t83.5 -51t51 -73t27.5 -82t7.5 -82v-26q0 -42 -7.5 -82t-27.5 -82t-51 -73t-83.5 -51t-120.5 -20t-120.5 20 t-83.5 51t-51 73t-27.5 82t-7.5 82zM330 93q59 0 94.5 48.5t35.5 145.5v26q0 97 -35.5 145.5t-94.5 48.5t-94.5 -48.5t-35.5 -145.5v-26q0 -97 35.5 -145.5t94.5 -48.5z" />
<glyph unicode="&#x150;" horiz-adv-x="820" d="M230 880l105 190l90 -65l-140 -165zM455 880l105 190l90 -65l-140 -165zM45 373v34q0 56 10 108t36 105.5t65.5 92.5t105 63.5t148.5 24.5t148.5 -24.5t105 -63.5t65.5 -92.5t36 -105.5t10 -108v-34q0 -56 -10 -108t-36 -105.5t-65.5 -92.5t-105 -63.5t-148.5 -24.5 t-148.5 24.5t-105 63.5t-65.5 92.5t-36 105.5t-10 108zM410 104q91 0 141 69t50 200v34q0 131 -50 200t-141 69t-141 -69t-50 -200v-34q0 -131 50 -200t141 -69z" />
<glyph unicode="&#x151;" horiz-adv-x="660" d="M150 730l105 190l90 -65l-140 -165zM375 730l105 190l90 -65l-140 -165zM40 287v26q0 42 7.5 82t27.5 82t51 73t83.5 51t120.5 20t120.5 -20t83.5 -51t51 -73t27.5 -82t7.5 -82v-26q0 -42 -7.5 -82t-27.5 -82t-51 -73t-83.5 -51t-120.5 -20t-120.5 20t-83.5 51t-51 73 t-27.5 82t-7.5 82zM330 93q59 0 94.5 48.5t35.5 145.5v26q0 97 -35.5 145.5t-94.5 48.5t-94.5 -48.5t-35.5 -145.5v-26q0 -97 35.5 -145.5t94.5 -48.5z" />
<glyph unicode="&#x152;" horiz-adv-x="980" d="M45 373v34q0 56 10 108t36 105.5t65.5 92.5t105 63.5t148.5 24.5q80 0 140 -21h375v-130h-315v-205h275v-120h-275v-195h330v-130h-390q-60 -21 -140 -21q-83 0 -148.5 24.5t-105 63.5t-65.5 92.5t-36 105.5t-10 108zM440 674q-18 2 -30 2q-91 0 -141 -69t-50 -200v-34 q0 -131 50 -200t141 -69q12 0 30 2v568z" />
<glyph unicode="&#x153;" horiz-adv-x="960" d="M40 287v26q0 42 6 80.5t23 81.5t45 74t75.5 51.5t110.5 20.5q119 0 181 -74q67 74 182 74q84 0 144 -40t86.5 -98.5t26.5 -125.5q0 -42 -10 -92h-364q6 -174 117 -174q41 0 64.5 22.5t28.5 53.5l154 -14q-5 -27 -22 -55.5t-46 -56t-76 -45t-103 -17.5q-117 0 -183 73 q-63 -73 -180 -73q-63 0 -110.5 20.5t-75.5 51.5t-45 74t-23 81.5t-6 80.5zM300 507q-43 0 -71.5 -47.5t-28.5 -146.5v-26q0 -99 28.5 -146.5t71.5 -47.5t71.5 47.5t28.5 146.5v26q0 99 -28.5 146.5t-71.5 47.5zM549 365h221q-3 144 -107 144q-45 0 -75 -36.5t-39 -107.5z " />
<glyph unicode="&#x154;" horiz-adv-x="730" d="M525 955l-245 -115l-40 60l220 160zM280 302q-6 0 -18.5 0.5t-18.5 0.5v-303h-168v310v470q137 9 275 9q151 0 243 -66t92 -178q0 -89 -59.5 -150t-163.5 -83l253 -304v-8h-192zM243 424q72 -3 87 -3q187 0 187 124t-187 124q-15 0 -87 -3v-242z" />
<glyph unicode="&#x155;" horiz-adv-x="435" d="M405 805l-245 -115l-40 60l220 160zM55 588l134 15l33 -120q48 133 157 133q37 0 71 -17l-60 -130q-17 11 -39 11q-36 0 -63 -47t-38 -119v-314h-160v450z" />
<glyph unicode="&#x156;" horiz-adv-x="730" d="M347 -219h-7q-33 0 -54 18.5t-21 50.5q0 37 23 61t64 24q46 0 69.5 -28.5t23.5 -65.5q0 -74 -40.5 -122t-96.5 -69l-38 50q56 21 77 81zM280 302q-6 0 -18.5 0.5t-18.5 0.5v-303h-168v310v470q137 9 275 9q151 0 243 -66t92 -178q0 -89 -59.5 -150t-163.5 -83l253 -304 v-8h-192zM243 424q72 -3 87 -3q187 0 187 124t-187 124q-15 0 -87 -3v-242z" />
<glyph unicode="&#x157;" horiz-adv-x="435" d="M157 -219h-7q-33 0 -54 18.5t-21 50.5q0 37 23 61t64 24q46 0 69.5 -28.5t23.5 -65.5q0 -74 -40.5 -122t-96.5 -69l-38 50q56 21 77 81zM55 588l134 15l33 -120q48 133 157 133q37 0 71 -17l-60 -130q-17 11 -39 11q-36 0 -63 -47t-38 -119v-314h-160v450z" />
<glyph unicode="&#x158;" horiz-adv-x="730" d="M570 980l-190 -145h-40l-190 145l45 50l165 -80l165 80zM280 302q-6 0 -18.5 0.5t-18.5 0.5v-303h-168v310v470q137 9 275 9q151 0 243 -66t92 -178q0 -89 -59.5 -150t-163.5 -83l253 -304v-8h-192zM243 424q72 -3 87 -3q187 0 187 124t-187 124q-15 0 -87 -3v-242z" />
<glyph unicode="&#x159;" horiz-adv-x="435" d="M450 830l-190 -145h-40l-190 145l45 50l165 -80l165 80zM55 588l134 15l33 -120q48 133 157 133q37 0 71 -17l-60 -130q-17 11 -39 11q-36 0 -63 -47t-38 -119v-314h-160v450z" />
<glyph unicode="&#x15a;" horiz-adv-x="710" d="M520 955l-245 -115l-40 60l220 160zM40 184l168 24q7 -43 46 -75t101 -32q150 0 150 106q0 68 -77 90q-78 21 -198 63q-70 26 -121.5 77t-51.5 132q0 100 83.5 166t214.5 66q67 0 123 -20t90.5 -51.5t55 -64.5t26.5 -65l-168 -24q-7 42 -41.5 72.5t-85.5 30.5 q-61 0 -97 -27.5t-36 -74.5q0 -18 6 -31t20 -22.5t24.5 -14.5t31.5 -13q67 -23 184 -59q77 -24 129.5 -78t52.5 -144q0 -102 -86 -169t-229 -67q-73 0 -133 20.5t-96.5 52.5t-58 66t-27.5 66z" />
<glyph unicode="&#x15b;" horiz-adv-x="570" d="M450 805l-245 -115l-40 60l220 160zM30 143l155 20q5 -31 33 -51.5t73 -20.5q46 0 71.5 19t25.5 52q0 46 -55 63q-131 39 -148 45q-27 10 -48 21t-44 30.5t-35.5 48t-12.5 65.5q0 79 66.5 132.5t173.5 53.5t168 -51t72 -110l-155 -20q-11 69 -85 69q-39 0 -63.5 -18.5 t-24.5 -49.5q0 -37 58 -56q24 -8 76.5 -23t61.5 -18q66 -20 106.5 -59.5t40.5 -116.5q0 -81 -70 -135t-185 -54q-114 0 -179 51.5t-76 112.5z" />
<glyph unicode="&#x15c;" horiz-adv-x="710" d="M145 875l190 145h40l190 -145l-45 -50l-165 80l-165 -80zM40 184l168 24q7 -43 46 -75t101 -32q150 0 150 106q0 68 -77 90q-78 21 -198 63q-70 26 -121.5 77t-51.5 132q0 100 83.5 166t214.5 66q67 0 123 -20t90.5 -51.5t55 -64.5t26.5 -65l-168 -24q-7 42 -41.5 72.5 t-85.5 30.5q-61 0 -97 -27.5t-36 -74.5q0 -18 6 -31t20 -22.5t24.5 -14.5t31.5 -13q67 -23 184 -59q77 -24 129.5 -78t52.5 -144q0 -102 -86 -169t-229 -67q-73 0 -133 20.5t-96.5 52.5t-58 66t-27.5 66z" />
<glyph unicode="&#x15d;" horiz-adv-x="570" d="M75 725l190 145h40l190 -145l-45 -50l-165 80l-165 -80zM30 143l155 20q5 -31 33 -51.5t73 -20.5q46 0 71.5 19t25.5 52q0 46 -55 63q-131 39 -148 45q-27 10 -48 21t-44 30.5t-35.5 48t-12.5 65.5q0 79 66.5 132.5t173.5 53.5t168 -51t72 -110l-155 -20q-11 69 -85 69 q-39 0 -63.5 -18.5t-24.5 -49.5q0 -37 58 -56q24 -8 76.5 -23t61.5 -18q66 -20 106.5 -59.5t40.5 -116.5q0 -81 -70 -135t-185 -54q-114 0 -179 51.5t-76 112.5z" />
<glyph unicode="&#x15e;" horiz-adv-x="710" d="M275 -265q140 32 140 90q0 25 -55 25q-10 0 -40 -5l-45 45l50 90q-125 8 -198.5 71.5t-86.5 132.5l168 24q7 -43 46 -75t101 -32q150 0 150 106q0 68 -77 90q-78 21 -198 63q-70 26 -121.5 77t-51.5 132q0 100 83.5 166t214.5 66q67 0 123 -20t90.5 -51.5t55 -64.5 t26.5 -65l-168 -24q-7 42 -41.5 72.5t-85.5 30.5q-61 0 -97 -27.5t-36 -74.5q0 -18 6 -31t20 -22.5t24.5 -14.5t31.5 -13q67 -23 184 -59q77 -24 129.5 -78t52.5 -144q0 -91 -69.5 -155.5t-189.5 -77.5l-34 -62q138 0 138 -95q0 -28 -11 -51t-34.5 -40t-41 -28t-50.5 -20.5 t-42.5 -12t-35.5 -8.5z" />
<glyph unicode="&#x15f;" horiz-adv-x="570" d="M205 -265q140 32 140 90q0 25 -55 25q-10 0 -40 -5l-45 45l50 90q-53 4 -95.5 21t-68.5 41.5t-41.5 50t-19.5 50.5l155 20q5 -31 33 -51.5t73 -20.5q46 0 71.5 19t25.5 52q0 46 -55 63q-131 39 -148 45q-27 10 -48 21t-44 30.5t-35.5 48t-12.5 65.5q0 79 66.5 132.5 t173.5 53.5t168 -51t72 -110l-155 -20q-11 69 -85 69q-39 0 -63.5 -18.5t-24.5 -49.5q0 -37 58 -56q24 -8 76.5 -23t61.5 -18q66 -20 106.5 -59.5t40.5 -116.5q0 -71 -53 -121.5t-145 -63.5l-35 -63q138 0 138 -95q0 -28 -11 -51t-34.5 -40t-41 -28t-50.5 -20.5t-42.5 -12 t-35.5 -8.5z" />
<glyph unicode="&#x160;" horiz-adv-x="710" d="M565 980l-190 -145h-40l-190 145l45 50l165 -80l165 80zM40 184l168 24q7 -43 46 -75t101 -32q150 0 150 106q0 68 -77 90q-78 21 -198 63q-70 26 -121.5 77t-51.5 132q0 100 83.5 166t214.5 66q67 0 123 -20t90.5 -51.5t55 -64.5t26.5 -65l-168 -24q-7 42 -41.5 72.5 t-85.5 30.5q-61 0 -97 -27.5t-36 -74.5q0 -18 6 -31t20 -22.5t24.5 -14.5t31.5 -13q67 -23 184 -59q77 -24 129.5 -78t52.5 -144q0 -102 -86 -169t-229 -67q-73 0 -133 20.5t-96.5 52.5t-58 66t-27.5 66z" />
<glyph unicode="&#x161;" horiz-adv-x="570" d="M495 830l-190 -145h-40l-190 145l45 50l165 -80l165 80zM30 143l155 20q5 -31 33 -51.5t73 -20.5q46 0 71.5 19t25.5 52q0 46 -55 63q-131 39 -148 45q-27 10 -48 21t-44 30.5t-35.5 48t-12.5 65.5q0 79 66.5 132.5t173.5 53.5t168 -51t72 -110l-155 -20q-11 69 -85 69 q-39 0 -63.5 -18.5t-24.5 -49.5q0 -37 58 -56q24 -8 76.5 -23t61.5 -18q66 -20 106.5 -59.5t40.5 -116.5q0 -81 -70 -135t-185 -54q-114 0 -179 51.5t-76 112.5z" />
<glyph unicode="&#x162;" horiz-adv-x="620" d="M215 -265q140 32 140 90q0 25 -55 25q-10 0 -40 -5l-45 45l61 110h-51v655h-210v125h590v-125h-210v-655h-34l-44 -80q138 0 138 -95q0 -28 -11 -51t-34.5 -40t-41 -28t-50.5 -20.5t-42.5 -12t-35.5 -8.5z" />
<glyph unicode="&#x163;" horiz-adv-x="415" d="M165 -265q140 32 140 90q0 25 -55 25q-10 0 -40 -5l-45 45l55 99q-120 23 -120 151v360h-80v100h86v123l151 12v-135h133v-100h-130v-336q0 -39 8.5 -52.5t30.5 -13.5q50 0 84 21l37 -104q-52 -26 -117 -30l-36 -65q138 0 138 -95q0 -28 -11 -51t-34.5 -40t-41 -28 t-50.5 -20.5t-42.5 -12t-35.5 -8.5z" />
<glyph unicode="&#x164;" horiz-adv-x="620" d="M520 980l-190 -145h-40l-190 145l45 50l165 -80l165 80zM15 655v125h590v-125h-210v-655h-170v655h-210z" />
<glyph unicode="&#x165;" horiz-adv-x="625" d="M517 681h-7q-33 0 -54 18.5t-21 50.5q0 37 23 61t64 24q46 0 69.5 -28.5t23.5 -65.5q0 -74 -40.5 -122t-96.5 -69l-38 50q56 21 77 81zM20 500v100h86v123l151 12v-135h133v-100h-130v-336q0 -39 8.5 -52.5t30.5 -13.5q50 0 84 21l37 -104q-62 -31 -142 -31 q-178 0 -178 156v360h-80z" />
<glyph unicode="&#x168;" horiz-adv-x="770" d="M175 890q24 60 54 92.5t81 32.5q59 0 115 -48q32 -27 39 -27t13.5 4.5t13 15t9.5 16.5t9 19.5t6 14.5l80 -30q-24 -60 -54 -92.5t-81 -32.5q-59 0 -115 48q-32 27 -39 27t-13.5 -4.5t-13 -15t-9.5 -16.5t-9 -19.5t-6 -14.5zM65 246v534h172v-534q0 -73 40.5 -108 t107.5 -35t107.5 35t40.5 108v534h172v-534q0 -113 -88 -190t-232 -77t-232 77t-88 190z" />
<glyph unicode="&#x169;" horiz-adv-x="620" d="M100 740q24 60 54 92.5t81 32.5q59 0 115 -48q32 -27 39 -27t13.5 4.5t13 15t9.5 16.5t9 19.5t6 14.5l80 -30q-24 -60 -54 -92.5t-81 -32.5q-59 0 -115 48q-32 27 -39 27t-13.5 -4.5t-13 -15t-9.5 -16.5t-9 -19.5t-6 -14.5zM50 194v406h160v-406q0 -53 27.5 -77t72.5 -24 t72.5 24t27.5 77v406h160v-406q0 -90 -71 -152.5t-189 -62.5t-189 62.5t-71 152.5z" />
<glyph unicode="&#x16a;" horiz-adv-x="770" d="M175 880v100h420v-100h-420zM65 246v534h172v-534q0 -73 40.5 -108t107.5 -35t107.5 35t40.5 108v534h172v-534q0 -113 -88 -190t-232 -77t-232 77t-88 190z" />
<glyph unicode="&#x16b;" horiz-adv-x="620" d="M100 730v100h420v-100h-420zM50 194v406h160v-406q0 -53 27.5 -77t72.5 -24t72.5 24t27.5 77v406h160v-406q0 -90 -71 -152.5t-189 -62.5t-189 62.5t-71 152.5z" />
<glyph unicode="&#x16c;" horiz-adv-x="770" d="M175 984l96 31q26 -80 114 -80t114 80l96 -31q-19 -60 -70 -102t-140 -42t-140 42t-70 102zM65 246v534h172v-534q0 -73 40.5 -108t107.5 -35t107.5 35t40.5 108v534h172v-534q0 -113 -88 -190t-232 -77t-232 77t-88 190z" />
<glyph unicode="&#x16d;" horiz-adv-x="620" d="M100 834l96 31q26 -80 114 -80t114 80l96 -31q-19 -60 -70 -102t-140 -42t-140 42t-70 102zM50 194v406h160v-406q0 -53 27.5 -77t72.5 -24t72.5 24t27.5 77v406h160v-406q0 -90 -71 -152.5t-189 -62.5t-189 62.5t-71 152.5z" />
<glyph unicode="&#x16e;" horiz-adv-x="770" d="M385 795q-57 0 -93.5 32.5t-36.5 87.5t36.5 87.5t93.5 32.5t93.5 -32.5t36.5 -87.5t-36.5 -87.5t-93.5 -32.5zM385 865q23 0 36.5 14t13.5 36t-13.5 36t-36.5 14t-36.5 -14t-13.5 -36t13.5 -36t36.5 -14zM65 246v534h172v-534q0 -73 40.5 -108t107.5 -35t107.5 35 t40.5 108v534h172v-534q0 -113 -88 -190t-232 -77t-232 77t-88 190z" />
<glyph unicode="&#x16f;" horiz-adv-x="620" d="M310 645q-57 0 -93.5 32.5t-36.5 87.5t36.5 87.5t93.5 32.5t93.5 -32.5t36.5 -87.5t-36.5 -87.5t-93.5 -32.5zM310 715q23 0 36.5 14t13.5 36t-13.5 36t-36.5 14t-36.5 -14t-13.5 -36t13.5 -36t36.5 -14zM50 194v406h160v-406q0 -53 27.5 -77t72.5 -24t72.5 24t27.5 77 v406h160v-406q0 -90 -71 -152.5t-189 -62.5t-189 62.5t-71 152.5z" />
<glyph unicode="&#x170;" horiz-adv-x="770" d="M205 880l105 190l90 -65l-140 -165zM430 880l105 190l90 -65l-140 -165zM65 246v534h172v-534q0 -73 40.5 -108t107.5 -35t107.5 35t40.5 108v534h172v-534q0 -113 -88 -190t-232 -77t-232 77t-88 190z" />
<glyph unicode="&#x171;" horiz-adv-x="620" d="M130 730l105 190l90 -65l-140 -165zM355 730l105 190l90 -65l-140 -165zM50 194v406h160v-406q0 -53 27.5 -77t72.5 -24t72.5 24t27.5 77v406h160v-406q0 -90 -71 -152.5t-189 -62.5t-189 62.5t-71 152.5z" />
<glyph unicode="&#x172;" horiz-adv-x="770" d="M65 246v534h172v-534q0 -73 40.5 -108t107.5 -35t107.5 35t40.5 108v534h172v-534q0 -78 -43.5 -141.5t-121.5 -96.5q-50 -56 -50 -133q0 -55 45 -55q37 0 60 15l25 -73q-42 -22 -105 -22q-60 0 -92.5 33t-32.5 87q0 64 40 121q-30 -2 -45 -2q-144 0 -232 77t-88 190z " />
<glyph unicode="&#x173;" horiz-adv-x="620" d="M50 194v406h160v-406q0 -53 27.5 -77t72.5 -24t72.5 24t27.5 77v406h160v-406q0 -62 -36 -113.5t-100 -78.5q-44 -54 -44 -127q0 -55 45 -55q37 0 60 15l25 -73q-42 -22 -105 -22q-60 0 -92.5 33t-32.5 87q0 60 39 119h-19q-118 0 -189 62.5t-71 152.5z" />
<glyph unicode="&#x174;" horiz-adv-x="1060" d="M320 875l190 145h40l190 -145l-45 -50l-165 80l-165 -80zM10 754v10l185 16l126 -533l139 513h140l139 -513l126 533l185 -16v-10l-225 -754h-145l-150 518l-150 -518h-145z" />
<glyph unicode="&#x175;" horiz-adv-x="830" d="M205 725l190 145h40l190 -145l-45 -50l-165 80l-165 -80zM825 580l-173 -580h-135l-102 362l-102 -362h-135l-173 580v8l170 12l84 -364l93 349h126l93 -349l84 364l170 -12v-8z" />
<glyph unicode="&#x176;" horiz-adv-x="670" d="M125 875l190 145h40l190 -145l-45 -50l-165 80l-165 -80zM-5 754v11l190 15l150 -330l150 330l190 -15v-11l-255 -464v-290h-170v290z" />
<glyph unicode="&#x177;" horiz-adv-x="600" d="M90 725l190 145h40l190 -145l-45 -50l-165 80l-165 -80zM0 580v8l175 12l127 -400l123 400l175 -12v-8l-235 -595q-2 -5 -14.5 -32t-15.5 -33l-14.5 -29t-17 -29.5t-18 -24.5t-21.5 -24t-24 -17.5t-29.5 -15.5t-33 -7.5t-39.5 -3.5q-71 0 -128 42l75 94q30 -26 48 -26 q27 0 47 27.5t52 101.5z" />
<glyph unicode="&#x178;" horiz-adv-x="670" d="M210 1009q37 0 61 -21.5t24 -57.5t-24 -57.5t-61 -21.5t-61 21.5t-24 57.5t24 57.5t61 21.5zM460 1009q37 0 61 -21.5t24 -57.5t-24 -57.5t-61 -21.5t-61 21.5t-24 57.5t24 57.5t61 21.5zM-5 754v11l190 15l150 -330l150 330l190 -15v-11l-255 -464v-290h-170v290z" />
<glyph unicode="&#x179;" horiz-adv-x="670" d="M500 955l-245 -115l-40 60l220 160zM20 96l393 554h-363v130h577l12 -96l-391 -554h402v-130h-618z" />
<glyph unicode="&#x17a;" horiz-adv-x="530" d="M430 805l-245 -115l-40 60l220 160zM15 79l285 411h-260v110h460l9 -79l-285 -411h291v-110h-491z" />
<glyph unicode="&#x17b;" horiz-adv-x="670" d="M240 930q0 40 27 64t68 24t68 -24t27 -64t-27 -64t-68 -24t-68 24t-27 64zM20 96l393 554h-363v130h577l12 -96l-391 -554h402v-130h-618z" />
<glyph unicode="&#x17c;" horiz-adv-x="530" d="M170 780q0 40 27 64t68 24t68 -24t27 -64t-27 -64t-68 -24t-68 24t-27 64zM15 79l285 411h-260v110h460l9 -79l-285 -411h291v-110h-491z" />
<glyph unicode="&#x17d;" horiz-adv-x="670" d="M545 980l-190 -145h-40l-190 145l45 50l165 -80l165 80zM20 96l393 554h-363v130h577l12 -96l-391 -554h402v-130h-618z" />
<glyph unicode="&#x17e;" horiz-adv-x="530" d="M475 830l-190 -145h-40l-190 145l45 50l165 -80l165 80zM15 79l285 411h-260v110h460l9 -79l-285 -411h291v-110h-491z" />
<glyph unicode="&#x18f;" horiz-adv-x="780" d="M735 407v-34q0 -56 -9.5 -107.5t-35 -105t-64.5 -92.5t-103.5 -64t-146.5 -25q-85 0 -152 28t-107 76t-61 106.5t-21 123.5q0 52 15 117h520q-4 120 -55 184.5t-139 64.5q-62 0 -102 -34.5t-48 -77.5l-168 16q6 34 27.5 69.5t58 70t97.5 56.5t135 22q82 0 146.5 -25 t103.5 -64t64.5 -92.5t35 -105t9.5 -107.5zM568 320h-368v-7q0 -107 48 -160.5t128 -53.5q81 0 131.5 57t60.5 164z" />
<glyph unicode="&#x192;" horiz-adv-x="400" d="M20 500v100h80v67q0 25 8.5 50.5t27.5 52.5t57 44t90 17q87 0 152 -51l-66 -85q-39 26 -74 26q-18 0 -29 -14.5t-11 -39.5v-67h135v-100h-130v-515q0 -85 -59 -139t-146 -72l-50 101q51 13 73 38.5t22 81.5v505h-80z" />
<glyph unicode="&#x1a0;" horiz-adv-x="820" d="M410 104q91 0 141 69t50 200v34q0 131 -50 200t-141 69t-141 -69t-50 -200v-34q0 -131 50 -200t141 -69zM45 373v34q0 56 10 108t36 105.5t65.5 92.5t105 63.5t148.5 24.5q140 0 227 -66q28 22 28 65q0 32 -25 60l95 55q40 -40 40 -110q0 -80 -84 -123q84 -106 84 -275 v-34q0 -56 -10 -108t-36 -105.5t-65.5 -92.5t-105 -63.5t-148.5 -24.5t-148.5 24.5t-105 63.5t-65.5 92.5t-36 105.5t-10 108z" />
<glyph unicode="&#x1a1;" horiz-adv-x="660" d="M330 93q59 0 94.5 48.5t35.5 145.5v26q0 97 -35.5 145.5t-94.5 48.5t-94.5 -48.5t-35.5 -145.5v-26q0 -97 35.5 -145.5t94.5 -48.5zM40 287v26q0 42 7.5 82t27.5 82t51 73t83.5 51t120.5 20q118 0 190 -59q20 22 20 58q0 32 -25 60l95 55q40 -40 40 -110q0 -79 -79 -121 q49 -78 49 -191v-26q0 -42 -7.5 -82t-27.5 -82t-51 -73t-83.5 -51t-120.5 -20t-120.5 20t-83.5 51t-51 73t-27.5 82t-7.5 82z" />
<glyph unicode="&#x1af;" horiz-adv-x="780" d="M65 246v534h172v-534q0 -73 40.5 -108t107.5 -35t107.5 35t40.5 108v504h30l65 -14q27 23 27 64q0 32 -25 60l95 55q40 -40 40 -110q0 -67 -60 -109v-450q0 -113 -88 -190t-232 -77t-232 77t-88 190z" />
<glyph unicode="&#x1b0;" horiz-adv-x="635" d="M50 194v406h160v-406q0 -53 27.5 -77t72.5 -24t72.5 24t27.5 77v376h30l55 -13q25 21 25 63q0 32 -25 60l95 55q40 -40 40 -110q0 -67 -60 -109v-322q0 -90 -71 -152.5t-189 -62.5t-189 62.5t-71 152.5z" />
<glyph unicode="&#x1cd;" horiz-adv-x="750" d="M585 980l-190 -145h-40l-190 145l45 50l165 -80l165 80zM750 0h-190l-49 150h-272l-49 -150h-190v11l305 769h140l305 -769v-11zM472 270l-97 296l-97 -296h194z" />
<glyph unicode="&#x1ce;" horiz-adv-x="625" d="M520 830l-190 -145h-40l-190 145l45 50l165 -80l165 80zM40 174q0 63 54 109.5t159 46.5q70 0 147 -7v89q0 95 -100 95q-82 0 -95 -92l-160 12q11 78 76.5 136t178.5 58q115 0 185 -60t70 -149v-257q0 -36 10.5 -50t44.5 -18l-40 -103q-96 13 -129 72q-63 -72 -171 -72 t-169 51.5t-61 138.5zM408 230q-74 9 -146 9q-25 0 -46 -16.5t-21 -50.5q0 -49 28 -71t67 -22q100 0 118 124v27z" />
<glyph unicode="&#x1cf;" horiz-adv-x="320" d="M370 980l-190 -145h-40l-190 145l45 50l165 -80l165 80zM75 0v780h170v-780h-170z" />
<glyph unicode="&#x1d0;" horiz-adv-x="300" d="M360 830l-190 -145h-40l-190 145l45 50l165 -80l165 80zM70 0v600h160v-600h-160z" />
<glyph unicode="&#x1d1;" horiz-adv-x="820" d="M620 980l-190 -145h-40l-190 145l45 50l165 -80l165 80zM45 373v34q0 56 10 108t36 105.5t65.5 92.5t105 63.5t148.5 24.5t148.5 -24.5t105 -63.5t65.5 -92.5t36 -105.5t10 -108v-34q0 -56 -10 -108t-36 -105.5t-65.5 -92.5t-105 -63.5t-148.5 -24.5t-148.5 24.5 t-105 63.5t-65.5 92.5t-36 105.5t-10 108zM410 104q91 0 141 69t50 200v34q0 131 -50 200t-141 69t-141 -69t-50 -200v-34q0 -131 50 -200t141 -69z" />
<glyph unicode="&#x1d2;" horiz-adv-x="660" d="M540 830l-190 -145h-40l-190 145l45 50l165 -80l165 80zM40 287v26q0 42 7.5 82t27.5 82t51 73t83.5 51t120.5 20t120.5 -20t83.5 -51t51 -73t27.5 -82t7.5 -82v-26q0 -42 -7.5 -82t-27.5 -82t-51 -73t-83.5 -51t-120.5 -20t-120.5 20t-83.5 51t-51 73t-27.5 82t-7.5 82z M330 93q59 0 94.5 48.5t35.5 145.5v26q0 97 -35.5 145.5t-94.5 48.5t-94.5 -48.5t-35.5 -145.5v-26q0 -97 35.5 -145.5t94.5 -48.5z" />
<glyph unicode="&#x1d3;" horiz-adv-x="770" d="M595 980l-190 -145h-40l-190 145l45 50l165 -80l165 80zM65 246v534h172v-534q0 -73 40.5 -108t107.5 -35t107.5 35t40.5 108v534h172v-534q0 -113 -88 -190t-232 -77t-232 77t-88 190z" />
<glyph unicode="&#x1d4;" horiz-adv-x="620" d="M520 830l-190 -145h-40l-190 145l45 50l165 -80l165 80zM50 194v406h160v-406q0 -53 27.5 -77t72.5 -24t72.5 24t27.5 77v406h160v-406q0 -90 -71 -152.5t-189 -62.5t-189 62.5t-71 152.5z" />
<glyph unicode="&#x1d5;" horiz-adv-x="770" d="M175 1060v100h420v-100h-420zM260 1009q37 0 61 -21.5t24 -57.5t-24 -57.5t-61 -21.5t-61 21.5t-24 57.5t24 57.5t61 21.5zM510 1009q37 0 61 -21.5t24 -57.5t-24 -57.5t-61 -21.5t-61 21.5t-24 57.5t24 57.5t61 21.5zM65 246v534h172v-534q0 -73 40.5 -108t107.5 -35 t107.5 35t40.5 108v534h172v-534q0 -113 -88 -190t-232 -77t-232 77t-88 190z" />
<glyph unicode="&#x1d6;" horiz-adv-x="620" d="M100 910v100h420v-100h-420zM185 859q37 0 61 -21.5t24 -57.5t-24 -57.5t-61 -21.5t-61 21.5t-24 57.5t24 57.5t61 21.5zM435 859q37 0 61 -21.5t24 -57.5t-24 -57.5t-61 -21.5t-61 21.5t-24 57.5t24 57.5t61 21.5zM50 194v406h160v-406q0 -53 27.5 -77t72.5 -24t72.5 24 t27.5 77v406h160v-406q0 -90 -71 -152.5t-189 -62.5t-189 62.5t-71 152.5z" />
<glyph unicode="&#x1d7;" horiz-adv-x="770" d="M550 1135l-245 -115l-40 60l220 160zM260 1009q37 0 61 -21.5t24 -57.5t-24 -57.5t-61 -21.5t-61 21.5t-24 57.5t24 57.5t61 21.5zM510 1009q37 0 61 -21.5t24 -57.5t-24 -57.5t-61 -21.5t-61 21.5t-24 57.5t24 57.5t61 21.5zM65 246v534h172v-534q0 -73 40.5 -108 t107.5 -35t107.5 35t40.5 108v534h172v-534q0 -113 -88 -190t-232 -77t-232 77t-88 190z" />
<glyph unicode="&#x1d8;" horiz-adv-x="620" d="M475 985l-245 -115l-40 60l220 160zM185 859q37 0 61 -21.5t24 -57.5t-24 -57.5t-61 -21.5t-61 21.5t-24 57.5t24 57.5t61 21.5zM435 859q37 0 61 -21.5t24 -57.5t-24 -57.5t-61 -21.5t-61 21.5t-24 57.5t24 57.5t61 21.5zM50 194v406h160v-406q0 -53 27.5 -77t72.5 -24 t72.5 24t27.5 77v406h160v-406q0 -90 -71 -152.5t-189 -62.5t-189 62.5t-71 152.5z" />
<glyph unicode="&#x1d9;" horiz-adv-x="770" d="M595 1160l-190 -145h-40l-190 145l45 50l165 -80l165 80zM260 1009q37 0 61 -21.5t24 -57.5t-24 -57.5t-61 -21.5t-61 21.5t-24 57.5t24 57.5t61 21.5zM510 1009q37 0 61 -21.5t24 -57.5t-24 -57.5t-61 -21.5t-61 21.5t-24 57.5t24 57.5t61 21.5zM65 246v534h172v-534 q0 -73 40.5 -108t107.5 -35t107.5 35t40.5 108v534h172v-534q0 -113 -88 -190t-232 -77t-232 77t-88 190z" />
<glyph unicode="&#x1da;" horiz-adv-x="620" d="M520 1010l-190 -145h-40l-190 145l45 50l165 -80l165 80zM185 859q37 0 61 -21.5t24 -57.5t-24 -57.5t-61 -21.5t-61 21.5t-24 57.5t24 57.5t61 21.5zM435 859q37 0 61 -21.5t24 -57.5t-24 -57.5t-61 -21.5t-61 21.5t-24 57.5t24 57.5t61 21.5zM50 194v406h160v-406 q0 -53 27.5 -77t72.5 -24t72.5 24t27.5 77v406h160v-406q0 -90 -71 -152.5t-189 -62.5t-189 62.5t-71 152.5z" />
<glyph unicode="&#x1db;" horiz-adv-x="770" d="M220 1135l65 105l220 -160l-40 -60zM260 1009q37 0 61 -21.5t24 -57.5t-24 -57.5t-61 -21.5t-61 21.5t-24 57.5t24 57.5t61 21.5zM510 1009q37 0 61 -21.5t24 -57.5t-24 -57.5t-61 -21.5t-61 21.5t-24 57.5t24 57.5t61 21.5zM65 246v534h172v-534q0 -73 40.5 -108 t107.5 -35t107.5 35t40.5 108v534h172v-534q0 -113 -88 -190t-232 -77t-232 77t-88 190z" />
<glyph unicode="&#x1dc;" horiz-adv-x="620" d="M145 985l65 105l220 -160l-40 -60zM185 859q37 0 61 -21.5t24 -57.5t-24 -57.5t-61 -21.5t-61 21.5t-24 57.5t24 57.5t61 21.5zM435 859q37 0 61 -21.5t24 -57.5t-24 -57.5t-61 -21.5t-61 21.5t-24 57.5t24 57.5t61 21.5zM50 194v406h160v-406q0 -53 27.5 -77t72.5 -24 t72.5 24t27.5 77v406h160v-406q0 -90 -71 -152.5t-189 -62.5t-189 62.5t-71 152.5z" />
<glyph unicode="&#x1e6;" horiz-adv-x="770" d="M620 980l-190 -145h-40l-190 145l45 50l165 -80l165 80zM415 285v120h310v-270q-37 -63 -116 -109.5t-197 -46.5q-83 0 -148.5 24.5t-106 64t-66.5 93t-36 106t-10 108.5v30q0 56 10 108.5t36 106t66.5 93t106 64t148.5 24.5q75 0 136 -22t97.5 -57t57.5 -70.5t27 -69.5 l-172 -16q-8 42 -46.5 75.5t-99.5 33.5q-92 0 -142.5 -68t-50.5 -202v-30q0 -134 50.5 -202t142.5 -68q109 0 158 55v125h-155z" />
<glyph unicode="&#x1e7;" horiz-adv-x="670" d="M570 830l-190 -145h-40l-190 145l45 50l165 -80l165 80zM40 315q0 50 14 100t42 96.5t80 75.5t119 29q98 0 164 -89l10 73h136v-615q0 -92 -71 -154t-187 -62q-104 0 -170 37t-82 77l148 42q7 -16 33.5 -31.5t70.5 -15.5q108 0 108 107v113q-65 -84 -160 -84 q-67 0 -119 29t-80 75.5t-42 96.5t-14 100zM450 364q-14 62 -49 99t-86 37q-52 0 -83.5 -45.5t-31.5 -139.5t31.5 -139.5t83.5 -45.5q51 0 86 37t49 99v98z" />
<glyph unicode="&#x1ea;" horiz-adv-x="820" d="M410 104q91 0 141 69t50 200v34q0 131 -50 200t-141 69t-141 -69t-50 -200v-34q0 -131 50 -200t141 -69zM45 373v34q0 56 10 108t36 105.5t65.5 92.5t105 63.5t148.5 24.5t148.5 -24.5t105 -63.5t65.5 -92.5t36 -105.5t10 -108v-34q0 -60 -12 -115.5t-39 -110 t-77.5 -95.5t-119.5 -59q-37 -52 -37 -118q0 -55 45 -55q37 0 60 15l25 -73q-42 -22 -105 -22q-60 0 -92.5 33t-32.5 87q0 60 39 119h-19q-83 0 -148.5 24.5t-105 63.5t-65.5 92.5t-36 105.5t-10 108z" />
<glyph unicode="&#x1eb;" horiz-adv-x="660" d="M330 93q59 0 94.5 48.5t35.5 145.5v26q0 97 -35.5 145.5t-94.5 48.5t-94.5 -48.5t-35.5 -145.5v-26q0 -97 35.5 -145.5t94.5 -48.5zM40 287v26q0 42 7.5 82t27.5 82t51 73t83.5 51t120.5 20t120.5 -20t83.5 -51t51 -73t27.5 -82t7.5 -82v-26q0 -42 -8 -82.5t-26 -81 t-52 -73.5t-82 -51q-42 -53 -42 -124q0 -55 45 -55q37 0 60 15l25 -73q-42 -22 -105 -22q-60 0 -92.5 33t-32.5 87q0 60 39 119h-19q-68 0 -120.5 20t-83.5 51t-51 73t-27.5 82t-7.5 82z" />
<glyph unicode="&#x218;" horiz-adv-x="710" d="M342 -219h-7q-33 0 -54 18.5t-21 50.5q0 37 23 61t64 24q46 0 69.5 -28.5t23.5 -65.5q0 -74 -40.5 -122t-96.5 -69l-38 50q56 21 77 81zM40 184l168 24q7 -43 46 -75t101 -32q150 0 150 106q0 68 -77 90q-78 21 -198 63q-70 26 -121.5 77t-51.5 132q0 100 83.5 166 t214.5 66q67 0 123 -20t90.5 -51.5t55 -64.5t26.5 -65l-168 -24q-7 42 -41.5 72.5t-85.5 30.5q-61 0 -97 -27.5t-36 -74.5q0 -18 6 -31t20 -22.5t24.5 -14.5t31.5 -13q67 -23 184 -59q77 -24 129.5 -78t52.5 -144q0 -102 -86 -169t-229 -67q-73 0 -133 20.5t-96.5 52.5 t-58 66t-27.5 66z" />
<glyph unicode="&#x219;" horiz-adv-x="570" d="M272 -219h-7q-33 0 -54 18.5t-21 50.5q0 37 23 61t64 24q46 0 69.5 -28.5t23.5 -65.5q0 -74 -40.5 -122t-96.5 -69l-38 50q56 21 77 81zM30 143l155 20q5 -31 33 -51.5t73 -20.5q46 0 71.5 19t25.5 52q0 46 -55 63q-131 39 -148 45q-27 10 -48 21t-44 30.5t-35.5 48 t-12.5 65.5q0 79 66.5 132.5t173.5 53.5t168 -51t72 -110l-155 -20q-11 69 -85 69q-39 0 -63.5 -18.5t-24.5 -49.5q0 -37 58 -56q24 -8 76.5 -23t61.5 -18q66 -20 106.5 -59.5t40.5 -116.5q0 -81 -70 -135t-185 -54q-114 0 -179 51.5t-76 112.5z" />
<glyph unicode="&#x21a;" horiz-adv-x="620" d="M297 -219h-7q-33 0 -54 18.5t-21 50.5q0 37 23 61t64 24q46 0 69.5 -28.5t23.5 -65.5q0 -74 -40.5 -122t-96.5 -69l-38 50q56 21 77 81zM15 655v125h590v-125h-210v-655h-170v655h-210z" />
<glyph unicode="&#x21b;" horiz-adv-x="415" d="M267 -219h-7q-33 0 -54 18.5t-21 50.5q0 37 23 61t64 24q46 0 69.5 -28.5t23.5 -65.5q0 -74 -40.5 -122t-96.5 -69l-38 50q56 21 77 81zM20 500v100h86v123l151 12v-135h133v-100h-130v-336q0 -39 8.5 -52.5t30.5 -13.5q50 0 84 21l37 -104q-62 -31 -142 -31 q-178 0 -178 156v360h-80z" />
<glyph unicode="&#x237;" horiz-adv-x="310" d="M35 -226l-50 101q51 13 73 38.5t22 81.5v605h160v-615q0 -85 -59 -139t-146 -72z" />
<glyph unicode="&#x251;" horiz-adv-x="675" d="M40 290v20q0 52 14 103t42 98t80 76t119 29q98 0 164 -89l10 73h136v-445q0 -36 10.5 -50t44.5 -18l-40 -103q-129 18 -143 116q-69 -116 -182 -116q-67 0 -119 29t-80 76t-42 98t-14 103zM450 364q-14 62 -49 99t-86 37q-52 0 -83.5 -46t-31.5 -144v-20q0 -98 31.5 -144 t83.5 -46q51 0 86 37t49 99v128z" />
<glyph unicode="&#x259;" horiz-adv-x="640" d="M600 313v-26q0 -42 -8 -82.5t-28 -82.5t-51.5 -73t-83 -50.5t-117.5 -19.5q-67 0 -120.5 23t-85.5 61t-49 84.5t-17 95.5q0 42 10 92h393q-4 86 -39 130t-92 44q-42 0 -70 -23t-33 -53l-154 14q5 27 22 55.5t46.5 56t78.5 45t110 17.5q83 0 142.5 -29t89.5 -77t43 -97.5 t13 -104.5zM441 235h-251q1 -75 35 -109.5t87 -34.5q51 0 85 36.5t44 107.5z" />
<glyph unicode="&#x261;" horiz-adv-x="670" d="M40 315q0 50 14 100t42 96.5t80 75.5t119 29q98 0 164 -89l10 73h136v-615q0 -92 -71 -154t-187 -62q-104 0 -170 37t-82 77l148 42q7 -16 33.5 -31.5t70.5 -15.5q108 0 108 107v113q-65 -84 -160 -84q-67 0 -119 29t-80 75.5t-42 96.5t-14 100zM450 364q-14 62 -49 99 t-86 37q-52 0 -83.5 -45.5t-31.5 -139.5t31.5 -139.5t83.5 -45.5q51 0 86 37t49 99v98z" />
<glyph unicode="&#x2bb;" horiz-adv-x="240" d="M215 632q0 -41 -25.5 -66.5t-69.5 -25.5q-55 0 -82.5 37t-27.5 88q0 84 46.5 150t110.5 105l48 -64q-77 -47 -95 -140h5q39 0 64.5 -23t25.5 -61z" />
<glyph unicode="&#x2bc;" horiz-adv-x="240" d="M10 818q0 41 25.5 66.5t69.5 25.5q55 0 82.5 -37t27.5 -88q0 -84 -46.5 -150t-110.5 -105l-48 64q77 47 95 140h-5q-39 0 -64.5 23t-25.5 61z" />
<glyph unicode="&#x2bd;" horiz-adv-x="240" d="M215 818q0 -38 -25.5 -61t-64.5 -23h-5q18 -93 95 -140l-48 -64q-64 39 -110.5 105t-46.5 150q0 51 27.5 88t82.5 37q44 0 69.5 -25.5t25.5 -66.5z" />
<glyph unicode="&#x2be;" horiz-adv-x="180" d="M155 765q0 -55 -36.5 -87.5t-93.5 -32.5v70q23 0 36.5 14t13.5 36t-13.5 36t-36.5 14v70q57 0 93.5 -32.5t36.5 -87.5z" />
<glyph unicode="&#x2bf;" horiz-adv-x="180" d="M25 765q0 55 36.5 87.5t93.5 32.5v-70q-23 0 -36.5 -14t-13.5 -36t13.5 -36t36.5 -14v-70q-57 0 -93.5 32.5t-36.5 87.5z" />
<glyph unicode="&#x2c6;" horiz-adv-x="510" d="M45 725l190 145h40l190 -145l-45 -50l-165 80l-165 -80z" />
<glyph unicode="&#x2c7;" horiz-adv-x="510" d="M465 830l-190 -145h-40l-190 145l45 50l165 -80l165 80z" />
<glyph unicode="&#x2c8;" horiz-adv-x="210" d="M50 675v225h110v-225h-110z" />
<glyph unicode="&#x2c9;" horiz-adv-x="510" d="M45 730v100h420v-100h-420z" />
<glyph unicode="&#x2ca;" horiz-adv-x="330" d="M315 805l-245 -115l-40 60l220 160z" />
<glyph unicode="&#x2cb;" horiz-adv-x="330" d="M15 805l65 105l220 -160l-40 -60z" />
<glyph unicode="&#x2cc;" horiz-adv-x="210" d="M50 -300v225h110v-225h-110z" />
<glyph unicode="&#x2d7;" horiz-adv-x="330" d="M0 420h330v-120h-330v120z" />
<glyph unicode="&#x2d8;" horiz-adv-x="510" d="M45 834l96 31q26 -80 114 -80t114 80l96 -31q-19 -60 -70 -102t-140 -42t-140 42t-70 102z" />
<glyph unicode="&#x2d9;" horiz-adv-x="330" d="M70 780q0 40 27 64t68 24t68 -24t27 -64t-27 -64t-68 -24t-68 24t-27 64z" />
<glyph unicode="&#x2da;" horiz-adv-x="330" d="M165 645q-57 0 -93.5 32.5t-36.5 87.5t36.5 87.5t93.5 32.5t93.5 -32.5t36.5 -87.5t-36.5 -87.5t-93.5 -32.5zM165 715q23 0 36.5 14t13.5 36t-13.5 36t-36.5 14t-36.5 -14t-13.5 -36t13.5 -36t36.5 -14z" />
<glyph unicode="&#x2db;" horiz-adv-x="330" d="M75 -140q0 106 105 190l50 -36q-55 -55 -55 -139q0 -55 45 -55q38 0 60 15l25 -73q-42 -22 -105 -22q-60 0 -92.5 33t-32.5 87z" />
<glyph unicode="&#x2dc;" horiz-adv-x="510" d="M45 740q24 60 54 92.5t81 32.5q59 0 115 -48q32 -27 39 -27t13.5 4.5t13 15t9.5 16.5t9 19.5t6 14.5l80 -30q-24 -60 -54 -92.5t-81 -32.5q-59 0 -115 48q-32 27 -39 27t-13.5 -4.5t-13 -15t-9.5 -16.5t-9 -19.5t-6 -14.5z" />
<glyph unicode="&#x2dd;" horiz-adv-x="510" d="M45 730l105 190l90 -65l-140 -165zM270 730l105 190l90 -65l-140 -165z" />
<glyph unicode="&#x300;" d="M-165 805l65 105l220 -160l-40 -60z" />
<glyph unicode="&#x301;" d="M165 805l-245 -115l-40 60l220 160z" />
<glyph unicode="&#x302;" d="M-210 725l190 145h40l190 -145l-45 -50l-165 80l-165 -80z" />
<glyph unicode="&#x303;" d="M-210 740q24 60 54 92.5t81 32.5q59 0 115 -48q32 -27 39 -27t13.5 4.5t13 15t9.5 16.5t9 19.5t6 14.5l80 -30q-24 -60 -54 -92.5t-81 -32.5q-59 0 -115 48q-32 27 -39 27t-13.5 -4.5t-13 -15t-9.5 -16.5t-9 -19.5t-6 -14.5z" />
<glyph unicode="&#x304;" d="M-210 730v100h420v-100h-420z" />
<glyph unicode="&#x305;" d="M-300 730v100h600v-100h-600z" />
<glyph unicode="&#x306;" d="M-210 834l96 31q26 -80 114 -80t114 80l96 -31q-19 -60 -70 -102t-140 -42t-140 42t-70 102z" />
<glyph unicode="&#x307;" d="M-95 780q0 40 27 64t68 24t68 -24t27 -64t-27 -64t-68 -24t-68 24t-27 64z" />
<glyph unicode="&#x308;" d="M-125 859q37 0 61 -21.5t24 -57.5t-24 -57.5t-61 -21.5t-61 21.5t-24 57.5t24 57.5t61 21.5zM125 859q37 0 61 -21.5t24 -57.5t-24 -57.5t-61 -21.5t-61 21.5t-24 57.5t24 57.5t61 21.5z" />
<glyph unicode="&#x309;" d="M-120 875q51 30 122 30q52 0 85 -25t33 -70q0 -34 -13 -59t-38 -40.5t-46 -23.5t-53 -17l-25 50q80 32 80 70q0 17 -9.5 23.5t-32.5 6.5q-43 0 -93 -24z" />
<glyph unicode="&#x30a;" d="M0 645q-57 0 -93.5 32.5t-36.5 87.5t36.5 87.5t93.5 32.5t93.5 -32.5t36.5 -87.5t-36.5 -87.5t-93.5 -32.5zM0 715q23 0 36.5 14t13.5 36t-13.5 36t-36.5 14t-36.5 -14t-13.5 -36t13.5 -36t36.5 -14z" />
<glyph unicode="&#x30b;" d="M-180 730l105 190l90 -65l-140 -165zM45 730l105 190l90 -65l-140 -165z" />
<glyph unicode="&#x30c;" d="M210 830l-190 -145h-40l-190 145l45 50l165 -80l165 80z" />
<glyph unicode="&#x30d;" d="M-55 675v225h110v-225h-110z" />
<glyph unicode="&#x30e;" d="M45 675v225h105v-225h-105zM-150 675v225h105v-225h-105z" />
<glyph unicode="&#x30f;" d="M180 730l-55 -40l-140 165l90 65zM-45 730l-55 -40l-140 165l90 65z" />
<glyph unicode="&#x311;" d="M210 706l-96 -31q-26 80 -114 80t-114 -80l-96 31q19 60 70 102t140 42t140 -42t70 -102z" />
<glyph unicode="&#x312;" d="M13 849h7q33 0 54 -18.5t21 -50.5q0 -37 -23 -61t-64 -24q-46 0 -69.5 28.5t-23.5 65.5q0 74 40.5 122t96.5 69l38 -50q-56 -21 -77 -81z" />
<glyph unicode="&#x313;" d="M-13 821h-7q-33 0 -54 18.5t-21 50.5q0 37 23 61t64 24q46 0 69.5 -28.5t23.5 -65.5q0 -74 -40.5 -122t-96.5 -69l-38 50q56 21 77 81z" />
<glyph unicode="&#x314;" d="M95 890q0 -32 -21 -50.5t-54 -18.5h-7q21 -60 77 -81l-38 -50q-56 21 -96.5 69t-40.5 122q0 37 23 65.5t67 28.5q41 0 65.5 -24t24.5 -61z" />
<glyph unicode="&#x315;" horiz-adv-x="240" d="M102 681h-7q-33 0 -54 18.5t-21 50.5q0 37 23 61t64 24q46 0 69.5 -28.5t23.5 -65.5q0 -74 -40.5 -122t-96.5 -69l-38 50q56 21 77 81z" />
<glyph unicode="&#x31b;" horiz-adv-x="60" d="M-85 480l-25 60q8 1 16.5 5.5t19 13t17.5 24.5t7 37q0 32 -25 60l95 55q40 -40 40 -110q0 -60 -44 -96.5t-101 -48.5z" />
<glyph unicode="&#x323;" d="M-95 -180q0 40 27 64t68 24t68 -24t27 -64t-27 -64t-68 -24t-68 24t-27 64z" />
<glyph unicode="&#x324;" d="M-125 -101q37 0 61 -21.5t24 -57.5t-24 -57.5t-61 -21.5t-61 21.5t-24 57.5t24 57.5t61 21.5zM125 -101q37 0 61 -21.5t24 -57.5t-24 -57.5t-61 -21.5t-61 21.5t-24 57.5t24 57.5t61 21.5z" />
<glyph unicode="&#x326;" d="M-13 -219h-7q-33 0 -54 18.5t-21 50.5q0 37 23 61t64 24q46 0 69.5 -28.5t23.5 -65.5q0 -74 -40.5 -122t-96.5 -69l-38 50q56 21 77 81z" />
<glyph unicode="&#x327;" d="M-105 -265q140 32 140 90q0 25 -55 25q-10 0 -40 -5l-45 45l75 135h85l-58 -105q138 0 138 -95q0 -28 -11 -51t-34.5 -40t-41 -28t-50.5 -20.5t-42.5 -12t-35.5 -8.5z" />
<glyph unicode="&#x328;" d="M-90 -140q0 106 105 190l50 -36q-55 -55 -55 -139q0 -55 45 -55q37 0 60 15l25 -73q-42 -22 -105 -22q-60 0 -92.5 33t-32.5 87z" />
<glyph unicode="&#x329;" d="M-55 -300v225h110v-225h-110z" />
<glyph unicode="&#x32e;" d="M-210 -101l96 31q26 -80 114 -80t114 80l96 -31q-19 -60 -70 -102t-140 -42t-140 42t-70 102z" />
<glyph unicode="&#x331;" d="M-210 -230v100h420v-100h-420z" />
<glyph unicode="&#x332;" d="M-300 -230v100h600v-100h-600z" />
<glyph unicode="&#x34f;" />
<glyph unicode="&#x351;" d="M-85 765q0 55 36.5 87.5t93.5 32.5v-70q-23 0 -36.5 -14t-13.5 -36t13.5 -36t36.5 -14v-70q-57 0 -93.5 32.5t-36.5 87.5z" />
<glyph unicode="&#x357;" d="M85 765q0 -55 -36.5 -87.5t-93.5 -32.5v70q23 0 36.5 14t13.5 36t-13.5 36t-36.5 14v70q57 0 93.5 -32.5t36.5 -87.5z" />
<glyph unicode="&#x358;" horiz-adv-x="180" d="M-30 600q0 40 27 64t68 24t68 -24t27 -64t-27 -64t-68 -24t-68 24t-27 64z" />
<glyph unicode="&#x3c0;" horiz-adv-x="660" d="M20 490v110h620v-110h-80v-335q0 -34 19 -48.5t66 -19.5l-30 -103q-215 15 -215 156v350h-140v-490h-160v490h-80z" />
<glyph unicode="&#xe01;" horiz-adv-x="655" d="M85 0v290q0 71 64 95l-114 24q12 87 85 149.5t195 62.5q125 0 202.5 -65.5t77.5 -164.5v-391h-150v391q0 120 -130 120q-89 0 -119 -72l129 -29l-15 -60q-19 5 -35 5q-40 0 -40 -50v-305h-150z" />
<glyph unicode="&#xe02;" horiz-adv-x="635" d="M84 470q0 -33 31 -33t31 33t-31 33t-31 -33zM0 470q0 60 52 102.5t142 42.5q92 0 144 -44.5t52 -115.5q0 -45 -22 -87t-48 -68.5t-48 -62t-22 -70.5q0 -38 24.5 -58t60.5 -20q85 0 85 95v416h150v-416q0 -86 -63.5 -145.5t-171.5 -59.5t-171.5 50t-63.5 126 q0 46 18.5 84.5t45 64.5t53 49.5t45 52t18.5 59.5q0 64 -75 73q25 -27 25 -68q0 -48 -32.5 -76.5t-82.5 -28.5t-82.5 28.5t-32.5 76.5z" />
<glyph unicode="&#xe03;" horiz-adv-x="635" d="M84 506q0 -33 31 -33t31 33t-31 33t-31 -33zM282 461q-54 -71 -152 -71q-59 0 -94.5 32t-35.5 84q0 48 32.5 76.5t82.5 28.5q49 0 79 -28.5t30 -76.5q0 -10 -1 -15q38 41 62 109l50 6q20 -15 37.5 -52t17.5 -84q0 -45 -22 -89.5t-48 -73.5t-48 -67t-22 -73 q0 -38 24.5 -58t60.5 -20q85 0 85 95v416h150v-416q0 -86 -63.5 -145.5t-171.5 -59.5t-171.5 50t-63.5 126q0 43 16.5 79.5t41 63t50 50.5t47 53.5t27.5 59.5z" />
<glyph unicode="&#xe04;" horiz-adv-x="665" d="M330 348q-31 0 -31 -33t31 -33t31 33t-31 33zM330 420q50 0 82.5 -28.5t32.5 -76.5t-32.5 -76.5t-82.5 -28.5q-48 0 -80 27q-20 -44 -20 -147v-90h-161q10 69 10 115q0 41 -12 117t-12 159q0 99 75.5 164.5t199.5 65.5t199.5 -65.5t75.5 -164.5v-391h-150v90 q0 26 3 108.5t3 192.5q0 120 -131 120t-131 -120v-76q18 48 51 75q35 30 80 30z" />
<glyph unicode="&#xe05;" horiz-adv-x="665" d="M330 348q-31 0 -31 -33t31 -33t31 33t-31 33zM330 420q50 0 82.5 -28.5t32.5 -76.5t-32.5 -76.5t-82.5 -28.5q-48 0 -80 27q-20 -44 -20 -147v-90h-161q10 69 10 115q0 41 -12 117t-12 159q0 27 3 52.5t14.5 58.5t30.5 56.5t54.5 40t82.5 16.5l90 -75l90 75 q47 0 82.5 -16.5t54.5 -40t30.5 -56.5t14.5 -58.5t3 -52.5v-391h-150v90q0 26 3 108.5t3 192.5q0 107 -37 119l-78 -60h-16h-16l-78 60q-37 -12 -37 -119v-76q18 48 51 75q35 30 80 30z" />
<glyph unicode="&#xe06;" horiz-adv-x="650" d="M94 506q0 -33 31 -33t31 33t-31 33t-31 -33zM580 600v-600h-138q-68 90 -163 112q1 -6 1 -18q0 -48 -32.5 -76.5t-82.5 -28.5t-82.5 28.5t-32.5 76.5q0 68 63 95q6 35 24.5 66t41.5 54.5t46 46t42 49.5t25 55q-55 -70 -152 -70q-59 0 -94.5 32t-35.5 84q0 48 32.5 76.5 t82.5 28.5q49 0 79 -28.5t30 -76.5q0 -10 -1 -15q38 41 62 109l50 6q20 -15 37.5 -52t17.5 -84q0 -41 -18 -80.5t-40.5 -66.5t-45.5 -61t-31 -62q94 -14 168 -73q-3 51 -3 103v370h150zM196 94q0 33 -31 33t-31 -33t31 -33t31 33z" />
<glyph unicode="&#xe07;" horiz-adv-x="525" d="M-5 318l90 84l241 -275q-16 42 -16 83v75q0 27 3.5 46.5t11 41t9.5 31.5q-13 -3 -29 -3q-50 0 -82.5 28.5t-32.5 76.5t32.5 76.5t82.5 28.5q78 0 119 -41t41 -109q0 -25 -5 -88t-5 -103v-270h-160zM274 506q0 -33 31 -33t31 33t-31 33t-31 -33z" />
<glyph unicode="&#xe08;" horiz-adv-x="590" d="M221 255q0 33 -31 33t-31 -33t31 -33t31 33zM475 90v-90h-160q0 97 -40 181q-33 -31 -85 -31q-50 0 -82.5 28.5t-32.5 76.5t32.5 76.5t82.5 28.5q125 0 171 -176q2 30 13 98.5t11 126.5q0 102 -110 102q-97 0 -110 -97l-150 10q11 80 78.5 138.5t181.5 58.5 q116 0 188 -60.5t72 -151.5q0 -77 -30 -174.5t-30 -144.5z" />
<glyph unicode="&#xe09;" horiz-adv-x="645" d="M115 0v109q0 23 14 44q-38 8 -61 35t-23 67q0 48 32.5 76.5t82.5 28.5t82.5 -28.5t32.5 -76.5q0 -24 -8 -58t-8 -57v-17q65 64 166 78v9v191q0 110 -120 110q-105 0 -120 -106l-150 12q12 84 82 144t188 60q121 0 195.5 -62.5t74.5 -157.5v-161q0 -28 -23 -51 q63 -27 63 -95q0 -48 -32.5 -76.5t-82.5 -28.5t-82.5 28.5t-32.5 76.5q0 3 0.5 7.5t0.5 6.5q-42 -14 -72.5 -41t-60.5 -67h-138zM469 94q0 -33 31 -33t31 33t-31 33t-31 -33zM191 255q0 33 -31 33t-31 -33t31 -33t31 33z" />
<glyph unicode="&#xe0a;" horiz-adv-x="640" d="M84 470q0 -33 31 -33t31 33t-31 33t-31 -33zM386 415q-8 -35 -31 -70t-46 -58.5t-41 -55.5t-18 -64q0 -38 24.5 -58t60.5 -20q85 0 85 95v176q0 45 -34 55zM570 360v-176q0 -86 -63.5 -145.5t-171.5 -59.5t-171.5 50t-63.5 126q0 46 18.5 84.5t45 64.5t53 49.5t45 52 t18.5 59.5q0 64 -75 73q25 -27 25 -68q0 -48 -32.5 -76.5t-82.5 -28.5t-82.5 28.5t-32.5 76.5q0 60 52 102.5t142 42.5q78 0 127.5 -32.5t63.5 -87.5q47 10 66 41.5t19 90.5l150 -12q0 -55 -33.5 -97.5t-93.5 -62.5q77 -29 77 -95z" />
<glyph unicode="&#xe0b;" horiz-adv-x="640" d="M84 506q0 -33 31 -33t31 33t-31 33t-31 -33zM493 455q77 -29 77 -95v-176q0 -86 -63.5 -145.5t-171.5 -59.5t-171.5 50t-63.5 126q0 43 16.5 79.5t41 63t50 50.5t47 53.5t27.5 59.5q-54 -71 -152 -71q-59 0 -94.5 32t-35.5 84q0 48 32.5 76.5t82.5 28.5q49 0 79 -28.5 t30 -76.5q0 -10 -1 -15q38 41 62 109l50 6q17 -13 33 -43t21 -68q45 10 63 42t18 90l150 -12q0 -55 -33.5 -97.5t-93.5 -62.5zM420 360q0 47 -38 56q-10 -33 -33 -68.5t-44.5 -60t-38 -57t-16.5 -63.5q0 -38 24.5 -58t60.5 -20q85 0 85 95v176z" />
<glyph unicode="&#xe0c;" horiz-adv-x="950" d="M159 94q0 -33 31 -33t31 33t-31 33t-31 -33zM880 600v-600h-138q-31 44 -61 71t-76 40v-17q0 -48 -32.5 -76.5t-82.5 -28.5t-82.5 28.5t-32.5 76.5q0 40 22.5 67t60.5 35q-13 19 -13 44v151q0 120 -130 120q-89 0 -119 -72l129 -29l-15 -60q-19 5 -35 5q-40 0 -40 -50 v-65q0 -23 -14 -44q38 -8 61 -35t23 -67q0 -48 -32.5 -76.5t-82.5 -28.5t-82.5 28.5t-32.5 76.5q0 24 5 58.5t5 57.5v80q0 71 64 95l-114 24q12 87 85 149.5t195 62.5q125 0 202.5 -65.5t77.5 -164.5v-181v-12q80 -15 138 -70q-3 51 -3 102v370h150zM521 94q0 33 -31 33 t-31 -33t31 -33t31 33z" />
<glyph unicode="&#xe0d;" horiz-adv-x="950" d="M560 -121q-28 0 -28 -29t28 -29t28 29t-28 29zM560 -58q44 0 72 -25t28 -67q0 -24 -12 -46h7h10q45 0 70 27t25 95l110 -12q0 -82 -51 -131t-134 -49h-70q-70 0 -112.5 31t-42.5 85q0 42 28 67t72 25zM159 94q0 -33 31 -33t31 33t-31 33t-31 -33zM315 621 q125 0 202.5 -65.5t77.5 -164.5v-221q0 -81 70 -81t70 81v430h150v-430q0 -80 -59.5 -135.5t-160.5 -55.5t-160.5 55.5t-59.5 135.5v221q0 120 -130 120q-89 0 -119 -72l129 -29l-15 -60q-19 5 -35 5q-40 0 -40 -50v-65q0 -23 -14 -44q38 -8 61 -35t23 -67 q0 -48 -32.5 -76.5t-82.5 -28.5t-82.5 28.5t-32.5 76.5q0 24 5 58.5t5 57.5v80q0 71 64 95l-114 24q12 87 85 149.5t195 62.5z" />
<glyph unicode="&#xe0e;" horiz-adv-x="665" d="M181 94q0 33 -31 33t-31 -33t31 -33t31 33zM325 621q125 0 202.5 -65.5t77.5 -164.5v-456v-170h-135q-69 50 -160 89v-4q0 -35 -28.5 -67.5t-81.5 -32.5q-51 0 -80.5 28.5t-29.5 71.5q0 44 31 72t84 28q45 0 114.5 -25.5t138.5 -64.5q-3 33 -3 75v456q0 120 -130 120 q-88 0 -118 -71l138 -30l-15 -60q-19 5 -35 5q-40 0 -40 -50v-65v-30q0 -23 5 -57.5t5 -58.5q0 -48 -32.5 -76.5t-82.5 -28.5t-82.5 28.5t-32.5 76.5q0 40 23 67t61 35q-14 21 -14 44v50q0 70 63 94l-123 25q12 87 85 149.5t195 62.5zM234 -119q-20 4 -24 4q-35 0 -35 -35 q0 -18 9 -26.5t21 -8.5q17 0 27 10t10 25q0 18 -8 31z" />
<glyph unicode="&#xe0f;" horiz-adv-x="665" d="M181 94q0 33 -31 33t-31 -33t31 -33t31 33zM325 621q125 0 202.5 -65.5t77.5 -164.5v-456v-170h-135l-110 87q-19 -28 -40 -47q-63 -55 -130 -55q-53 0 -84 28t-31 72q0 43 29.5 71.5t80.5 28.5q44 0 71 -23.5t36 -54.5q9 13 17.5 28.5t12.5 25.5l3 9h45l88 -72 q-3 31 -3 72v456q0 120 -130 120q-88 0 -118 -71l138 -30l-15 -60q-19 5 -35 5q-40 0 -40 -50v-65v-30q0 -23 5 -57.5t5 -58.5q0 -48 -32.5 -76.5t-82.5 -28.5t-82.5 28.5t-32.5 76.5q0 40 23 67t61 35q-14 21 -14 44v50q0 70 63 94l-123 25q12 87 85 149.5t195 62.5z M218 -182q9 14 9 32q0 15 -10 25t-27 10q-12 0 -21 -8.5t-9 -26.5q0 -35 35 -35q11 0 23 3z" />
<glyph unicode="&#xe10;" horiz-adv-x="555" d="M415 -65h110v-170h-95l-83 83q-18 -25 -37 -43q-63 -55 -130 -55q-53 0 -84 28t-31 72q0 43 29.5 71.5t80.5 28.5q44 0 71 -23.5t36 -54.5q9 13 17.5 28.5t12.5 25.5l3 9h45l57 -59q-2 36 -2 59zM208 -182q9 14 9 32q0 15 -10 25t-27 10q-12 0 -21 -8.5t-9 -26.5 q0 -35 35 -35q11 0 23 3zM181 225q0 33 -31 33t-31 -33t31 -33t31 33zM326 147q1 7 7.5 55.5t6.5 73.5q0 58 -72 81.5t-233 23.5v35q0 90 64 147.5t166 57.5q88 0 148 -49l7 14l15 29l110 -21v-6l-95 -118h-45q-41 51 -115 51q-94 0 -111 -73q149 -8 227.5 -42.5 t78.5 -109.5q0 -36 -25 -116.5t-25 -119.5v-60h-160q0 88 -32 159q-33 -39 -93 -39q-50 0 -82.5 28.5t-32.5 76.5t32.5 76.5t82.5 28.5q133 0 176 -183z" />
<glyph unicode="&#xe11;" horiz-adv-x="665" d="M115 0v155q0 43 15 79.5t37.5 63t46 51t43 53.5t25.5 59q-54 -71 -152 -71q-59 0 -94.5 32t-35.5 84q0 48 32.5 76.5t82.5 28.5q49 0 79 -28.5t30 -76.5q0 -10 -1 -15q38 41 62 109l50 6q31 -23 46 -74q57 79 119 79q100 0 100 -131v-480h-150v452q0 28 -10 33 q-25 -16 -56 -66q-10 -41 -40.5 -86.5t-54.5 -86t-24 -79.5v-167h-150zM84 506q0 -33 31 -33t31 33t-31 33t-31 -33z" />
<glyph unicode="&#xe12;" horiz-adv-x="960" d="M890 600v-600h-138q-31 44 -61 71t-76 40v-17q0 -48 -32.5 -76.5t-82.5 -28.5t-82.5 28.5t-32.5 76.5q0 41 24 67.5t64 34.5q-12 21 -12 44v151q0 109 -37 119l-78 -60h-16h-16l-78 60q-43 -11 -43 -119q0 -78 8.5 -143.5t8.5 -87.5q0 -16 -2 -42q20 22 61.5 53t50.5 39 q-46 3 -75.5 31.5t-29.5 73.5q0 48 32.5 76.5t82.5 28.5t82.5 -28.5t32.5 -76.5q0 -43 -18 -80t-45.5 -64.5t-55.5 -53t-53 -55.5t-33 -62h-171q10 69 10 115q0 41 -12 117t-12 159q0 27 3 52.5t14.5 58.5t30.5 56.5t54.5 40t82.5 16.5l90 -75l90 75q47 0 82.5 -16.5 t54.5 -40t30.5 -56.5t14.5 -58.5t3 -52.5v-181v-12q80 -15 138 -70q-3 51 -3 102v370h150zM531 94q0 33 -31 33t-31 -33t31 -33t31 33zM330 282q31 0 31 33t-31 33t-31 -33t31 -33z" />
<glyph unicode="&#xe13;" horiz-adv-x="960" d="M159 94q0 -33 31 -33t31 33t-31 33t-31 -33zM779 94q0 -33 31 -33t31 33t-31 33t-31 -33zM885 600v-360q0 -28 -23 -51q63 -27 63 -95q0 -48 -32.5 -76.5t-82.5 -28.5t-82.5 28.5t-32.5 76.5q0 2 0.5 6t0.5 6q-57 -22 -113 -106h-138v391q0 120 -130 120q-89 0 -119 -72 l129 -29l-15 -60q-19 5 -35 5q-40 0 -40 -50v-65q0 -23 -14 -44q38 -8 61 -35t23 -67q0 -48 -32.5 -76.5t-82.5 -28.5t-82.5 28.5t-32.5 76.5q0 24 5 58.5t5 57.5v80q0 71 64 95l-114 24q12 87 85 149.5t195 62.5q125 0 202.5 -65.5t77.5 -164.5v-161q0 -49 -3 -97 q58 55 142 68q0 1 0.5 4t0.5 5v390h150z" />
<glyph unicode="&#xe14;" horiz-adv-x="665" d="M330 282q31 0 31 33t-31 33t-31 -33t31 -33zM455 0v90q0 26 3 108.5t3 192.5q0 120 -131 120q-62 0 -99.5 -29t-37.5 -91q0 -78 8.5 -143.5t8.5 -87.5q0 -16 -2 -42q20 22 61.5 53t50.5 39q-46 3 -75.5 31.5t-29.5 73.5q0 48 32.5 76.5t82.5 28.5t82.5 -28.5t32.5 -76.5 q0 -43 -18 -80t-45.5 -64.5t-55.5 -53t-53 -55.5t-33 -62h-171q10 69 10 115q0 41 -12 117t-12 159q0 99 75.5 164.5t199.5 65.5t199.5 -65.5t75.5 -164.5v-391h-150z" />
<glyph unicode="&#xe15;" horiz-adv-x="665" d="M330 282q31 0 31 33t-31 33t-31 -33t31 -33zM455 0v90q0 26 3 108.5t3 192.5q0 107 -37 119l-78 -60h-16h-16l-78 60q-43 -13 -43 -119q0 -78 8.5 -143.5t8.5 -87.5q0 -16 -2 -42q20 22 61.5 53t50.5 39q-46 3 -75.5 31.5t-29.5 73.5q0 48 32.5 76.5t82.5 28.5 t82.5 -28.5t32.5 -76.5q0 -43 -18 -80t-45.5 -64.5t-55.5 -53t-53 -55.5t-33 -62h-171q10 69 10 115q0 41 -12 117t-12 159q0 27 3 52.5t14.5 58.5t30.5 56.5t54.5 40t82.5 16.5l90 -75l90 75q47 0 82.5 -16.5t54.5 -40t30.5 -56.5t14.5 -58.5t3 -52.5v-391h-150z" />
<glyph unicode="&#xe16;" horiz-adv-x="655" d="M159 94q0 -33 31 -33t31 33t-31 33t-31 -33zM221 196q38 -8 61 -35t23 -67q0 -48 -32.5 -76.5t-82.5 -28.5t-82.5 28.5t-32.5 76.5q0 24 5 58.5t5 57.5v80q0 71 64 95l-114 24q12 87 85 149.5t195 62.5q125 0 202.5 -65.5t77.5 -164.5v-391h-150v391q0 120 -130 120 q-89 0 -119 -72l129 -29l-15 -60q-19 5 -35 5q-40 0 -40 -50v-65q0 -23 -14 -44z" />
<glyph unicode="&#xe17;" horiz-adv-x="660" d="M255 0h-150v360q0 23 14 44q-38 8 -61 35t-23 67q0 48 32.5 76.5t82.5 28.5t82.5 -28.5t32.5 -76.5q0 -24 -5 -58.5t-5 -57.5v-30q80 251 210 251q37 0 64 -13.5t40.5 -35.5t19.5 -42.5t6 -39.5v-480h-150v452q0 28 -10 33q-55 -32 -110 -172t-70 -238v-75zM181 506 q0 33 -31 33t-31 -33t31 -33t31 33z" />
<glyph unicode="&#xe18;" horiz-adv-x="585" d="M560 588l-95 -118h-45q-41 51 -115 51q-97 0 -112 -77q160 -7 248.5 -40.5t88.5 -107.5v-112q0 -86 -63.5 -145.5t-171.5 -59.5t-171.5 59.5t-63.5 145.5v116h150v-116q0 -95 85 -95t85 95v92q0 56 -79.5 75.5t-250.5 19.5v45q0 90 64 147.5t166 57.5q87 0 149 -50 q1 2 2 5t2 5.5t2 4.5l15 29l110 -21v-6z" />
<glyph unicode="&#xe19;" horiz-adv-x="650" d="M469 94q0 -33 31 -33t31 33t-31 33t-31 -33zM575 600v-360q0 -28 -23 -51q63 -27 63 -95q0 -48 -32.5 -76.5t-82.5 -28.5t-82.5 28.5t-32.5 76.5q0 10 1 15q-79 -23 -143 -109h-138v360q0 23 14 44q-38 8 -61 35t-23 67q0 48 32.5 76.5t82.5 28.5t82.5 -28.5t32.5 -76.5 q0 -24 -5 -58.5t-5 -57.5v-160q0 -50 -3 -100q73 60 173 72v8v390h150zM181 506q0 33 -31 33t-31 -33t31 -33t31 33z" />
<glyph unicode="&#xe1a;" horiz-adv-x="700" d="M176 506q0 33 -31 33t-31 -33t31 -33t31 33zM114 404q-38 8 -61 35t-23 67q0 48 32.5 76.5t82.5 28.5t82.5 -28.5t32.5 -76.5q0 -24 -5 -58.5t-5 -57.5v-194q0 -107 115 -107t115 107v404h150v-404q0 -93 -73 -155t-192 -62t-192 62t-73 155v164q0 23 14 44z" />
<glyph unicode="&#xe1b;" horiz-adv-x="700" d="M176 506q0 33 -31 33t-31 -33t31 -33t31 33zM114 404q-38 8 -61 35t-23 67q0 48 32.5 76.5t82.5 28.5t82.5 -28.5t32.5 -76.5q0 -24 -5 -58.5t-5 -57.5v-194q0 -107 115 -107t115 107v614h150v-614q0 -93 -73 -155t-192 -62t-192 62t-73 155v164q0 23 14 44z" />
<glyph unicode="&#xe1c;" horiz-adv-x="715" d="M500 235v365h145v-600h-140l-145 255l-145 -255h-140v270q0 40 -10 103t-10 88q0 67 45.5 108.5t124.5 41.5q50 0 82.5 -28.5t32.5 -76.5t-32.5 -76.5t-82.5 -28.5q-17 0 -37 5q3 -11 12.5 -32.5t14.5 -41.5t5 -47v-50q0 -29 -4 -50l99 175h45h45l99 -175q-4 21 -4 50z M256 506q0 33 -31 33t-31 -33t31 -33t31 33z" />
<glyph unicode="&#xe1d;" horiz-adv-x="715" d="M500 235v575h145v-810h-140l-145 255l-145 -255h-140v270q0 40 -10 103t-10 88q0 67 45.5 108.5t124.5 41.5q50 0 82.5 -28.5t32.5 -76.5t-32.5 -76.5t-82.5 -28.5q-17 0 -37 5q3 -11 12.5 -32.5t14.5 -41.5t5 -47v-50q0 -29 -4 -50l99 175h45h45l99 -175q-4 21 -4 50z M256 506q0 33 -31 33t-31 -33t31 -33t31 33z" />
<glyph unicode="&#xe1e;" horiz-adv-x="735" d="M665 600v-600h-130l-150 345l-150 -345h-130v360q0 23 14 44q-38 8 -61 35t-23 67q0 48 32.5 76.5t82.5 28.5t82.5 -28.5t32.5 -76.5q0 -24 -7.5 -58.5t-7.5 -57.5v-85q0 -16 -4 -54l104 244h35h35l104 -244q-4 38 -4 54v295h145zM181 506q0 33 -31 33t-31 -33t31 -33 t31 33z" />
<glyph unicode="&#xe1f;" horiz-adv-x="735" d="M665 810v-810h-130l-150 345l-150 -345h-130v360q0 23 14 44q-38 8 -61 35t-23 67q0 48 32.5 76.5t82.5 28.5t82.5 -28.5t32.5 -76.5q0 -24 -7.5 -58.5t-7.5 -57.5v-85q0 -16 -4 -54l104 244h35h35l104 -244q-4 38 -4 54v505h145zM181 506q0 33 -31 33t-31 -33t31 -33 t31 33z" />
<glyph unicode="&#xe20;" horiz-adv-x="665" d="M181 94q0 33 -31 33t-31 -33t31 -33t31 33zM325 621q125 0 202.5 -65.5t77.5 -164.5v-391h-150v391q0 120 -130 120q-88 0 -118 -71l138 -30l-15 -60q-19 5 -35 5q-40 0 -40 -50v-65v-30q0 -23 5 -57.5t5 -58.5q0 -48 -32.5 -76.5t-82.5 -28.5t-82.5 28.5t-32.5 76.5 q0 40 23 67t61 35q-14 21 -14 44v50q0 70 63 94l-123 25q12 87 85 149.5t195 62.5z" />
<glyph unicode="&#xe21;" horiz-adv-x="645" d="M575 600v-600h-138q-64 87 -153 110q0 -2 0.5 -7.5t0.5 -8.5q0 -48 -32.5 -76.5t-82.5 -28.5t-82.5 28.5t-32.5 76.5q0 37 21 63.5t56 36.5q-17 20 -17 46v120q0 23 14 44q-38 8 -61 35t-23 67q0 48 32.5 76.5t82.5 28.5t82.5 -28.5t32.5 -76.5q0 -24 -5 -58.5t-5 -57.5 v-180v-11q95 -16 163 -72q-3 51 -3 103v370h150zM201 94q0 33 -31 33t-31 -33t31 -33t31 33zM191 506q0 33 -31 33t-31 -33t31 -33t31 33z" />
<glyph unicode="&#xe22;" horiz-adv-x="645" d="M251 506q0 33 -31 33t-31 -33t31 -33t31 33zM335 506q0 -48 -32.5 -76.5t-82.5 -28.5q-32 0 -58 12q30 -53 173 -53v-1v-87v-1q-135 0 -135 -81q0 -101 115 -101t115 107v404h150v-404q0 -93 -73 -155t-192 -62t-192 58t-73 147q0 92 87 127q-39 23 -63 62t-24 88 q0 67 45.5 108.5t124.5 41.5q50 0 82.5 -28.5t32.5 -76.5z" />
<glyph unicode="&#xe23;" horiz-adv-x="530" d="M259 94q0 -33 31 -33t31 33t-31 33t-31 -33zM515 588l-95 -118h-45q-41 51 -110 51q-95 0 -108 -78q130 -8 204 -42t74 -105v-101v-75q0 -59 -40 -95t-105 -36q-50 0 -82.5 28.5t-32.5 76.5q0 47 32 75.5t81 29.5q-3 11 -3 21v56q0 29 -17.5 48t-55 29t-83.5 14t-114 4 v45q0 91 62 148t163 57q84 0 144 -48q2 5 6 13l15 29l110 -21v-6z" />
<glyph unicode="&#xe24;" horiz-adv-x="655" d="M159 94q0 -33 31 -33t31 33t-31 33t-31 -33zM221 196q38 -8 61 -35t23 -67q0 -48 -32.5 -76.5t-82.5 -28.5t-82.5 28.5t-32.5 76.5q0 24 5 58.5t5 57.5v80q0 71 64 95l-114 24q12 87 85 149.5t195 62.5q125 0 202.5 -65.5t77.5 -164.5v-601h-150v601q0 120 -130 120 q-89 0 -119 -72l129 -29l-15 -60q-19 5 -35 5q-40 0 -40 -50v-65q0 -23 -14 -44z" />
<glyph unicode="&#xe25;" horiz-adv-x="635" d="M185 405l-150 12q12 84 82 144t188 60q121 0 195.5 -62.5t74.5 -157.5v-401h-150v90q-11 58 -66 114t-124 56q-40 0 -40 -40q0 -12 -3 -21q49 -1 81 -29.5t32 -75.5q0 -48 -32.5 -76.5t-82.5 -28.5q-57 0 -96 35t-39 86v85q0 30 7 56t24 52t52.5 41.5t86.5 15.5 q116 0 200 -100v141q0 110 -120 110q-105 0 -120 -106zM221 94q0 33 -31 33t-31 -33t31 -33t31 33z" />
<glyph unicode="&#xe26;" horiz-adv-x="670" d="M181 94q0 33 -31 33t-31 -33t31 -33t31 33zM325 621q125 0 202.5 -65.5t77.5 -164.5v-601h-150v601q0 120 -130 120q-88 0 -118 -71l138 -30l-15 -60q-19 5 -35 5q-40 0 -40 -50v-65v-30q0 -23 5 -57.5t5 -58.5q0 -48 -32.5 -76.5t-82.5 -28.5t-82.5 28.5t-32.5 76.5 q0 40 23 67t61 35q-14 21 -14 44v50q0 70 63 94l-123 25q12 87 85 149.5t195 62.5z" />
<glyph unicode="&#xe27;" horiz-adv-x="535" d="M470 120q0 -59 -40 -95t-105 -36q-50 0 -82.5 28.5t-32.5 76.5q0 47 32 75.5t81 29.5q-3 11 -3 21v196q0 95 -85 95q-73 0 -86 -78l-149 12q11 71 71.5 123.5t163.5 52.5q108 0 171.5 -59.5t63.5 -145.5v-296zM294 94q0 -33 31 -33t31 33t-31 33t-31 -33z" />
<glyph unicode="&#xe28;" horiz-adv-x="680" d="M330 348q-31 0 -31 -33t31 -33t31 33t-31 33zM455 0v90q0 26 3 108.5t3 192.5q0 33 -9 55q-37 -23 -62 -40q55 -28 55 -91q0 -48 -32.5 -76.5t-82.5 -28.5q-48 0 -80 27q-20 -44 -20 -147v-90h-161q10 69 10 115q0 41 -12 117t-12 159q0 99 75.5 164.5t199.5 65.5 q104 0 174 -47q59 65 136 71l25 -130q-52 0 -88 -17q28 -50 28 -107v-391h-150zM403 497q-28 14 -73 14q-131 0 -131 -120v-76q18 48 51 75q22 18 44 25q42 33 109 82z" />
<glyph unicode="&#xe29;" horiz-adv-x="710" d="M340 345q0 -26 25 -26t25 26t-25 26t-25 -26zM176 506q0 33 -31 33t-31 -33t31 -33t31 33zM444 302q12 3 21 3q3 0 8 0.5t7 0.5v294h150v-255q28 11 55 25l25 -75q-42 -17 -80 -27v-72q0 -93 -73 -155t-192 -62t-192 62t-73 155v164q0 23 14 44q-38 8 -61 35t-23 67 q0 48 32.5 76.5t82.5 28.5t82.5 -28.5t32.5 -76.5q0 -24 -5 -58.5t-5 -57.5v-194q0 -107 115 -107t115 107v46q-40 -2 -60 -2q-69 0 -107 27.5t-38 77.5q0 38 25.5 60.5t64.5 22.5t64.5 -22.5t25.5 -60.5q0 -24 -11 -43z" />
<glyph unicode="&#xe2a;" horiz-adv-x="650" d="M185 405l-150 12q12 84 82 144t188 60q99 0 171 -45q57 63 134 69l25 -130q-51 0 -85 -15q25 -45 25 -99v-401h-150v90q-11 58 -66 114t-124 56q-40 0 -40 -40q0 -12 -3 -21q49 -1 81 -29.5t32 -75.5q0 -48 -32.5 -76.5t-82.5 -28.5q-57 0 -96 35t-39 86v85q0 29 6.5 54 t22 51t48 42t78.5 18q41 36 170 134q-28 17 -75 17q-105 0 -120 -106zM221 94q0 33 -31 33t-31 -33t31 -33t31 33zM421 438q-62 -41 -125 -89q74 -22 129 -89v141q0 22 -4 37z" />
<glyph unicode="&#xe2b;" horiz-adv-x="660" d="M469 506q0 -33 31 -33t31 33t-31 33t-31 -33zM385 506q0 48 32.5 76.5t82.5 28.5t82.5 -28.5t32.5 -76.5q0 -62 -52 -90q32 -23 32 -56v-360h-150v353q-73 -27 -128 -104t-62 -165v-84h-150v360q0 23 14 44q-38 8 -61 35t-23 67q0 48 32.5 76.5t82.5 28.5t82.5 -28.5 t32.5 -76.5q0 -24 -5 -58.5t-5 -57.5v-77q66 90 153 126q-23 26 -23 67zM181 506q0 33 -31 33t-31 -33t31 -33t31 33z" />
<glyph unicode="&#xe2c;" horiz-adv-x="760" d="M520 305v85q0 25 13 43q-41 6 -67 33.5t-26 69.5q0 48 32.5 76.5t82.5 28.5q45 0 76.5 -23.5t37.5 -64.5q8 26 11 77l85 -10q-13 -120 -99 -169q0 -4 -0.5 -14.5t-0.5 -16.5v-420h-130l-150 315l-150 -315h-130v360q0 23 14 44q-38 8 -61 35t-23 67q0 48 32.5 76.5 t82.5 28.5t82.5 -28.5t32.5 -76.5q0 -24 -7.5 -58.5t-7.5 -57.5v-85q0 -25 -6 -73l106 233h35h35l106 -233q-6 48 -6 73zM586 536q0 33 -31 33t-31 -33t31 -33t31 33zM181 506q0 33 -31 33t-31 -33t31 -33t31 33z" />
<glyph unicode="&#xe2d;" horiz-adv-x="635" d="M185 405l-150 12q12 84 82 144t188 60q121 0 195.5 -62.5t74.5 -157.5v-209q0 -91 -70 -152t-185 -61t-185 61t-70 152v63q0 48 32.5 76.5t82.5 28.5t82.5 -28.5t32.5 -76.5q0 -40 -23.5 -67t-62.5 -35q11 -32 41.5 -48t69.5 -16q105 0 105 103v209q0 110 -120 110 q-105 0 -120 -106zM211 255q0 33 -31 33t-31 -33t31 -33t31 33z" />
<glyph unicode="&#xe2e;" horiz-adv-x="640" d="M206 255q0 33 -31 33t-31 -33t31 -33t31 33zM180 485q0 -25 110 -25q78 0 120 21q-35 49 -120 49q-55 0 -82.5 -12.5t-27.5 -32.5zM552 483q18 -34 18 -72v-219q0 -91 -70 -152t-185 -61t-185 61t-70 152v63q0 48 32.5 76.5t82.5 28.5t82.5 -28.5t32.5 -76.5 q0 -40 -23 -67t-61 -35q22 -64 109 -64q105 0 105 103v108q0 33 5 63.5t5 36.5q-58 -25 -140 -25q-109 0 -179.5 30t-70.5 80t63 93t182 43t192 -65q13 36 13 86l130 -12q0 -95 -68 -147z" />
<glyph unicode="&#xe2f;" horiz-adv-x="495" d="M130 87q92 10 123.5 27t31.5 51v165q0 21 5 38t13.5 35t11.5 30q-65 -43 -155 -43q-59 0 -97 32t-38 84q0 48 32.5 76.5t82.5 28.5t82.5 -28.5t32.5 -76.5q0 -19 -4 -31q62 30 94 119l65 6q16 -12 20.5 -41.5t4.5 -88.5v-305q0 -45 -24.5 -80t-67.5 -56t-89.5 -32.5 t-102.5 -17.5zM109 506q0 -33 31 -33t31 33t-31 33t-31 -33z" />
<glyph unicode="&#xe30;" horiz-adv-x="540" d="M129 460q0 -33 31 -33t31 33t-31 33t-31 -33zM129 160q0 -33 31 -33t31 33t-31 33t-31 -33zM50 427q-5 17 -5 33q0 48 32.5 76.5t82.5 28.5t82.5 -28.5t32.5 -76.5q0 -28 -12 -51q4 1 12 1h10q41 0 63 37t22 98l125 -15q0 -84 -53 -139.5t-152 -55.5h-75q-67 0 -110 25 t-55 67zM50 127q-5 17 -5 33q0 48 32.5 76.5t82.5 28.5t82.5 -28.5t32.5 -76.5q0 -28 -12 -51q4 1 12 1h10q41 0 63 37t22 98l125 -15q0 -84 -53 -139.5t-152 -55.5h-75q-67 0 -110 25t-55 67z" />
<glyph unicode="&#xe31;" d="M-70 886l110 -12q0 -82 -51 -131t-134 -49h-70q-70 0 -112.5 31t-42.5 85q0 42 28 67t72 25t72 -25t28 -67q0 -24 -12 -46h7h10q45 0 70 27t25 95zM-270 839q-28 0 -28 -29t28 -29t28 29t-28 29z" />
<glyph unicode="&#xe32;" horiz-adv-x="485" d="M0 462q9 63 63 111t147 48q97 0 153.5 -54.5t56.5 -130.5v-436h-150v436q0 75 -60 75q-51 0 -60 -61z" />
<glyph unicode="&#xe33;" horiz-adv-x="485" d="M0 462q9 63 63 111t147 48q97 0 153.5 -54.5t56.5 -130.5v-436h-150v436q0 75 -60 75q-51 0 -60 -61zM-65 780q0 -48 -32.5 -76.5t-82.5 -28.5t-82.5 28.5t-32.5 76.5t32.5 76.5t82.5 28.5t82.5 -28.5t32.5 -76.5zM-149 780q0 33 -31 33t-31 -33t31 -33t31 33z" />
<glyph unicode="&#xe34;" d="M-413 778l208 -37q-56 79 -140 79q-50 0 -68 -42zM-90 685l-10 -20l-440 70q0 65 47.5 115t142.5 50q53 0 99 -21t72.5 -47.5t48.5 -62.5t28.5 -52.5t11.5 -31.5z" />
<glyph unicode="&#xe35;" d="M-190 845v60l110 -20v-210l-15 -15l-445 70q0 64 46 114.5t134 50.5q107 0 182 -102q-12 34 -12 52zM-413 773l227 -41q-66 83 -159 83q-50 0 -68 -42z" />
<glyph unicode="&#xe36;" d="M-206 785q0 -33 31 -33t31 33t-31 33t-31 -33zM-412 775l125 -17q-3 12 -3 27q0 12 1 17q-24 13 -56 13q-49 0 -67 -40zM-540 730q0 64 46 114.5t134 50.5q56 0 101 -35q33 30 84 30q50 0 82.5 -28.5t32.5 -76.5t-32.5 -76.5t-82.5 -28.5q-39 0 -65 16z" />
<glyph unicode="&#xe37;" d="M-290 895v35l90 -20v-176l40 -8q-10 20 -10 39v140l90 -20v-210l-15 -15l-445 70q0 66 41.5 115.5t128.5 49.5q52 0 90 -30q-10 20 -10 30zM-414 773l182 -33q-20 34 -52.5 54.5t-70.5 20.5q-45 0 -59 -42z" />
<glyph unicode="&#xe38;" d="M-180 -121q-28 0 -28 -29t28 -29t28 29t-28 29zM-85 -245v-60h-100v40q0 13 6 23h-1q-44 0 -72 25t-28 67t28 67t72 25t72 -25t28 -67q0 -21 -2.5 -48.5t-2.5 -46.5z" />
<glyph unicode="&#xe39;" d="M-340 -121q-28 0 -28 -29t28 -29t28 29t-28 29zM-345 -242q-41 2 -68 27t-27 65q0 42 28 67t72 25t72 -25t28 -67q0 -20 -5 -39t-5 -26v-10q0 -20 35 -20t35 20v160h100v-170q0 -35 -36.5 -55t-98.5 -20q-130 0 -130 65v3z" />
<glyph unicode="&#xe3a;" d="M-245 -150q0 40 27 64t68 24t68 -24t27 -64t-27 -64t-68 -24t-68 24t-27 64z" />
<glyph unicode="&#xe3f;" horiz-adv-x="720" d="M330 464q39 5 67 33t28 78q0 95 -140 95q-36 0 -50 -1v-206q29 1 95 1zM501 440q164 -55 164 -205q0 -99 -73 -162.5t-197 -77.5v-115h-120v111l-200 9v780q89 8 200 9v111h120v-120q88 -18 141.5 -67.5t53.5 -122.5q0 -97 -89 -150zM235 113q42 -2 75 -2q189 0 189 124 q0 68 -50.5 93.5t-138.5 25.5q-33 0 -75 -2v-239z" />
<glyph unicode="&#xe40;" horiz-adv-x="330" d="M159 94q0 -33 31 -33t31 33t-31 33t-31 -33zM221 196q38 -8 61 -35t23 -67q0 -48 -32.5 -76.5t-82.5 -28.5t-82.5 28.5t-32.5 76.5q0 24 5 58.5t5 57.5v390h150v-360q0 -23 -14 -44z" />
<glyph unicode="&#xe41;" horiz-adv-x="630" d="M159 94q0 -33 31 -33t31 33t-31 33t-31 -33zM221 196q38 -8 61 -35t23 -67q0 -48 -32.5 -76.5t-82.5 -28.5t-82.5 28.5t-32.5 76.5q0 24 5 58.5t5 57.5v390h150v-360q0 -23 -14 -44zM459 94q0 -33 31 -33t31 33t-31 33t-31 -33zM521 196q38 -8 61 -35t23 -67 q0 -48 -32.5 -76.5t-82.5 -28.5t-82.5 28.5t-32.5 76.5q0 24 5 58.5t5 57.5v390h150v-360q0 -23 -14 -44z" />
<glyph unicode="&#xe42;" horiz-adv-x="380" d="M204 94q0 -33 31 -33t31 33t-31 33t-31 -33zM137 752q73 -12 108 -47.5t35 -104.5v-360q0 -23 -14 -44q38 -8 61 -35t23 -67q0 -48 -32.5 -76.5t-82.5 -28.5t-82.5 28.5t-32.5 76.5q0 24 5 58.5t5 57.5v390q0 58 -27 76.5t-108 18.5v35q0 78 53 131.5t147 53.5 q72 0 129 -49q4 10 6 14l15 29l110 -21v-6l-95 -118h-45q-41 51 -100 51q-30 0 -51 -15.5t-27 -47.5z" />
<glyph unicode="&#xe43;" horiz-adv-x="380" d="M200 838q25 -27 25 -68q0 -48 -32.5 -76.5t-82.5 -28.5t-82.5 28.5t-32.5 76.5q0 60 52 102.5t142 42.5q92 0 144 -44.5t52 -115.5q0 -40 -16.5 -74t-36 -54.5t-36 -51.5t-16.5 -65v-270q0 -23 -14 -44q38 -8 61 -35t23 -67q0 -48 -32.5 -76.5t-82.5 -28.5t-82.5 28.5 t-32.5 76.5q0 24 5 58.5t5 57.5v300q0 34 15 63.5t36 51t42.5 42t36.5 45.5t15 53q0 64 -75 73zM204 94q0 -33 31 -33t31 33t-31 33t-31 -33zM79 770q0 -33 31 -33t31 33t-31 33t-31 -33z" />
<glyph unicode="&#xe44;" horiz-adv-x="380" d="M-5 878v6l100 27l30 -61q12 -25 22 -54q4 6 11 17.5t12.5 20.5t9.5 16q37 61 105 61q54 0 79.5 -28.5t25.5 -62.5q0 -33 -17 -71t-38 -68t-38 -76.5t-17 -94.5v-270q0 -23 -14 -44q38 -8 61 -35t23 -67q0 -48 -32.5 -76.5t-82.5 -28.5t-82.5 28.5t-32.5 76.5q0 24 5 58.5 t5 57.5v300q0 38 24.5 87.5t54 88t54 76t24.5 53.5q0 7 -5 13.5t-12 6.5l-30 -40l-75 -105h-55zM204 94q0 -33 31 -33t31 33t-31 33t-31 -33z" />
<glyph unicode="&#xe45;" horiz-adv-x="485" d="M0 462q9 63 63 111t147 48q97 0 153.5 -54.5t56.5 -130.5v-646h-150v646q0 75 -60 75q-51 0 -60 -61z" />
<glyph unicode="&#xe46;" horiz-adv-x="590" d="M174 315q0 -33 31 -33t31 33t-31 33t-31 -33zM186 500q-28 -36 -31 -89q23 9 50 9q50 0 82.5 -28.5t32.5 -76.5t-32.5 -76.5t-82.5 -28.5q-78 0 -124 55t-46 135q0 56 16.5 100.5t41.5 68t49 35t43 11.5l95 -75l95 75q19 0 43 -11.5t49 -35t41.5 -68t16.5 -100.5v-610 h-150v610q0 50 -21 86l-64 -46h-10h-10z" />
<glyph unicode="&#xe47;" d="M-450 785q0 58 41 89t114 31h105q64 0 95 25l35 -65q-42 -30 -125 -30h-110q-65 0 -65 -50q0 -37 36 -47l34 57h10l27 -18q21 49 83 49q39 0 64.5 -22.5t25.5 -60.5t-25.5 -60.5t-64.5 -22.5q-34 0 -58 18t-30 48l-37 -61q-73 0 -114 31t-41 89zM-170 769q-25 0 -25 -26 t25 -26t25 26t-25 26z" />
<glyph unicode="&#xe48;" d="M-90 945l-110 20v175h110v-195z" />
<glyph unicode="&#xe49;" d="M-303 1070q0 -19 18 -19t18 19t-18 19t-18 -19zM-258 1015q-13 -5 -27 -5q-28 0 -46.5 16.5t-18.5 43.5t18.5 43.5t46.5 16.5q40 0 63 -23t27 -62q2 -26 3 -37q57 20 57 122l105 -15q0 -82 -53.5 -123.5t-146.5 -41.5h-25v15q0 8 -3 50z" />
<glyph unicode="&#xe4a;" d="M-230 1021q-18 0 -18 -19t18 -19t18 19t-18 19zM-230 1062q28 0 46.5 -16.5t18.5 -43.5t-18.5 -43.5t-46.5 -16.5q-49 0 -69.5 27t-20.5 63q0 53 31 79t54 26l50 -25l50 25q20 0 46 -24t29 -73q10 31 15 72l75 -15q-9 -63 -53 -106.5t-117 -45.5l-10 37q25 21 25 50 q0 33 -19 48l-38 -18h-3h-3l-41 20q-10 -7 -16 -22q10 2 15 2z" />
<glyph unicode="&#xe4b;" d="M-280 1015v60h85v65h100v-65h85v-60h-85v-70l-100 20v50h-85z" />
<glyph unicode="&#xe4c;" d="M-180 1056q-28 0 -28 -29t28 -29t28 29t-28 29zM-90 1181l105 -12q0 -40 -27 -67t-77 -34q9 -18 9 -41q0 -42 -28 -67t-72 -25q-48 0 -76.5 26.5t-28.5 65.5q0 42 26.5 70.5t78.5 28.5h25q34 0 49.5 12t15.5 43z" />
<glyph unicode="&#xe4d;" d="M-65 780q0 -48 -32.5 -76.5t-82.5 -28.5t-82.5 28.5t-32.5 76.5t32.5 76.5t82.5 28.5t82.5 -28.5t32.5 -76.5zM-149 780q0 33 -31 33t-31 -33t31 -33t31 33z" />
<glyph unicode="&#xe4e;" d="M-370 762q0 34 26.5 60t72.5 26h7q2 33 24 57.5t66 24.5q46 0 79 -33l35 -37l-52 -46l-47 47q-4 4 -7.5 6.5t-5.5 2.5h-2q-2 0 -6.5 -2t-10 -9.5t-5.5 -17.5q0 -15 7 -25l32 -35l-52 -46l-47 47l-15 9q-2 0 -6 -2t-8.5 -9.5t-4.5 -17.5q0 -16 13 -29l37 -35l-54 -48 l-47 47q-29 29 -29 65z" />
<glyph unicode="&#xe4f;" horiz-adv-x="660" d="M299 300q0 -33 31 -33t31 33t-31 33t-31 -33zM215 300q0 48 32.5 76.5t82.5 28.5t82.5 -28.5t32.5 -76.5t-32.5 -76.5t-82.5 -28.5t-82.5 28.5t-32.5 76.5zM330 40q-125 0 -200 75t-75 185t75 185t200 75t200 -75t75 -185t-75 -185t-200 -75zM330 120q78 0 126.5 48 t48.5 132t-48.5 132t-126.5 48t-126.5 -48t-48.5 -132t48.5 -132t126.5 -48z" />
<glyph unicode="&#xe50;" horiz-adv-x="720" d="M50 287v26q0 56 15.5 107t49.5 98t97 75t148 28t148 -28t97 -75t49.5 -98t15.5 -107v-26q0 -56 -15.5 -107t-49.5 -98t-97 -75t-148 -28t-148 28t-97 75t-49.5 98t-15.5 107zM360 89q77 0 118.5 51t41.5 147v26q0 96 -41.5 147t-118.5 51t-118.5 -51t-41.5 -147v-26 q0 -96 41.5 -147t118.5 -51z" />
<glyph unicode="&#xe51;" horiz-adv-x="720" d="M50 330q0 51 17 100t52 93t97.5 71t143.5 27q85 0 148 -28.5t97 -76t49.5 -99t15.5 -107.5v-20q0 -78 -42 -150.5t-126 -124.5t-190 -60l-14 110q89 6 157.5 73t68.5 152v20q0 97 -42.5 150t-121.5 53q-77 0 -123.5 -50t-46.5 -133q0 -54 29 -79.5t66 -25.5q17 0 37 5 q-35 9 -56 35.5t-21 64.5q0 48 32.5 76.5t82.5 28.5t82.5 -28.5t32.5 -76.5q0 -79 -56 -137t-156 -58q-99 0 -156 61t-57 134zM329 330q0 -33 31 -33t31 33t-31 33t-31 -33z" />
<glyph unicode="&#xe52;" horiz-adv-x="810" d="M65 205v545h145v-545q0 -45 27 -70t53 -25h245q26 0 53 25t27 70v195q0 54 -24 91l-71 -51h-10h-10l-84 60q-28 -36 -31 -89q23 9 50 9q50 0 82.5 -28.5t32.5 -76.5t-32.5 -76.5t-82.5 -28.5q-78 0 -124 55t-46 135q0 56 16.5 100.5t41.5 68t49 35t43 11.5l95 -75l95 75 q19 0 43 -11.5t49 -35t41.5 -68t16.5 -100.5v-195q0 -79 -59.5 -142t-165.5 -63h-240q-106 0 -165.5 63t-59.5 142zM404 315q0 -33 31 -33t31 33t-31 33t-31 -33z" />
<glyph unicode="&#xe53;" horiz-adv-x="720" d="M60 233v183q0 28 4.5 55t17 55t31.5 48.5t50.5 33.5t71.5 13q81 0 125 -73q44 73 125 73q40 0 71.5 -13t50.5 -33.5t31.5 -48.5t17 -55t4.5 -55v-231q0 -71 -17 -116.5t-63 -79.5l-110 75q14 11 22 21t15.5 36t7.5 64v231q0 95 -41 95q-21 0 -32.5 -27t-11.5 -68v-191 h-140v191q0 41 -11.5 68t-32.5 27q-41 0 -41 -95v-196q0 -15 -2 -22q6 1 17 1q50 0 82.5 -28.5t32.5 -76.5t-32.5 -76.5t-82.5 -28.5q-64 0 -107 41t-49 105zM251 94q0 33 -31 33t-31 -33t31 -33t31 33z" />
<glyph unicode="&#xe54;" horiz-adv-x="720" d="M50 300v15q0 118 79.5 205t225.5 95q62 3 112 9q52 6 64 13q29 16 37 94q1 10 2 22l150 -15q-8 -110 -66 -159.5t-161 -62.5q-51 -7 -128 -11q-73 -4 -119 -54t-46 -136v-15q0 -88 43.5 -139t116.5 -51h39q-49 55 -49 135q0 72 41.5 123.5t118.5 51.5q50 0 82.5 -28.5 t32.5 -76.5t-32.5 -76.5t-82.5 -28.5q-26 0 -49 9q6 -50 44.5 -79.5t94.5 -29.5h50v-110h-290q-81 0 -143.5 27.5t-97.5 73t-52 96t-17 103.5zM479 315q0 -33 31 -33t31 33t-31 33t-31 -33z" />
<glyph unicode="&#xe55;" horiz-adv-x="720" d="M50 300v15q0 97 56 172.5t161 103.5q-17 25 -17 59q0 48 32.5 76.5t82.5 28.5t82.5 -28.5t32.5 -76.5q0 -22 -7 -39q36 5 52.5 13.5t28.5 38t16 90.5l150 -15q-8 -110 -66 -159.5t-161 -62.5q-18 -3 -45 -3q-44 0 -73 7q-81 -14 -128 -66t-47 -139v-15q0 -88 43.5 -139 t116.5 -51h39q-49 55 -49 135q0 72 41.5 123.5t118.5 51.5q50 0 82.5 -28.5t32.5 -76.5t-32.5 -76.5t-82.5 -28.5q-26 0 -49 9q6 -50 44.5 -79.5t94.5 -29.5h50v-110h-290q-81 0 -143.5 27.5t-97.5 73t-52 96t-17 103.5zM334 650q0 -33 31 -33t31 33t-31 33t-31 -33z M479 315q0 -33 31 -33t31 33t-31 33t-31 -33z" />
<glyph unicode="&#xe56;" horiz-adv-x="720" d="M50 738l150 15l14 -190q58 58 161 58q76 0 135 -28.5t92.5 -74.5t50.5 -98.5t17 -106.5v-26q0 -56 -15.5 -107t-48.5 -98t-94 -75t-142 -28q-136 0 -208 53t-72 128q0 48 32.5 76.5t82.5 28.5t82.5 -28.5t32.5 -76.5q0 -41 -26 -70q32 -5 66 -5q160 0 160 202v26 q0 94 -40 143.5t-110 49.5q-34 0 -62 -11t-45 -29t-25 -31t-13 -25l-115 10zM236 160q0 33 -31 33t-31 -33t31 -33t31 33z" />
<glyph unicode="&#xe57;" horiz-adv-x="905" d="M60 233v183q0 28 4.5 55t17 55t31.5 48.5t50.5 33.5t71.5 13q81 0 125 -73q44 73 125 73q50 0 84.5 -19t51 -51.5t23 -65t6.5 -69.5v-231q0 -53 -13 -92q68 35 68 102v555h135v-555q0 -92 -73.5 -149t-206.5 -57l-90 75q14 11 22 21t15.5 36t7.5 64v231q0 95 -41 95 q-21 0 -32.5 -27t-11.5 -68v-191h-140v191q0 41 -11.5 68t-32.5 27q-41 0 -41 -95v-196q0 -15 -2 -22q6 1 17 1q50 0 82.5 -28.5t32.5 -76.5t-32.5 -76.5t-82.5 -28.5q-64 0 -107 41t-49 105zM251 94q0 33 -31 33t-31 -33t31 -33t31 33z" />
<glyph unicode="&#xe58;" horiz-adv-x="750" d="M50 300v15q0 118 79.5 205t225.5 95q62 3 112 9q52 6 64 13q29 16 37 94q1 10 2 22l150 -15q-8 -110 -66 -159.5t-161 -62.5q-51 -7 -128 -11q-73 -4 -119 -54t-46 -136v-15q0 -64 25 -149l75 119h110q0 -95 20 -135.5t65 -40.5q77 0 84 118q-16 -2 -24 -2 q-50 0 -82.5 28.5t-32.5 76.5t32.5 76.5t82.5 28.5q74 0 107 -52t33 -128q0 -46 -9 -86.5t-29.5 -79.5t-62 -62t-99.5 -23q-135 0 -176 137l-79 -126h-125v29q0 31 -32.5 118t-32.5 153zM524 315q0 -33 31 -33t31 33t-31 33t-31 -33z" />
<glyph unicode="&#xe59;" horiz-adv-x="720" d="M155 450q0 67 50.5 111t133.5 53q21 2 48 4t45.5 3.5t24.5 2.5q52 6 64 13q29 16 37 94q1 10 2 22l150 -15q-8 -110 -65.5 -158t-161.5 -61q-15 -2 -65 -4.5t-72 -5.5q-56 -7 -56 -64q0 -21 8 -33q27 3 57 3h200v-110h-200q-165 0 -165 -110q0 -111 165 -111q77 0 107 10 q-22 27 -22 66q0 48 32.5 76.5t82.5 28.5t82.5 -28.5t32.5 -76.5q0 -75 -80 -128t-235 -53q-157 0 -236 62t-79 154q0 61 34.5 111.5t104.5 78.5q-24 27 -24 65zM524 160q0 -33 31 -33t31 33t-31 33t-31 -33z" />
<glyph unicode="&#xe5a;" horiz-adv-x="675" d="M605 0h-130v600h130v-600zM130 87q92 10 123.5 27t31.5 51v165q0 21 5 38t13.5 35t11.5 30q-65 -43 -155 -43q-59 0 -97 32t-38 84q0 48 32.5 76.5t82.5 28.5t82.5 -28.5t32.5 -76.5q0 -19 -4 -31q62 30 94 119l45 6q16 -12 20.5 -41.5t4.5 -88.5v-305q0 -159 -264 -186z M109 506q0 -33 31 -33t31 33t-31 33t-31 -33z" />
<glyph unicode="&#xe5b;" horiz-adv-x="900" d="M215 300q0 48 32.5 76.5t82.5 28.5t82.5 -28.5t32.5 -76.5t-32.5 -76.5t-82.5 -28.5t-82.5 28.5t-32.5 76.5zM299 300q0 -33 31 -33t31 33t-31 33t-31 -33zM55 300q0 110 75 185t200 75v-80q-78 0 -126.5 -48t-48.5 -132t48.5 -132t126.5 -48t126.5 48t48.5 132 q0 41 -13 77t-33 56l71 50q33 -36 51 -83l73 -150l35 180l55 6l61 -111h80v-50h-110l-40 65l-38 -194l-64 -6l-45 93q-20 -86 -87 -139.5t-171 -53.5q-125 0 -200 75t-75 185z" />
<glyph unicode="&#xe81;" horiz-adv-x="690" d="M196 506q0 33 -31 33t-31 -33t31 -33t31 33zM196 94q0 33 -31 33t-31 -33t31 -33t31 33zM279 522q41 43 82.5 68.5t93.5 25.5q86 0 130.5 -62t44.5 -148v-406h-150v406q0 100 -60 100q-24 0 -47.5 -11.5t-58 -39t-44.5 -34.5q-2 -18 -2 -31v-90v-90q0 -23 6 -57.5 t6 -58.5q0 -48 -32.5 -76.5t-82.5 -28.5t-82.5 28.5t-32.5 76.5q0 40 23 67t61 35q-14 21 -14 44v60v60q0 23 14 44q-38 8 -61 35t-23 67q0 48 32.5 76.5t82.5 28.5q45 0 76.5 -24t37.5 -65z" />
<glyph unicode="&#xe82;" horiz-adv-x="625" d="M191 450q0 33 -31 33t-31 -33t31 -33t31 33zM275 450q0 -48 -32.5 -76.5t-82.5 -28.5t-82.5 28.5t-32.5 76.5q0 73 73.5 122t186.5 49q115 0 187.5 -52.5t72.5 -133.5q0 -31 -11.5 -57.5t-24.5 -42.5t-39 -33t-38 -23t-38 -18q-36 -16 -153 -66q-37 -16 -54 -29t-17 -33 q0 -49 60 -49q38 0 72.5 12t67.5 37.5t46 37.5t39 39h75l75 -198v-6l-115 -21l-15 65q-5 22 -8 47q-114 -118 -242 -118q-92 0 -146 42.5t-54 116.5q0 36 16.5 65t47 49.5t44 27t36.5 16.5q69 29 151 66q1 1 13 6t16 7t14 7.5t15 10t11 11t8.5 14.5t2.5 17q0 44 -33 65 t-82 21q-41 0 -56 -1q26 -29 26 -70z" />
<glyph unicode="&#xe84;" horiz-adv-x="670" d="M50 426q0 79 77 137t203 58q129 0 204.5 -61.5t75.5 -155.5v-404h-148v404q0 107 -132 107q-63 0 -99 -23t-36 -68q0 -33 34 -52t101 -19v-89q-75 0 -113.5 -17t-50.5 -55q25 11 54 11q50 0 82.5 -28.5t32.5 -76.5t-32.5 -76.5t-82.5 -28.5q-78 0 -124 46t-46 114 q0 51 26.5 92.5t68.5 65.5q-95 35 -95 119zM251 94q0 33 -31 33t-31 -33t31 -33t31 33z" />
<glyph unicode="&#xe87;" horiz-adv-x="520" d="M109 450q0 -33 31 -33t31 33t-31 33t-31 -33zM218 530q37 -29 37 -80q0 -48 -32.5 -76.5t-82.5 -28.5t-82.5 28.5t-32.5 76.5q0 69 60.5 120t154.5 51q100 0 157.5 -54t57.5 -131v-482q0 -45 -15.5 -84.5t-58 -70t-106.5 -30.5q-50 0 -90.5 19.5t-67.5 53.5t-44 71.5 t-28 80.5l135 26q13 -52 33 -86t35.5 -44.5t26.5 -10.5q35 0 35 75v487q0 90 -75 90q-3 0 -8.5 -0.5t-8.5 -0.5z" />
<glyph unicode="&#xe88;" horiz-adv-x="590" d="M221 255q0 33 -31 33t-31 -33t31 -33t31 33zM15 424q11 80 78.5 138.5t181.5 58.5q116 0 188 -60.5t72 -151.5q0 -70 -32.5 -177.5t-32.5 -152.5v-25q0 -27 -25 -43t-70 -16l-70 5q0 112 -30 181q-33 -31 -85 -31q-50 0 -82.5 28.5t-32.5 76.5t32.5 76.5t82.5 28.5 q38 0 68 -16.5t49 -45t31.5 -60.5t19.5 -70q0 3 16 95t16 146q0 102 -115 102q-47 0 -77.5 -24.5t-37.5 -72.5z" />
<glyph unicode="&#xe8a;" horiz-adv-x="625" d="M655 -184l-120 -42q-26 40 -50.5 108.5t-24.5 147.5q0 24 3 43q-102 -94 -218 -94q-92 0 -146 42.5t-54 116.5q0 36 16.5 65t47 49.5t44 27t36.5 16.5q69 29 151 66q1 1 13 6t16 7t14 7.5t15 10t11 11t8.5 14.5t2.5 17q0 44 -33 65t-82 21q-41 0 -56 -1q26 -29 26 -70 q0 -48 -32.5 -76.5t-82.5 -28.5t-82.5 28.5t-32.5 76.5q0 73 73.5 122t186.5 49q115 0 187.5 -52.5t72.5 -133.5q0 -31 -11.5 -57.5t-24.5 -42.5t-39 -33t-38 -23t-38 -18q-36 -16 -153 -66q-37 -16 -54 -29t-17 -33q0 -49 60 -49q38 0 72.5 12t67.5 37.5t46 37.5t39 39 l105 -15v-110q0 -65 13.5 -121t26 -80.5t35.5 -61.5v-6zM191 450q0 33 -31 33t-31 -33t31 -33t31 33z" />
<glyph unicode="&#xe8d;" horiz-adv-x="670" d="M50 174q0 84 95 119q-42 24 -68.5 65.5t-26.5 92.5q0 68 46 114t124 46q50 0 82.5 -28.5t32.5 -76.5t-32.5 -76.5t-82.5 -28.5q-29 0 -54 11q12 -38 50.5 -55t113.5 -17v-89q-67 0 -101 -19t-34 -52q0 -45 36 -68t99 -23q132 0 132 107v404h148v-404q0 -94 -75.5 -155.5 t-204.5 -61.5q-126 0 -203 58t-77 137zM251 506q0 33 -31 33t-31 -33t31 -33t31 33z" />
<glyph unicode="&#xe94;" horiz-adv-x="665" d="M256 94q0 33 -31 33t-31 -33t31 -33t31 33zM188 194q18 5 37 5q50 0 82.5 -28.5t32.5 -76.5t-32.5 -76.5t-82.5 -28.5q-78 0 -124 46t-46 114v242q0 99 75.5 164.5t199.5 65.5t199.5 -65.5t75.5 -164.5v-391h-147v391q0 120 -128 120t-128 -120v-151q0 -24 -14 -46z" />
<glyph unicode="&#xe95;" horiz-adv-x="685" d="M256 94q0 33 -31 33t-31 -33t31 -33t31 33zM625 466v-466h-147v466q0 45 -38 45q-14 0 -25 -10.5t-15 -29.5v-111h-120v111q-4 19 -15 29.5t-25 10.5q-38 0 -38 -45v-226q0 -24 -14 -46q18 5 37 5q50 0 82.5 -28.5t32.5 -76.5t-32.5 -76.5t-82.5 -28.5q-78 0 -124 46 t-46 114v317q0 65 41 110t119 45q74 0 125 -58q51 58 125 58q78 0 119 -45t41 -110z" />
<glyph unicode="&#xe96;" horiz-adv-x="695" d="M179 94q0 -33 31 -33t31 33t-31 33t-31 -33zM201 506q0 33 -31 33t-31 -33t31 -33t31 33zM255 408q-2 -12 -2 -18v-90v-60q0 -23 -14 -44q39 -8 62.5 -35t23.5 -67q0 -48 -32.5 -76.5t-82.5 -28.5t-82.5 28.5t-32.5 76.5q0 24 5 58.5t5 57.5v90v60q0 27 21 48 q-32 11 -51.5 36.5t-19.5 61.5q0 48 32.5 76.5t82.5 28.5q45 0 76.5 -24t37.5 -65q41 43 82.5 68.5t93.5 25.5q86 0 130.5 -62t44.5 -148v-616h-150v616q0 100 -60 100q-27 0 -55.5 -16t-62 -43.5t-52.5 -38.5z" />
<glyph unicode="&#xe97;" horiz-adv-x="760" d="M84 149v151q0 51 48 103q-41 6 -66.5 33.5t-25.5 69.5q0 48 32.5 76.5t82.5 28.5t82.5 -28.5t32.5 -76.5q0 -36 -20.5 -98t-20.5 -108v-156q0 -60 48 -60q25 0 40 12.5t15 47.5v307q0 69 47 117t133 48q90 0 139 -48t49 -117v-451h-145v456q0 36 -11.5 48t-31.5 12 q-24 0 -37 -12t-13 -48v-307q0 -68 -48.5 -116.5t-136.5 -48.5q-91 0 -142 48.5t-51 116.5zM186 506q0 33 -31 33t-31 -33t31 -33t31 33z" />
<glyph unicode="&#xe99;" horiz-adv-x="680" d="M196 506q0 33 -31 33t-31 -33t31 -33t31 33zM259 86q-22 -52 -73.5 -76t-95.5 -26l-30 96q60 8 60 63v217q0 23 14 44q-38 8 -61 35t-23 67q0 48 32.5 76.5t82.5 28.5t82.5 -28.5t32.5 -76.5q0 -24 -5 -58.5t-5 -57.5v-174q22 -55 58.5 -88.5t76.5 -33.5q11 0 20.5 3.5 t20.5 12t17.5 27.5t6.5 47v416h150v-406q0 -86 -44.5 -148t-130.5 -62q-116 0 -186 102z" />
<glyph unicode="&#xe9a;" horiz-adv-x="690" d="M80 196v104q0 52 49 103q-40 7 -64.5 34.5t-24.5 68.5q0 48 32.5 76.5t82.5 28.5t82.5 -28.5t32.5 -76.5q0 -36 -20 -98t-20 -108v-104q0 -107 125 -107t125 107v404h150v-404q0 -93 -76.5 -155t-198.5 -62t-198.5 62t-76.5 155zM186 506q0 33 -31 33t-31 -33t31 -33 t31 33z" />
<glyph unicode="&#xe9b;" horiz-adv-x="695" d="M80 196v104q0 52 49 103q-40 7 -64.5 34.5t-24.5 68.5q0 48 32.5 76.5t82.5 28.5t82.5 -28.5t32.5 -76.5q0 -36 -20 -98t-20 -108v-104q0 -107 125 -107t125 107v614h150v-614q0 -93 -76.5 -155t-198.5 -62t-198.5 62t-76.5 155zM186 506q0 33 -31 33t-31 -33t31 -33 t31 33z" />
<glyph unicode="&#xe9c;" horiz-adv-x="790" d="M261 506q0 33 -31 33t-31 -33t31 -33t31 33zM621 536q0 33 -31 33t-31 -33t31 -33t31 33zM700 420v-286q0 -65 -45 -110t-130 -45q-89 0 -145 67q-56 -67 -145 -67q-85 0 -130 45t-45 110v317q0 68 46 114t124 46q50 0 82.5 -28.5t32.5 -76.5t-32.5 -76.5t-82.5 -28.5 q-19 0 -37 5q14 -22 14 -46v-226q0 -24 16.5 -34.5t36.5 -10.5q25 0 40 14.5t15 40.5v186h130v-186q0 -26 15 -40.5t40 -14.5q20 0 36.5 10.5t16.5 34.5v256q0 25 13 43q-41 7 -66 34t-25 69q0 48 32.5 76.5t82.5 28.5q45 0 76.5 -23.5t37.5 -64.5q8 26 11 77l85 -10 q-13 -120 -99 -169q0 -4 -0.5 -14.5t-0.5 -16.5z" />
<glyph unicode="&#xe9d;" horiz-adv-x="765" d="M261 506q0 33 -31 33t-31 -33t31 -33t31 33zM700 810v-676q0 -65 -45 -110t-130 -45q-89 0 -145 67q-56 -67 -145 -67q-85 0 -130 45t-45 110v317q0 68 46 114t124 46q50 0 82.5 -28.5t32.5 -76.5t-32.5 -76.5t-82.5 -28.5q-19 0 -37 5q14 -22 14 -46v-226 q0 -24 16.5 -34.5t36.5 -10.5q25 0 40 14.5t15 40.5v186h130v-186q0 -26 15 -40.5t40 -14.5q20 0 36.5 10.5t16.5 34.5v676h147z" />
<glyph unicode="&#xe9e;" horiz-adv-x="760" d="M186 506q0 33 -31 33t-31 -33t31 -33t31 33zM553 600h147v-466q0 -64 -44 -109.5t-126 -45.5q-83 0 -140 67q-57 -67 -140 -67q-82 0 -126 45.5t-44 109.5v166q0 52 49 103q-40 7 -64.5 34.5t-24.5 68.5q0 48 32.5 76.5t82.5 28.5t82.5 -28.5t32.5 -76.5q0 -36 -21.5 -98 t-21.5 -108v-166q0 -24 15 -34.5t33 -10.5q21 0 35.5 15t14.5 40v186h130v-186q0 -25 14.5 -40t35.5 -15q18 0 33 10.5t15 34.5v466z" />
<glyph unicode="&#xe9f;" horiz-adv-x="765" d="M186 506q0 33 -31 33t-31 -33t31 -33t31 33zM553 810h147v-676q0 -64 -44 -109.5t-126 -45.5q-83 0 -140 67q-57 -67 -140 -67q-82 0 -126 45.5t-44 109.5v166q0 52 49 103q-40 7 -64.5 34.5t-24.5 68.5q0 48 32.5 76.5t82.5 28.5t82.5 -28.5t32.5 -76.5q0 -36 -21.5 -98 t-21.5 -108v-166q0 -24 15 -34.5t33 -10.5q21 0 35.5 15t14.5 40v186h130v-186q0 -25 14.5 -40t35.5 -15q18 0 33 10.5t15 34.5v676z" />
<glyph unicode="&#xea1;" horiz-adv-x="670" d="M186 94q0 33 -31 33t-31 -33t31 -33t31 33zM267 69q-8 -37 -38.5 -58.5t-73.5 -21.5q-50 0 -82.5 28.5t-32.5 76.5q0 40 23 67t61 35q-14 21 -14 44v360h148v-390q0 -22 3 -39q6 -5 32.5 -25t37.5 -27.5t31 -16t38 -8.5q60 0 60 100v406h150v-406q0 -86 -44.5 -148 t-130.5 -62q-83 0 -168 85z" />
<glyph unicode="&#xea2;" horiz-adv-x="675" d="M50 174q0 84 95 119q-42 24 -68.5 65.5t-26.5 92.5q0 68 46 114t124 46q50 0 82.5 -28.5t32.5 -76.5t-32.5 -76.5t-82.5 -28.5q-29 0 -54 11q12 -38 50.5 -55t113.5 -17v-89q-67 0 -101 -19t-34 -52q0 -45 36 -68t99 -23q132 0 132 107v614h148v-614q0 -94 -75.5 -155.5 t-204.5 -61.5q-126 0 -203 58t-77 137zM251 506q0 33 -31 33t-31 -33t31 -33t31 33z" />
<glyph unicode="&#xea3;" horiz-adv-x="610" d="M191 150q0 33 -31 33t-31 -33t31 -33t31 33zM45 150q0 48 32.5 76.5t82.5 28.5t82.5 -28.5t32.5 -76.5q0 -41 -26 -70q15 -1 56 -1q49 0 82 21t33 65q0 9 -2.5 17t-8.5 14.5t-11 11t-15 10t-14 7.5t-16 7t-13 6q-82 37 -151 66q-23 10 -36.5 16.5t-44 27t-47 49.5 t-16.5 65q0 67 71.5 113t188.5 46q108 0 182 -49t88 -102l-140 -18q-6 22 -38.5 43t-91.5 21q-43 0 -70 -8.5t-36 -18.5t-9 -22q0 -20 17 -33t54 -29q117 -50 153 -66q26 -12 38 -18t38 -23t39 -33t24.5 -42.5t11.5 -57.5q0 -81 -72.5 -133.5t-187.5 -52.5q-113 0 -186.5 49 t-73.5 122z" />
<glyph unicode="&#xea5;" horiz-adv-x="655" d="M55 110v40q0 29 8 56t26 52.5t53 41t83 15.5q145 0 235 -150q-10 43 -10 75v157q0 114 -130 114q-110 0 -125 -109l-150 10q12 85 83.5 147t191.5 62q123 0 199 -63.5t76 -160.5v-322q0 -31 -27 -55.5t-73 -24.5l-65 5q-5 26 -14.5 53t-26.5 58t-39 54.5t-55 39t-70 15.5 q-31 0 -41 -21h6q50 0 82.5 -28.5t32.5 -76.5t-32.5 -76.5t-82.5 -28.5q-57 0 -96 35t-39 86zM221 94q0 33 -31 33t-31 -33t31 -33t31 33z" />
<glyph unicode="&#xea7;" horiz-adv-x="600" d="M20 424q11 80 78.5 138.5t181.5 58.5q116 0 188 -60.5t72 -151.5v-225q0 -89 -69 -147t-181 -58q-110 0 -180 49.5t-70 121.5q0 48 32.5 76.5t82.5 28.5t82.5 -28.5t32.5 -76.5q0 -37 -20 -63q16 -3 40 -3q100 0 100 100v225q0 102 -110 102q-97 0 -110 -97zM186 150 q0 33 -31 33t-31 -33t31 -33t31 33z" />
<glyph unicode="&#xeaa;" horiz-adv-x="665" d="M55 110v40q0 29 8 56t26 52.5t53 41t83 15.5q145 0 235 -150q-10 43 -10 75v79q0 17 2 41.5t2 31.5q-69 -37 -154 -37q-108 0 -181.5 35t-73.5 85t68 98t187 48q126 0 202 -67q13 32 13 88l130 -12q0 -96 -71 -149q21 -36 21 -70v-336q0 -31 -27 -55.5t-73 -24.5l-65 5 q-5 26 -14.5 53t-26.5 58t-39 54.5t-55 39t-70 15.5q-31 0 -41 -21h6q50 0 82.5 -28.5t32.5 -76.5t-32.5 -76.5t-82.5 -28.5q-57 0 -96 35t-39 86zM221 94q0 33 -31 33t-31 -33t31 -33t31 33zM185 475q0 -7 5.5 -14.5t33.5 -16.5t76 -9q84 0 137 39q-42 61 -137 61 q-54 0 -84.5 -19.5t-30.5 -40.5z" />
<glyph unicode="&#xeab;" horiz-adv-x="800" d="M84 149v151q0 51 48 103q-41 6 -66.5 33.5t-25.5 69.5q0 48 32.5 76.5t82.5 28.5t82.5 -28.5t32.5 -76.5q0 -36 -20.5 -98t-20.5 -108v-156q0 -35 15.5 -47.5t42.5 -12.5q30 0 47.5 12t17.5 48v186q0 34 37 73q-40 7 -64.5 34.5t-24.5 68.5q0 48 32.5 76.5t82.5 28.5 q75 0 104 -57q51 57 101 57q120 0 120 -180v-431h-145v410q0 48 -6.5 66.5t-23.5 18.5q-22 0 -41 -28q-5 -15 -23.5 -50t-18.5 -57v-211q0 -69 -50.5 -117t-144.5 -48q-98 0 -150.5 48t-52.5 117zM186 506q0 33 -31 33t-31 -33t31 -33t31 33zM446 506q0 33 -31 33t-31 -33 t31 -33t31 33z" />
<glyph unicode="&#xead;" horiz-adv-x="640" d="M191 150q0 33 -31 33t-31 -33t31 -33t31 33zM443 371q-60 -31 -148 -31q-113 0 -186.5 37t-73.5 88q0 53 68 104.5t192 51.5q135 0 212.5 -59t77.5 -151v-215q0 -91 -74 -154t-196 -63q-118 0 -194 49t-76 122q0 48 32.5 76.5t82.5 28.5t82.5 -28.5t32.5 -76.5 q0 -41 -25 -69q40 -2 65 -2q48 0 86.5 31.5t38.5 85.5v100q0 21 3 75zM434 460q-17 34 -54 54.5t-85 20.5q-53 0 -86.5 -24t-33.5 -46q0 -8 5 -16t34.5 -18.5t80.5 -10.5q94 0 139 40z" />
<glyph unicode="&#xeae;" horiz-adv-x="625" d="M191 150q0 33 -31 33t-31 -33t31 -33t31 33zM275 150q0 -41 -26 -70q15 -1 56 -1q49 0 82 21t33 65q0 9 -2.5 17t-8.5 14.5t-11 11t-15 10t-14 7.5t-16 7t-13 6q-82 37 -151 66q-23 10 -36.5 16.5t-44 27t-47 49.5t-16.5 65q0 74 54 116.5t146 42.5q128 0 242 -118 q3 25 8 47l15 65l115 -21v-6l-75 -198h-75q-26 27 -39 39t-46 37.5t-67.5 37.5t-72.5 12q-60 0 -60 -49q0 -20 17 -33t54 -29q117 -50 153 -66q26 -12 38 -18t38 -23t39 -33t24.5 -42.5t11.5 -57.5q0 -81 -72.5 -133.5t-187.5 -52.5q-113 0 -186.5 49t-73.5 122 q0 48 32.5 76.5t82.5 28.5t82.5 -28.5t32.5 -76.5z" />
<glyph unicode="&#xeaf;" horiz-adv-x="600" d="M180 84q215 21 215 119v157q0 19 3 40q-75 -115 -198 -115q-48 0 -83 15.5t-53 41t-26 52.5t-8 56v40q0 51 39 86t96 35q50 0 82.5 -28.5t32.5 -76.5t-32.5 -76.5t-82.5 -28.5h-6q10 -21 41 -21q46 0 82 22.5t57 59.5t32.5 69.5t18.5 68.5q24 5 65 5t63 -24t22 -56v-322 q0 -94 -94 -155t-236 -69zM196 506q0 33 -31 33t-31 -33t31 -33t31 33z" />
<glyph unicode="&#xeb0;" horiz-adv-x="540" d="M129 460q0 -33 31 -33t31 33t-31 33t-31 -33zM129 160q0 -33 31 -33t31 33t-31 33t-31 -33zM50 427q-5 17 -5 33q0 48 32.5 76.5t82.5 28.5t82.5 -28.5t32.5 -76.5q0 -28 -12 -51q4 1 12 1h10q41 0 63 37t22 98l125 -15q0 -84 -53 -139.5t-152 -55.5h-75q-67 0 -110 25 t-55 67zM50 127q-5 17 -5 33q0 48 32.5 76.5t82.5 28.5t82.5 -28.5t32.5 -76.5q0 -28 -12 -51q4 1 12 1h10q41 0 63 37t22 98l125 -15q0 -84 -53 -139.5t-152 -55.5h-75q-67 0 -110 25t-55 67z" />
<glyph unicode="&#xeb1;" d="M-420 839q-28 0 -28 -29t28 -29t28 29t-28 29zM-420 902q44 0 72 -25t28 -67q0 -24 -12 -46h7h50q45 0 70 27t25 95l110 -12q0 -82 -51 -131t-134 -49h-110q-70 0 -112.5 31t-42.5 85q0 42 28 67t72 25z" />
<glyph unicode="&#xeb2;" horiz-adv-x="510" d="M104 450q0 -33 31 -33t31 33t-31 33t-31 -33zM305 0v441q0 90 -75 90q-3 0 -8.5 -0.5t-8.5 -0.5q37 -29 37 -80q0 -48 -32.5 -76.5t-82.5 -28.5t-82.5 28.5t-32.5 76.5q0 69 60.5 120t154.5 51q100 0 157.5 -54t57.5 -131v-436h-145z" />
<glyph unicode="&#xeb3;" horiz-adv-x="510" d="M104 450q0 -33 31 -33t31 33t-31 33t-31 -33zM305 0v441q0 90 -75 90q-3 0 -8.5 -0.5t-8.5 -0.5q37 -29 37 -80q0 -48 -32.5 -76.5t-82.5 -28.5t-82.5 28.5t-32.5 76.5q0 69 60.5 120t154.5 51q100 0 157.5 -54t57.5 -131v-436h-145zM-200 780q0 -48 -32.5 -76.5 t-82.5 -28.5t-82.5 28.5t-32.5 76.5t32.5 76.5t82.5 28.5t82.5 -28.5t32.5 -76.5zM-284 780q0 33 -31 33t-31 -33t31 -33t31 33z" />
<glyph unicode="&#xeb4;" d="M-90 760q0 -58 -35 -90l-80 30q15 25 15 45q0 55 -125 55t-125 -55q0 -20 15 -45l-80 -30q-35 32 -35 90q0 73 64.5 106.5t160.5 33.5t160.5 -33.5t64.5 -106.5z" />
<glyph unicode="&#xeb5;" d="M-545 760q0 73 59.5 106.5t150.5 33.5q82 0 141 -34t59 -106q0 -6 -2 -18q26 8 57 8h105v-80h-210l-55 30q15 25 15 45q0 11 -3.5 19t-13.5 17t-33.5 14t-59.5 5t-59.5 -5t-33.5 -14t-13.5 -17t-3.5 -19q0 -20 15 -45l-80 -30q-35 32 -35 90z" />
<glyph unicode="&#xeb6;" d="M-90 760q0 -58 -35 -90l-80 30q15 25 15 45q0 26 -27.5 48t-97.5 22t-97.5 -22t-27.5 -48q0 -20 15 -45l-80 -30q-35 32 -35 90q0 73 64.5 106.5t160.5 33.5t160.5 -33.5t64.5 -106.5zM-385 720q0 27 20 43.5t50 16.5t50 -16.5t20 -43.5t-20 -43.5t-50 -16.5t-50 16.5 t-20 43.5z" />
<glyph unicode="&#xeb7;" d="M-545 760q0 73 61.5 106.5t153.5 33.5q82 0 143.5 -34t61.5 -106q0 -6 -2 -18q26 8 57 8h95v-80h-200l-55 30q15 25 15 45q0 11 -4 21.5t-15 22.5t-35.5 19t-60.5 7t-60.5 -7t-35.5 -19t-15 -22.5t-4 -21.5q0 -20 15 -45l-80 -30q-35 32 -35 90zM-400 720q0 27 20 43.5 t50 16.5t50 -16.5t20 -43.5t-20 -43.5t-50 -16.5t-50 16.5t-20 43.5z" />
<glyph unicode="&#xeb8;" d="M-300 -121q-28 0 -28 -29t28 -29t28 29t-28 29zM-205 -245v-60h-100v40q0 13 6 23h-1q-44 0 -72 25t-28 67t28 67t72 25t72 -25t28 -67q0 -21 -2.5 -48.5t-2.5 -46.5z" />
<glyph unicode="&#xeb9;" d="M-400 -121q-28 0 -28 -29t28 -29t28 29t-28 29zM-405 -242q-41 2 -68 27t-27 65q0 42 28 67t72 25t72 -25t28 -67q0 -20 -5 -39t-5 -26v-10q0 -20 35 -20t35 20v160h100v-170q0 -35 -36.5 -55t-98.5 -20q-130 0 -130 65v3z" />
<glyph unicode="&#xebb;" d="M-435 741q28 0 28 29t-28 29t-28 -29t28 -29zM-435 678q-44 0 -72 25t-28 67q0 54 42.5 85t112.5 31h110q83 0 134 -49t51 -131l-110 -12q0 68 -25 95t-70 27h-50h-7q12 -22 12 -46q0 -42 -28 -67t-72 -25z" />
<glyph unicode="&#xebc;" d="M-445 -121q-28 0 -28 -29t28 -29t28 29t-28 29zM-352 -188q-24 -54 -93 -54q-44 0 -72 25t-28 67t28 67t72 25q32 0 60.5 -13.5t38.5 -23t26 -27.5q38 -40 74 -40q42 0 61 105l90 -25q-18 -70 -52 -112.5t-98 -42.5q-60 0 -107 49z" />
<glyph unicode="&#xebd;" horiz-adv-x="575" d="M25 462q0 73 52.5 116t137.5 43q126 0 214 -106q3 22 6 35l15 65l115 -21v-6l-75 -198h-75q-36 49 -86 87.5t-104 38.5q-55 0 -55 -49q0 -5 1 -9t3.5 -8t4.5 -7t7 -7t8 -6t10.5 -6t11 -6t12.5 -6.5l13 -6.5q28 -14 123 -66q5 -3 24.5 -13t29 -15.5t27.5 -17.5t28 -23.5 t21 -27.5t16 -35.5t5 -41.5v-206q0 -78 -60 -134t-170 -56q-104 0 -167 50.5t-63 120.5q0 48 32.5 76.5t82.5 28.5t82.5 -28.5t32.5 -76.5q0 -51 -37 -80q10 -1 32 -1q90 0 90 95v211q0 12 -4.5 22t-14.5 18t-16.5 12.5t-21.5 11.5t-18 9q-8 4 -61 30t-70 36l-19 9.5 t-29.5 15.5t-31 21t-30 28.5t-20.5 37t-9 46.5zM139 -60q0 -33 31 -33t31 33t-31 33t-31 -33z" />
<glyph unicode="&#xec0;" horiz-adv-x="350" d="M159 94q0 -33 31 -33t31 33t-31 33t-31 -33zM221 196q38 -8 61 -35t23 -67q0 -48 -32.5 -76.5t-82.5 -28.5t-82.5 28.5t-32.5 76.5q0 24 5 58.5t5 57.5v245q0 45 20.5 78.5t52 50t58 24t49.5 8.5l30 -96q-60 -8 -60 -63v-217q0 -23 -14 -44z" />
<glyph unicode="&#xec1;" horiz-adv-x="650" d="M459 94q0 -33 31 -33t31 33t-31 33t-31 -33zM521 196q38 -8 61 -35t23 -67q0 -48 -32.5 -76.5t-82.5 -28.5t-82.5 28.5t-32.5 76.5q0 24 5 58.5t5 57.5v245q0 45 20.5 78.5t52 50t58 24t49.5 8.5l30 -96q-60 -8 -60 -63v-217q0 -23 -14 -44zM159 94q0 -33 31 -33t31 33 t-31 33t-31 -33zM221 196q38 -8 61 -35t23 -67q0 -48 -32.5 -76.5t-82.5 -28.5t-82.5 28.5t-32.5 76.5q0 24 5 58.5t5 57.5v245q0 45 20.5 78.5t52 50t58 24t49.5 8.5l30 -96q-60 -8 -60 -63v-217q0 -23 -14 -44z" />
<glyph unicode="&#xec2;" horiz-adv-x="390" d="M5 780q0 49 38 92t112 43q94 0 160 -100q20 -29 52 -63.5t58 -51.5l-75 -70q-67 43 -135 144q-28 41 -55 41q-30 0 -30 -35q0 -40 37.5 -95.5l75 -111t37.5 -93.5v-240q0 -23 -14 -44q38 -8 61 -35t23 -67q0 -48 -32.5 -76.5t-82.5 -28.5t-82.5 28.5t-32.5 76.5 q0 24 5 58.5t5 57.5v270q0 29 -19.5 67t-43 69.5t-43 76.5t-19.5 87zM204 94q0 -33 31 -33t31 33t-31 33t-31 -33z" />
<glyph unicode="&#xec3;" horiz-adv-x="390" d="M15 750q0 69 51.5 117t143.5 48t143.5 -47.5t51.5 -117.5q0 -35 -13 -64.5t-31.5 -49t-36.5 -37.5t-31 -40.5t-13 -48.5v-270q0 -23 -14 -44q38 -8 61 -35t23 -67q0 -48 -32.5 -76.5t-82.5 -28.5t-82.5 28.5t-32.5 76.5q0 24 5 58.5t5 57.5v300q0 36 15.5 64.5t37.5 47.5 t44 36.5t37.5 40.5t15.5 51q0 75 -70 75q-31 0 -50.5 -18t-19.5 -57q0 -22 13 -42l-114 -36q-24 39 -24 78zM204 94q0 -33 31 -33t31 33t-31 33t-31 -33z" />
<glyph unicode="&#xec4;" horiz-adv-x="390" d="M15 850l45 81q56 -11 88 -44t32 -77v-60q0 -30 9.5 -42.5t35.5 -12.5q65 0 160 75l50 -80l-21 -14q-20 -15 -25.5 -19t-24.5 -18.5t-26.5 -22.5t-21.5 -23.5t-20 -27t-11 -26.5t-5 -29v-270q0 -23 -14 -44q38 -8 61 -35t23 -67q0 -48 -32.5 -76.5t-82.5 -28.5t-82.5 28.5 t-32.5 76.5q0 24 5 58.5t5 57.5v300q0 53 52 98q-53 8 -82.5 36.5t-29.5 75.5v71q0 48 -55 59zM204 94q0 -33 31 -33t31 33t-31 33t-31 -33z" />
<glyph unicode="&#xec6;" horiz-adv-x="665" d="M236 285q0 33 -31 33t-31 -33t31 -33t31 33zM605 -19q0 -91 -72 -151.5t-188 -60.5q-114 0 -181.5 58.5t-78.5 138.5l145 10q7 -48 37.5 -72.5t77.5 -24.5q115 0 115 102v485q0 45 -40 45q-14 0 -25 -10.5t-15 -29.5v-66h-120v66q-4 19 -15 29.5t-25 10.5q-40 0 -40 -45 v-35q0 -27 -14 -46q15 5 39 5q50 0 82.5 -28.5t32.5 -76.5t-32.5 -76.5t-82.5 -28.5q-78 0 -124 46t-46 114v126q0 65 41 110t119 45q74 0 125 -58q51 58 125 58q78 0 119 -45t41 -110v-485z" />
<glyph unicode="&#xec8;" d="M-260 945l-110 20v175h110v-195z" />
<glyph unicode="&#xec9;" d="M-448 1090q0 -19 18 -19t18 19t-18 19t-18 -19zM-405 970q2 14 2 30q0 15 -4 33q-10 -3 -23 -3q-28 0 -46.5 16.5t-18.5 43.5t18.5 43.5t46.5 16.5q44 0 67.5 -27t29.5 -65q2 -9 4 -41q9 3 19 3q90 0 90 130l115 -15q0 -84 -57 -134.5t-143 -50.5h-85z" />
<glyph unicode="&#xeca;" d="M-510 1038q0 62 26 87t59 25q20 0 37 -9t24 -17l6 -9q2 4 6 10t20 15.5t36 9.5q34 0 62 -25t28 -87q0 -11 -3 -20q29 40 34 127l85 -14q-13 -77 -57 -127.5t-124 -58.5l-30 35q25 17 25 58q0 29 -5.5 43t-24.5 14q-28 0 -28 -35h-24h-24q0 35 -28 35t-30 -42q14 7 33 7 q28 0 46.5 -16.5t18.5 -43.5t-18.5 -43.5t-46.5 -16.5q-54 0 -78.5 29t-24.5 69zM-425 1000q0 -19 18 -19t18 19t-18 19t-18 -19z" />
<glyph unicode="&#xecb;" d="M-450 1015v60h85v65h100v-65h85v-60h-85v-70l-100 20v50h-85z" />
<glyph unicode="&#xecc;" d="M-390 799q-28 0 -28 -29t28 -29t28 29t-28 29zM-292 751q-6 -34 -33 -53.5t-65 -19.5q-44 0 -72 25t-28 67t28 67t72 25q50 0 95 -30q29 -19 59 -19q17 0 27.5 15t13 27t5.5 33l90 -20q-33 -130 -130 -130q-38 0 -62 13z" />
<glyph unicode="&#xecd;" d="M-200 780q0 -48 -32.5 -76.5t-82.5 -28.5t-82.5 28.5t-32.5 76.5t32.5 76.5t82.5 28.5t82.5 -28.5t32.5 -76.5zM-284 780q0 33 -31 33t-31 -33t31 -33t31 33z" />
<glyph unicode="&#xed0;" horiz-adv-x="720" d="M50 287v26q0 56 15.5 107t49.5 98t97 75t148 28t148 -28t97 -75t49.5 -98t15.5 -107v-26q0 -56 -15.5 -107t-49.5 -98t-97 -75t-148 -28t-148 28t-97 75t-49.5 98t-15.5 107zM360 89q77 0 118.5 51t41.5 147v26q0 96 -41.5 147t-118.5 51t-118.5 -51t-41.5 -147v-26 q0 -96 41.5 -147t118.5 -51z" />
<glyph unicode="&#xed1;" horiz-adv-x="720" d="M50 330q0 51 17 100t52 93t97.5 71t143.5 27q85 0 148 -28.5t97 -76t49.5 -99t15.5 -107.5v-20q0 -78 -42 -150.5t-126 -124.5t-190 -60l-14 110q89 6 157.5 73t68.5 152v20q0 97 -42.5 150t-121.5 53q-83 0 -131.5 -49.5t-48.5 -133.5v-11q31 26 80 26q50 0 82.5 -28.5 t32.5 -76.5t-32.5 -76.5t-82.5 -28.5q-56 0 -99 18t-66 47.5t-34 62t-11 67.5zM229 240q0 -33 31 -33t31 33t-31 33t-31 -33z" />
<glyph unicode="&#xed2;" horiz-adv-x="720" d="M50 285v30q0 118 79.5 205t225.5 95q62 3 112 9q52 6 64 13q29 16 37 94q1 10 2 22l150 -15q-8 -110 -66 -159.5t-161 -62.5q-51 -7 -128 -11q-73 -4 -119 -54t-46 -136v-30q0 -92 46 -144t119 -52q71 0 115 33.5t56 91.5q-15 -4 -36 -4q-50 0 -82.5 28.5t-32.5 76.5 t32.5 76.5t82.5 28.5q76 0 113 -50.5t37 -124.5q0 -49 -16 -94t-48.5 -84.5t-89.5 -63.5t-131 -24q-82 0 -145 28t-99 74t-53.5 97.5t-17.5 106.5zM531 315q0 33 -31 33t-31 -33t31 -33t31 33z" />
<glyph unicode="&#xed3;" horiz-adv-x="670" d="M90 635q0 63 54 99.5t146 36.5q128 0 242 -118q3 25 8 47l15 65l115 -21v-6l-75 -198h-75q-2 2 -13 13.5t-15.5 16t-17 16.5t-20 18t-21.5 16.5t-24.5 16.5t-25 13.5t-28 11t-29 6.5t-31.5 3q-60 0 -60 -36q0 -17 14.5 -27t46.5 -24q2 -1 3.5 -1.5l3 -1t3.5 -1.5 q117 -50 153 -66q72 -33 98 -55q52 -46 53 -114v-151q0 -86 -44.5 -148t-130.5 -62q-83 0 -168 85q-8 -37 -38.5 -58.5t-73.5 -21.5q-50 0 -82.5 28.5t-32.5 76.5q0 40 23 67t61 35q-14 21 -14 44v180h148v-210q0 -22 3 -38q5 -4 32.5 -25t38.5 -28t31.5 -16t38.5 -9 q63 0 63 100v151q0 13 -4.5 23.5t-16.5 19t-17 12t-23 10.5l-19 8q-82 36 -151 66q-144 60 -144 151zM186 94q0 33 -31 33t-31 -33t31 -33t31 33z" />
<glyph unicode="&#xed4;" horiz-adv-x="720" d="M50 285v30q0 118 79.5 205t225.5 95q62 3 112 9q52 6 64 13q29 16 37 94q1 10 2 22l150 -15q-8 -110 -66 -159.5t-161 -62.5q-51 -7 -128 -11q-73 -4 -119 -54t-46 -136v-30q0 -90 39 -140.5t111 -50.5q14 0 36 2q-36 64 -36 149q0 72 41.5 123.5t118.5 51.5 q50 0 82.5 -28.5t32.5 -76.5t-32.5 -76.5t-82.5 -28.5q-26 0 -49 9q7 -70 68.5 -111.5t150.5 -47.5l-30 -105q-112 8 -183 55q-48 -26 -117 -26q-81 0 -142 27.5t-94 73.5t-48.5 96t-15.5 104zM479 315q0 -33 31 -33t31 33t-31 33t-31 -33z" />
<glyph unicode="&#xed5;" horiz-adv-x="720" d="M479 315q0 -33 31 -33t31 33t-31 33t-31 -33zM334 650q0 -33 31 -33t31 33t-31 33t-31 -33zM250 650q0 48 32.5 76.5t82.5 28.5t82.5 -28.5t32.5 -76.5q0 -22 -7 -39q36 5 52.5 13.5t28.5 38t16 90.5l150 -15q-8 -114 -68.5 -168t-158.5 -54q-42 0 -118 4 q-81 -14 -128 -66t-47 -139v-30q0 -90 39 -140.5t111 -50.5q14 0 36 2q-36 64 -36 149q0 72 41.5 123.5t118.5 51.5q50 0 82.5 -28.5t32.5 -76.5t-32.5 -76.5t-82.5 -28.5q-26 0 -49 9q7 -70 68.5 -111.5t150.5 -47.5l-30 -105q-112 8 -183 55q-48 -26 -117 -26 q-81 0 -142 27.5t-94 73.5t-48.5 96t-15.5 104v30q0 97 56 172.5t161 103.5q-17 25 -17 59z" />
<glyph unicode="&#xed6;" horiz-adv-x="680" d="M100 635q0 63 54 99.5t146 36.5q128 0 242 -118q3 25 8 47l15 65l115 -21v-6l-75 -198h-75q-2 2 -13 13.5t-15.5 16t-17 16.5t-20 18t-21.5 16.5t-24.5 16.5t-25 13.5t-28 11t-29 6.5t-31.5 3q-60 0 -60 -36q0 -17 14.5 -27t46.5 -24q2 -1 3.5 -1.5l3 -1t3.5 -1.5 q117 -50 153 -66q72 -33 98 -55q52 -46 53 -114v-211q0 -65 -41 -110t-119 -45q-74 0 -125 58q-51 -58 -125 -58q-78 0 -119 45t-41 110v126q0 68 46 114t124 46q50 0 82.5 -28.5t32.5 -76.5t-32.5 -76.5t-82.5 -28.5q-24 0 -39 5q14 -19 14 -46v-35q0 -45 40 -45 q14 0 25 10.5t15 29.5v66h120v-66q4 -19 15 -29.5t25 -10.5q40 0 40 45v211q0 13 -4.5 23.5t-16.5 19t-17 12t-23 10.5l-19 8q-82 36 -151 66q-144 60 -144 151zM251 315q0 33 -31 33t-31 -33t31 -33t31 33z" />
<glyph unicode="&#xed7;" horiz-adv-x="690" d="M196 506q0 33 -31 33t-31 -33t31 -33t31 33zM196 94q0 33 -31 33t-31 -33t31 -33t31 33zM279 522q41 43 82.5 68.5t93.5 25.5q86 0 130.5 -62t44.5 -148v-616h-150v616q0 100 -60 100q-24 0 -47.5 -11.5t-58 -39t-44.5 -34.5q-2 -18 -2 -31v-90v-90q0 -23 6 -57.5 t6 -58.5q0 -48 -32.5 -76.5t-82.5 -28.5t-82.5 28.5t-32.5 76.5q0 40 23 67t61 35q-14 21 -14 44v60v60q0 23 14 44q-38 8 -61 35t-23 67q0 48 32.5 76.5t82.5 28.5q45 0 76.5 -24t37.5 -65z" />
<glyph unicode="&#xed8;" horiz-adv-x="680" d="M100 -35q0 91 144 151q69 30 151 66q3 1 15.5 6.5t18.5 8t16.5 9.5t15.5 13t9.5 15.5t4.5 20.5v211q0 45 -40 45q-14 0 -25 -10.5t-15 -29.5v-66h-120v66q-4 19 -15 29.5t-25 10.5q-40 0 -40 -45v-35q0 -27 -14 -46q15 5 39 5q50 0 82.5 -28.5t32.5 -76.5t-32.5 -76.5 t-82.5 -28.5q-78 0 -124 46t-46 114v126q0 65 41 110t119 45q74 0 125 -58q51 58 125 58q78 0 119 -45t41 -110v-211q0 -36 -12 -63.5t-40 -49t-41 -28.5t-48 -23q-7 -4 -10 -5q-36 -16 -153 -66q-53 -23 -63 -34q-8 -9 -8 -21q0 -36 60 -36q16 0 31.5 3t29 6.5t28 11 t25 13.5t24.5 16.5t21.5 16.5t20 18t17 16.5t15.5 16t13 13.5h75l75 -198v-6l-115 -21l-15 65q-5 22 -8 47q-114 -118 -242 -118q-92 0 -146 36.5t-54 99.5zM251 285q0 33 -31 33t-31 -33t31 -33t31 33z" />
<glyph unicode="&#xed9;" horiz-adv-x="750" d="M144 94q0 -33 31 -33t31 33t-31 33t-31 -33zM202 197q40 -7 64 -34.5t24 -68.5q0 -48 -32.5 -76.5t-82.5 -28.5t-82.5 28.5t-32.5 76.5q0 24 5 58.5t5 57.5v241q0 68 52.5 116.5t143.5 48.5q88 0 138 -48.5t50 -116.5v-307q0 -36 12.5 -48t36.5 -12q20 0 31 12t11 48v456 h145v-451q0 -69 -48.5 -117t-138.5 -48q-86 0 -132.5 48t-46.5 117v307q0 60 -58 60q-51 0 -51 -60v-216q0 -25 -13 -43z" />
<glyph unicode="&#xede;" horiz-adv-x="700" d="M186 506q0 33 -31 33t-31 -33t31 -33t31 33zM186 94q0 33 -31 33t-31 -33t31 -33t31 33zM330 315q0 -26 25 -26t25 26t-25 26t-25 -26zM470 276v130q0 100 -60 100q-24 0 -47.5 -11.5t-58 -39t-44.5 -34.5q-2 -18 -2 -31v-90v-90q0 -23 6 -57.5t6 -58.5 q0 -48 -32.5 -76.5t-82.5 -28.5t-82.5 28.5t-32.5 76.5q0 40 23 67t61 35q-14 21 -14 44v60v60q0 23 14 44q-38 8 -61 35t-23 67q0 48 32.5 76.5t82.5 28.5q45 0 76.5 -24t37.5 -65q41 43 82.5 68.5t93.5 25.5q86 0 130.5 -62t44.5 -148v-91q28 11 55 25l25 -75 q-42 -17 -80 -27v-238h-150v212q-40 -2 -60 -2q-69 0 -107 27.5t-38 77.5q0 38 25.5 60.5t64.5 22.5t64.5 -22.5t25.5 -60.5q0 -24 -11 -43q12 3 21 3q3 0 8 0.5t7 0.5z" />
<glyph unicode="&#xedf;" horiz-adv-x="690" d="M251 506q0 33 -31 33t-31 -33t31 -33t31 33zM320 315q0 -26 25 -26t25 26t-25 26t-25 -26zM281 247q-86 -13 -86 -67q0 -45 36 -68t99 -23q132 0 132 107v16q-20 -2 -62 -2q-82 0 -119 37zM610 238v-42q0 -94 -75.5 -155.5t-204.5 -61.5q-126 0 -203 58t-77 137 q0 84 95 119q-42 24 -68.5 65.5t-26.5 92.5q0 68 46 114t124 46q50 0 82.5 -28.5t32.5 -76.5t-32.5 -76.5t-82.5 -28.5q-29 0 -54 11q18 -55 94 -68q9 25 32 39.5t53 14.5q39 0 64.5 -22.5t25.5 -60.5q0 -24 -11 -43q12 3 21 3q3 0 8.5 0.5t8.5 0.5v324h148v-285 q28 11 55 25l25 -75q-42 -17 -80 -27z" />
<glyph unicode="&#x1e0c;" horiz-adv-x="770" d="M225 -180q0 40 27 64t68 24t68 -24t27 -64t-27 -64t-68 -24t-68 24t-27 64zM245 114q10 0 28.5 -0.5t26.5 -0.5q255 0 255 267v20q0 267 -255 267q-8 0 -26.5 -0.5t-28.5 -0.5v-552zM75 780q112 9 225 9q115 0 201 -34.5t133 -92.5t69 -123.5t22 -138.5v-20 q0 -73 -22 -138.5t-69 -123.5t-133 -92.5t-201 -34.5q-50 0 -106.5 2t-87.5 5l-31 2v780z" />
<glyph unicode="&#x1e0d;" horiz-adv-x="680" d="M265 -180q0 40 27 64t68 24t68 -24t27 -64t-27 -64t-68 -24t-68 24t-27 64zM40 290v20q0 52 14 103t42 98t80 76t119 29q92 0 155 -77v271h155v-655q0 -36 10.5 -50t44.5 -18l-40 -103q-129 18 -143 116q-69 -116 -182 -116q-67 0 -119 29t-80 76t-42 98t-14 103z M450 364q-14 62 -49 99t-86 37q-52 0 -83.5 -46t-31.5 -144v-20q0 -98 31.5 -144t83.5 -46q51 0 86 37t49 99v128z" />
<glyph unicode="&#x1e0e;" horiz-adv-x="770" d="M110 -230v100h420v-100h-420zM245 114q10 0 28.5 -0.5t26.5 -0.5q255 0 255 267v20q0 267 -255 267q-8 0 -26.5 -0.5t-28.5 -0.5v-552zM75 780q112 9 225 9q115 0 201 -34.5t133 -92.5t69 -123.5t22 -138.5v-20q0 -73 -22 -138.5t-69 -123.5t-133 -92.5t-201 -34.5 q-50 0 -106.5 2t-87.5 5l-31 2v780z" />
<glyph unicode="&#x1e0f;" horiz-adv-x="680" d="M150 -230v100h420v-100h-420zM40 290v20q0 52 14 103t42 98t80 76t119 29q92 0 155 -77v271h155v-655q0 -36 10.5 -50t44.5 -18l-40 -103q-129 18 -143 116q-69 -116 -182 -116q-67 0 -119 29t-80 76t-42 98t-14 103zM450 364q-14 62 -49 99t-86 37q-52 0 -83.5 -46 t-31.5 -144v-20q0 -98 31.5 -144t83.5 -46q51 0 86 37t49 99v128z" />
<glyph unicode="&#x1e20;" horiz-adv-x="770" d="M200 880v100h420v-100h-420zM415 285v120h310v-270q-37 -63 -116 -109.5t-197 -46.5q-83 0 -148.5 24.5t-106 64t-66.5 93t-36 106t-10 108.5v30q0 56 10 108.5t36 106t66.5 93t106 64t148.5 24.5q75 0 136 -22t97.5 -57t57.5 -70.5t27 -69.5l-172 -16q-8 42 -46.5 75.5 t-99.5 33.5q-92 0 -142.5 -68t-50.5 -202v-30q0 -134 50.5 -202t142.5 -68q109 0 158 55v125h-155z" />
<glyph unicode="&#x1e21;" horiz-adv-x="670" d="M150 730v100h420v-100h-420zM40 315q0 50 14 100t42 96.5t80 75.5t119 29q98 0 164 -89l10 73h136v-615q0 -92 -71 -154t-187 -62q-104 0 -170 37t-82 77l148 42q7 -16 33.5 -31.5t70.5 -15.5q108 0 108 107v113q-65 -84 -160 -84q-67 0 -119 29t-80 75.5t-42 96.5 t-14 100zM450 364q-14 62 -49 99t-86 37q-52 0 -83.5 -45.5t-31.5 -139.5t31.5 -139.5t83.5 -45.5q51 0 86 37t49 99v98z" />
<glyph unicode="&#x1e24;" horiz-adv-x="790" d="M300 -180q0 40 27 64t68 24t68 -24t27 -64t-27 -64t-68 -24t-68 24t-27 64zM75 0v780h170v-325h300v325h170v-780h-170v325h-300v-325h-170z" />
<glyph unicode="&#x1e25;" horiz-adv-x="665" d="M265 -180q0 40 27 64t68 24t68 -24t27 -64t-27 -64t-68 -24t-68 24t-27 64zM70 0v810h155v-328q77 134 210 134q86 0 130.5 -62t44.5 -148v-406h-160v400q0 90 -60 90q-50 0 -97.5 -56t-62.5 -131v-303h-160z" />
<glyph unicode="&#x1e2a;" horiz-adv-x="790" d="M185 -101l96 31q26 -80 114 -80t114 80l96 -31q-19 -60 -70 -102t-140 -42t-140 42t-70 102zM75 0v780h170v-325h300v325h170v-780h-170v325h-300v-325h-170z" />
<glyph unicode="&#x1e2b;" horiz-adv-x="665" d="M150 -101l96 31q26 -80 114 -80t114 80l96 -31q-19 -60 -70 -102t-140 -42t-140 42t-70 102zM70 0v810h155v-328q77 134 210 134q86 0 130.5 -62t44.5 -148v-406h-160v400q0 90 -60 90q-50 0 -97.5 -56t-62.5 -131v-303h-160z" />
<glyph unicode="&#x1e36;" horiz-adv-x="570" d="M225 -180q0 40 27 64t68 24t68 -24t27 -64t-27 -64t-68 -24t-68 24t-27 64zM75 0v780h172v-650h313v-130h-485z" />
<glyph unicode="&#x1e37;" horiz-adv-x="315" d="M95 -180q0 40 27 64t68 24t68 -24t27 -64t-27 -64t-68 -24t-68 24t-27 64zM70 140v670h160v-655q0 -34 19 -48.5t66 -19.5l-30 -103q-215 15 -215 156z" />
<glyph unicode="&#x1e38;" horiz-adv-x="570" d="M-50 880v100h420v-100h-420zM225 -180q0 40 27 64t68 24t68 -24t27 -64t-27 -64t-68 -24t-68 24t-27 64zM75 0v780h172v-650h313v-130h-485z" />
<glyph unicode="&#x1e39;" horiz-adv-x="315" d="M-70 910v100h420v-100h-420zM95 -180q0 40 27 64t68 24t68 -24t27 -64t-27 -64t-68 -24t-68 24t-27 64zM70 140v670h160v-655q0 -34 19 -48.5t66 -19.5l-30 -103q-215 15 -215 156z" />
<glyph unicode="&#x1e3a;" horiz-adv-x="570" d="M110 -230v100h420v-100h-420zM75 0v780h172v-650h313v-130h-485z" />
<glyph unicode="&#x1e3b;" horiz-adv-x="315" d="M-20 -230v100h420v-100h-420zM70 140v670h160v-655q0 -34 19 -48.5t66 -19.5l-30 -103q-215 15 -215 156z" />
<glyph unicode="&#x1e42;" horiz-adv-x="880" d="M345 -180q0 40 27 64t68 24t68 -24t27 -64t-27 -64t-68 -24t-68 24t-27 64zM805 0h-168v466l-157 -271h-80l-157 271v-466h-168v765l140 15l225 -412l225 412l140 -15v-765z" />
<glyph unicode="&#x1e43;" horiz-adv-x="945" d="M385 -180q0 40 27 64t68 24t68 -24t27 -64t-27 -64t-68 -24t-68 24t-27 64zM60 591l145 12l13 -97q60 110 172 110q116 0 155 -115q61 115 175 115q85 0 127.5 -61.5t42.5 -148.5v-406h-160v400q0 90 -55 90q-39 0 -70.5 -47.5t-44.5 -119.5v-323h-160v400q0 90 -55 90 q-39 0 -70.5 -47.5t-44.5 -119.5v-323h-160v420z" />
<glyph unicode="&#x1e44;" horiz-adv-x="790" d="M300 930q0 40 27 64t68 24t68 -24t27 -64t-27 -64t-68 -24t-68 24t-27 64zM75 0v765l145 15l329 -507v507h166v-780h-145l-329 507v-507h-166z" />
<glyph unicode="&#x1e45;" horiz-adv-x="655" d="M235 780q0 40 27 64t68 24t68 -24t27 -64t-27 -64t-68 -24t-68 24t-27 64zM70 0v420l-10 171l145 12l16 -119q73 132 204 132q86 0 130.5 -62t44.5 -148v-406h-160v400q0 90 -60 90q-49 0 -92 -54.5t-58 -130.5v-305h-160z" />
<glyph unicode="&#x1e46;" horiz-adv-x="790" d="M300 -180q0 40 27 64t68 24t68 -24t27 -64t-27 -64t-68 -24t-68 24t-27 64zM75 0v765l145 15l329 -507v507h166v-780h-145l-329 507v-507h-166z" />
<glyph unicode="&#x1e47;" horiz-adv-x="655" d="M265 -180q0 40 27 64t68 24t68 -24t27 -64t-27 -64t-68 -24t-68 24t-27 64zM70 0v420l-10 171l145 12l16 -119q73 132 204 132q86 0 130.5 -62t44.5 -148v-406h-160v400q0 90 -60 90q-49 0 -92 -54.5t-58 -130.5v-305h-160z" />
<glyph unicode="&#x1e48;" horiz-adv-x="790" d="M185 -230v100h420v-100h-420zM75 0v765l145 15l329 -507v507h166v-780h-145l-329 507v-507h-166z" />
<glyph unicode="&#x1e49;" horiz-adv-x="655" d="M150 -230v100h420v-100h-420zM70 0v420l-10 171l145 12l16 -119q73 132 204 132q86 0 130.5 -62t44.5 -148v-406h-160v400q0 90 -60 90q-49 0 -92 -54.5t-58 -130.5v-305h-160z" />
<glyph unicode="&#x1e5a;" horiz-adv-x="730" d="M265 -180q0 40 27 64t68 24t68 -24t27 -64t-27 -64t-68 -24t-68 24t-27 64zM280 302q-6 0 -18.5 0.5t-18.5 0.5v-303h-168v310v470q137 9 275 9q151 0 243 -66t92 -178q0 -89 -59.5 -150t-163.5 -83l253 -304v-8h-192zM243 424q72 -3 87 -3q187 0 187 124t-187 124 q-15 0 -87 -3v-242z" />
<glyph unicode="&#x1e5b;" horiz-adv-x="435" d="M75 -180q0 40 27 64t68 24t68 -24t27 -64t-27 -64t-68 -24t-68 24t-27 64zM55 588l134 15l33 -120q48 133 157 133q37 0 71 -17l-60 -130q-17 11 -39 11q-36 0 -63 -47t-38 -119v-314h-160v450z" />
<glyph unicode="&#x1e5c;" horiz-adv-x="730" d="M150 880v100h420v-100h-420zM265 -180q0 40 27 64t68 24t68 -24t27 -64t-27 -64t-68 -24t-68 24t-27 64zM280 302q-6 0 -18.5 0.5t-18.5 0.5v-303h-168v310v470q137 9 275 9q151 0 243 -66t92 -178q0 -89 -59.5 -150t-163.5 -83l253 -304v-8h-192zM243 424q72 -3 87 -3 q187 0 187 124t-187 124q-15 0 -87 -3v-242z" />
<glyph unicode="&#x1e5d;" horiz-adv-x="435" d="M30 730v100h420v-100h-420zM75 -180q0 40 27 64t68 24t68 -24t27 -64t-27 -64t-68 -24t-68 24t-27 64zM55 588l134 15l33 -120q48 133 157 133q37 0 71 -17l-60 -130q-17 11 -39 11q-36 0 -63 -47t-38 -119v-314h-160v450z" />
<glyph unicode="&#x1e5e;" horiz-adv-x="730" d="M150 -230v100h420v-100h-420zM280 302q-6 0 -18.5 0.5t-18.5 0.5v-303h-168v310v470q137 9 275 9q151 0 243 -66t92 -178q0 -89 -59.5 -150t-163.5 -83l253 -304v-8h-192zM243 424q72 -3 87 -3q187 0 187 124t-187 124q-15 0 -87 -3v-242z" />
<glyph unicode="&#x1e5f;" horiz-adv-x="435" d="M-40 -230v100h420v-100h-420zM55 588l134 15l33 -120q48 133 157 133q37 0 71 -17l-60 -130q-17 11 -39 11q-36 0 -63 -47t-38 -119v-314h-160v450z" />
<glyph unicode="&#x1e60;" horiz-adv-x="710" d="M260 930q0 40 27 64t68 24t68 -24t27 -64t-27 -64t-68 -24t-68 24t-27 64zM40 184l168 24q7 -43 46 -75t101 -32q150 0 150 106q0 68 -77 90q-78 21 -198 63q-70 26 -121.5 77t-51.5 132q0 100 83.5 166t214.5 66q67 0 123 -20t90.5 -51.5t55 -64.5t26.5 -65l-168 -24 q-7 42 -41.5 72.5t-85.5 30.5q-61 0 -97 -27.5t-36 -74.5q0 -18 6 -31t20 -22.5t24.5 -14.5t31.5 -13q67 -23 184 -59q77 -24 129.5 -78t52.5 -144q0 -102 -86 -169t-229 -67q-73 0 -133 20.5t-96.5 52.5t-58 66t-27.5 66z" />
<glyph unicode="&#x1e61;" horiz-adv-x="570" d="M190 780q0 40 27 64t68 24t68 -24t27 -64t-27 -64t-68 -24t-68 24t-27 64zM30 143l155 20q5 -31 33 -51.5t73 -20.5q46 0 71.5 19t25.5 52q0 46 -55 63q-131 39 -148 45q-27 10 -48 21t-44 30.5t-35.5 48t-12.5 65.5q0 79 66.5 132.5t173.5 53.5t168 -51t72 -110 l-155 -20q-11 69 -85 69q-39 0 -63.5 -18.5t-24.5 -49.5q0 -37 58 -56q24 -8 76.5 -23t61.5 -18q66 -20 106.5 -59.5t40.5 -116.5q0 -81 -70 -135t-185 -54q-114 0 -179 51.5t-76 112.5z" />
<glyph unicode="&#x1e62;" horiz-adv-x="710" d="M260 -180q0 40 27 64t68 24t68 -24t27 -64t-27 -64t-68 -24t-68 24t-27 64zM40 184l168 24q7 -43 46 -75t101 -32q150 0 150 106q0 68 -77 90q-78 21 -198 63q-70 26 -121.5 77t-51.5 132q0 100 83.5 166t214.5 66q67 0 123 -20t90.5 -51.5t55 -64.5t26.5 -65l-168 -24 q-7 42 -41.5 72.5t-85.5 30.5q-61 0 -97 -27.5t-36 -74.5q0 -18 6 -31t20 -22.5t24.5 -14.5t31.5 -13q67 -23 184 -59q77 -24 129.5 -78t52.5 -144q0 -102 -86 -169t-229 -67q-73 0 -133 20.5t-96.5 52.5t-58 66t-27.5 66z" />
<glyph unicode="&#x1e63;" horiz-adv-x="570" d="M190 -180q0 40 27 64t68 24t68 -24t27 -64t-27 -64t-68 -24t-68 24t-27 64zM30 143l155 20q5 -31 33 -51.5t73 -20.5q46 0 71.5 19t25.5 52q0 46 -55 63q-131 39 -148 45q-27 10 -48 21t-44 30.5t-35.5 48t-12.5 65.5q0 79 66.5 132.5t173.5 53.5t168 -51t72 -110 l-155 -20q-11 69 -85 69q-39 0 -63.5 -18.5t-24.5 -49.5q0 -37 58 -56q24 -8 76.5 -23t61.5 -18q66 -20 106.5 -59.5t40.5 -116.5q0 -81 -70 -135t-185 -54q-114 0 -179 51.5t-76 112.5z" />
<glyph unicode="&#x1e6c;" horiz-adv-x="620" d="M215 -180q0 40 27 64t68 24t68 -24t27 -64t-27 -64t-68 -24t-68 24t-27 64zM15 655v125h590v-125h-210v-655h-170v655h-210z" />
<glyph unicode="&#x1e6d;" horiz-adv-x="415" d="M185 -180q0 40 27 64t68 24t68 -24t27 -64t-27 -64t-68 -24t-68 24t-27 64zM20 500v100h86v123l151 12v-135h133v-100h-130v-336q0 -39 8.5 -52.5t30.5 -13.5q50 0 84 21l37 -104q-62 -31 -142 -31q-178 0 -178 156v360h-80z" />
<glyph unicode="&#x1e6e;" horiz-adv-x="620" d="M100 -230v100h420v-100h-420zM15 655v125h590v-125h-210v-655h-170v655h-210z" />
<glyph unicode="&#x1e6f;" horiz-adv-x="415" d="M70 -230v100h420v-100h-420zM20 500v100h86v123l151 12v-135h133v-100h-130v-336q0 -39 8.5 -52.5t30.5 -13.5q50 0 84 21l37 -104q-62 -31 -142 -31q-178 0 -178 156v360h-80z" />
<glyph unicode="&#x1e80;" horiz-adv-x="1060" d="M365 955l65 105l220 -160l-40 -60zM10 754v10l185 16l126 -533l139 513h140l139 -513l126 533l185 -16v-10l-225 -754h-145l-150 518l-150 -518h-145z" />
<glyph unicode="&#x1e81;" horiz-adv-x="830" d="M250 805l65 105l220 -160l-40 -60zM825 580l-173 -580h-135l-102 362l-102 -362h-135l-173 580v8l170 12l84 -364l93 349h126l93 -349l84 364l170 -12v-8z" />
<glyph unicode="&#x1e82;" horiz-adv-x="1060" d="M695 955l-245 -115l-40 60l220 160zM10 754v10l185 16l126 -533l139 513h140l139 -513l126 533l185 -16v-10l-225 -754h-145l-150 518l-150 -518h-145z" />
<glyph unicode="&#x1e83;" horiz-adv-x="830" d="M580 805l-245 -115l-40 60l220 160zM825 580l-173 -580h-135l-102 362l-102 -362h-135l-173 580v8l170 12l84 -364l93 349h126l93 -349l84 364l170 -12v-8z" />
<glyph unicode="&#x1e84;" horiz-adv-x="1060" d="M405 1009q37 0 61 -21.5t24 -57.5t-24 -57.5t-61 -21.5t-61 21.5t-24 57.5t24 57.5t61 21.5zM655 1009q37 0 61 -21.5t24 -57.5t-24 -57.5t-61 -21.5t-61 21.5t-24 57.5t24 57.5t61 21.5zM10 754v10l185 16l126 -533l139 513h140l139 -513l126 533l185 -16v-10l-225 -754 h-145l-150 518l-150 -518h-145z" />
<glyph unicode="&#x1e85;" horiz-adv-x="830" d="M290 859q37 0 61 -21.5t24 -57.5t-24 -57.5t-61 -21.5t-61 21.5t-24 57.5t24 57.5t61 21.5zM540 859q37 0 61 -21.5t24 -57.5t-24 -57.5t-61 -21.5t-61 21.5t-24 57.5t24 57.5t61 21.5zM825 580l-173 -580h-135l-102 362l-102 -362h-135l-173 580v8l170 12l84 -364 l93 349h126l93 -349l84 364l170 -12v-8z" />
<glyph unicode="&#x1e8e;" horiz-adv-x="670" d="M240 930q0 40 27 64t68 24t68 -24t27 -64t-27 -64t-68 -24t-68 24t-27 64zM-5 754v11l190 15l150 -330l150 330l190 -15v-11l-255 -464v-290h-170v290z" />
<glyph unicode="&#x1e8f;" horiz-adv-x="600" d="M205 780q0 40 27 64t68 24t68 -24t27 -64t-27 -64t-68 -24t-68 24t-27 64zM0 580v8l175 12l127 -400l123 400l175 -12v-8l-235 -595q-2 -5 -14.5 -32t-15.5 -33l-14.5 -29t-17 -29.5t-18 -24.5t-21.5 -24t-24 -17.5t-29.5 -15.5t-33 -7.5t-39.5 -3.5q-71 0 -128 42l75 94 q30 -26 48 -26q27 0 47 27.5t52 101.5z" />
<glyph unicode="&#x1e92;" horiz-adv-x="670" d="M240 -180q0 40 27 64t68 24t68 -24t27 -64t-27 -64t-68 -24t-68 24t-27 64zM20 96l393 554h-363v130h577l12 -96l-391 -554h402v-130h-618z" />
<glyph unicode="&#x1e93;" horiz-adv-x="530" d="M170 -180q0 40 27 64t68 24t68 -24t27 -64t-27 -64t-68 -24t-68 24t-27 64zM15 79l285 411h-260v110h460l9 -79l-285 -411h291v-110h-491z" />
<glyph unicode="&#x1e97;" horiz-adv-x="415" d="M55 979q37 0 61 -21.5t24 -57.5t-24 -57.5t-61 -21.5t-61 21.5t-24 57.5t24 57.5t61 21.5zM305 979q37 0 61 -21.5t24 -57.5t-24 -57.5t-61 -21.5t-61 21.5t-24 57.5t24 57.5t61 21.5zM20 500v100h86v123l151 12v-135h133v-100h-130v-336q0 -39 8.5 -52.5t30.5 -13.5 q50 0 84 21l37 -104q-62 -31 -142 -31q-178 0 -178 156v360h-80z" />
<glyph unicode="&#x1e9e;" horiz-adv-x="800" d="M300 153l165 12q4 -30 21.5 -47t43.5 -17q28 0 46.5 16.5t18.5 51.5q0 42 -46 61q-21 8 -61 25.5t-51 21.5q-50 21 -86 65t-36 108l3 30l167 73q-2 57 -35.5 91.5t-89.5 34.5q-120 0 -120 -145v-534h-170v534q0 121 80.5 194t209.5 73q66 0 119.5 -19.5t86 -49.5t55 -68 t31 -71.5t8.5 -62.5l-3 -30l-176 -76q11 -19 42 -32q68 -28 108 -44q51 -20 90 -67.5t39 -111.5q0 -77 -61 -133.5t-169 -56.5q-58 0 -103 18t-70.5 46.5t-39.5 56t-17 53.5z" />
<glyph unicode="&#x1ea0;" horiz-adv-x="750" d="M280 -180q0 40 27 64t68 24t68 -24t27 -64t-27 -64t-68 -24t-68 24t-27 64zM750 0h-190l-49 150h-272l-49 -150h-190v11l305 769h140l305 -769v-11zM472 270l-97 296l-97 -296h194z" />
<glyph unicode="&#x1ea1;" horiz-adv-x="625" d="M235 -180q0 40 27 64t68 24t68 -24t27 -64t-27 -64t-68 -24t-68 24t-27 64zM40 174q0 63 54 109.5t159 46.5q70 0 147 -7v89q0 95 -100 95q-82 0 -95 -92l-160 12q11 78 76.5 136t178.5 58q115 0 185 -60t70 -149v-257q0 -36 10.5 -50t44.5 -18l-40 -103q-96 13 -129 72 q-63 -72 -171 -72t-169 51.5t-61 138.5zM408 230q-74 9 -146 9q-25 0 -46 -16.5t-21 -50.5q0 -49 28 -71t67 -22q100 0 118 124v27z" />
<glyph unicode="&#x1ea2;" horiz-adv-x="750" d="M255 1025q51 30 122 30q52 0 85 -25t33 -70q0 -34 -13 -59t-38 -40.5t-46 -23.5t-53 -17l-25 50q80 32 80 70q0 17 -9.5 23.5t-32.5 6.5q-43 0 -93 -24zM750 0h-190l-49 150h-272l-49 -150h-190v11l305 769h140l305 -769v-11zM472 270l-97 296l-97 -296h194z" />
<glyph unicode="&#x1ea3;" horiz-adv-x="625" d="M190 875q51 30 122 30q52 0 85 -25t33 -70q0 -34 -13 -59t-38 -40.5t-46 -23.5t-53 -17l-25 50q80 32 80 70q0 17 -9.5 23.5t-32.5 6.5q-43 0 -93 -24zM40 174q0 63 54 109.5t159 46.5q70 0 147 -7v89q0 95 -100 95q-82 0 -95 -92l-160 12q11 78 76.5 136t178.5 58 q115 0 185 -60t70 -149v-257q0 -36 10.5 -50t44.5 -18l-40 -103q-96 13 -129 72q-63 -72 -171 -72t-169 51.5t-61 138.5zM408 230q-74 9 -146 9q-25 0 -46 -16.5t-21 -50.5q0 -49 28 -71t67 -22q100 0 118 124v27z" />
<glyph unicode="&#x1ea4;" horiz-adv-x="750" d="M515 1135l-245 -115l-40 60l220 160zM165 875l190 145h40l190 -145l-45 -50l-165 80l-165 -80zM750 0h-190l-49 150h-272l-49 -150h-190v11l305 769h140l305 -769v-11zM472 270l-97 296l-97 -296h194z" />
<glyph unicode="&#x1ea5;" horiz-adv-x="625" d="M435 985l-245 -115l-40 60l220 160zM100 725l190 145h40l190 -145l-45 -50l-165 80l-165 -80zM40 174q0 63 54 109.5t159 46.5q70 0 147 -7v89q0 95 -100 95q-82 0 -95 -92l-160 12q11 78 76.5 136t178.5 58q115 0 185 -60t70 -149v-257q0 -36 10.5 -50t44.5 -18 l-40 -103q-96 13 -129 72q-63 -72 -171 -72t-169 51.5t-61 138.5zM408 230q-74 9 -146 9q-25 0 -46 -16.5t-21 -50.5q0 -49 28 -71t67 -22q100 0 118 124v27z" />
<glyph unicode="&#x1ea6;" horiz-adv-x="750" d="M245 1135l65 105l220 -160l-40 -60zM165 875l190 145h40l190 -145l-45 -50l-165 80l-165 -80zM750 0h-190l-49 150h-272l-49 -150h-190v11l305 769h140l305 -769v-11zM472 270l-97 296l-97 -296h194z" />
<glyph unicode="&#x1ea7;" horiz-adv-x="625" d="M165 985l65 105l220 -160l-40 -60zM100 725l190 145h40l190 -145l-45 -50l-165 80l-165 -80zM40 174q0 63 54 109.5t159 46.5q70 0 147 -7v89q0 95 -100 95q-82 0 -95 -92l-160 12q11 78 76.5 136t178.5 58q115 0 185 -60t70 -149v-257q0 -36 10.5 -50t44.5 -18l-40 -103 q-96 13 -129 72q-63 -72 -171 -72t-169 51.5t-61 138.5zM408 230q-74 9 -146 9q-25 0 -46 -16.5t-21 -50.5q0 -49 28 -71t67 -22q100 0 118 124v27z" />
<glyph unicode="&#x1ea8;" horiz-adv-x="750" d="M410 1205q51 30 122 30q52 0 85 -25t33 -70q0 -34 -13 -59t-38 -40.5t-46 -23.5t-53 -17l-25 50q80 32 80 70q0 17 -9.5 23.5t-32.5 6.5q-43 0 -93 -24zM165 875l190 145h40l190 -145l-45 -50l-165 80l-165 -80zM750 0h-190l-49 150h-272l-49 -150h-190v11l305 769h140 l305 -769v-11zM472 270l-97 296l-97 -296h194z" />
<glyph unicode="&#x1ea9;" horiz-adv-x="625" d="M330 1055q51 30 122 30q52 0 85 -25t33 -70q0 -34 -13 -59t-38 -40.5t-46 -23.5t-53 -17l-25 50q80 32 80 70q0 17 -9.5 23.5t-32.5 6.5q-43 0 -93 -24zM100 725l190 145h40l190 -145l-45 -50l-165 80l-165 -80zM40 174q0 63 54 109.5t159 46.5q70 0 147 -7v89 q0 95 -100 95q-82 0 -95 -92l-160 12q11 78 76.5 136t178.5 58q115 0 185 -60t70 -149v-257q0 -36 10.5 -50t44.5 -18l-40 -103q-96 13 -129 72q-63 -72 -171 -72t-169 51.5t-61 138.5zM408 230q-74 9 -146 9q-25 0 -46 -16.5t-21 -50.5q0 -49 28 -71t67 -22q100 0 118 124 v27z" />
<glyph unicode="&#x1eaa;" horiz-adv-x="750" d="M165 1070q24 60 54 92.5t81 32.5q59 0 115 -48q32 -27 39 -27t13.5 4.5t13 15t9.5 16.5t9 19.5t6 14.5l80 -30q-24 -60 -54 -92.5t-81 -32.5q-59 0 -115 48q-32 27 -39 27t-13.5 -4.5t-13 -15t-9.5 -16.5t-9 -19.5t-6 -14.5zM165 875l190 145h40l190 -145l-45 -50 l-165 80l-165 -80zM750 0h-190l-49 150h-272l-49 -150h-190v11l305 769h140l305 -769v-11zM472 270l-97 296l-97 -296h194z" />
<glyph unicode="&#x1eab;" horiz-adv-x="625" d="M100 920q24 60 54 92.5t81 32.5q59 0 115 -48q32 -27 39 -27t13.5 4.5t13 15t9.5 16.5t9 19.5t6 14.5l80 -30q-24 -60 -54 -92.5t-81 -32.5q-59 0 -115 48q-32 27 -39 27t-13.5 -4.5t-13 -15t-9.5 -16.5t-9 -19.5t-6 -14.5zM100 725l190 145h40l190 -145l-45 -50l-165 80 l-165 -80zM40 174q0 63 54 109.5t159 46.5q70 0 147 -7v89q0 95 -100 95q-82 0 -95 -92l-160 12q11 78 76.5 136t178.5 58q115 0 185 -60t70 -149v-257q0 -36 10.5 -50t44.5 -18l-40 -103q-96 13 -129 72q-63 -72 -171 -72t-169 51.5t-61 138.5zM408 230q-74 9 -146 9 q-25 0 -46 -16.5t-21 -50.5q0 -49 28 -71t67 -22q100 0 118 124v27z" />
<glyph unicode="&#x1eac;" horiz-adv-x="750" d="M165 875l190 145h40l190 -145l-45 -50l-165 80l-165 -80zM280 -180q0 40 27 64t68 24t68 -24t27 -64t-27 -64t-68 -24t-68 24t-27 64zM750 0h-190l-49 150h-272l-49 -150h-190v11l305 769h140l305 -769v-11zM472 270l-97 296l-97 -296h194z" />
<glyph unicode="&#x1ead;" horiz-adv-x="625" d="M100 725l190 145h40l190 -145l-45 -50l-165 80l-165 -80zM235 -180q0 40 27 64t68 24t68 -24t27 -64t-27 -64t-68 -24t-68 24t-27 64zM40 174q0 63 54 109.5t159 46.5q70 0 147 -7v89q0 95 -100 95q-82 0 -95 -92l-160 12q11 78 76.5 136t178.5 58q115 0 185 -60t70 -149 v-257q0 -36 10.5 -50t44.5 -18l-40 -103q-96 13 -129 72q-63 -72 -171 -72t-169 51.5t-61 138.5zM408 230q-74 9 -146 9q-25 0 -46 -16.5t-21 -50.5q0 -49 28 -71t67 -22q100 0 118 124v27z" />
<glyph unicode="&#x1eae;" horiz-adv-x="750" d="M540 1135l-245 -115l-40 60l220 160zM165 984l96 31q26 -80 114 -80t114 80l96 -31q-19 -60 -70 -102t-140 -42t-140 42t-70 102zM750 0h-190l-49 150h-272l-49 -150h-190v11l305 769h140l305 -769v-11zM472 270l-97 296l-97 -296h194z" />
<glyph unicode="&#x1eaf;" horiz-adv-x="625" d="M475 985l-245 -115l-40 60l220 160zM100 834l96 31q26 -80 114 -80t114 80l96 -31q-19 -60 -70 -102t-140 -42t-140 42t-70 102zM40 174q0 63 54 109.5t159 46.5q70 0 147 -7v89q0 95 -100 95q-82 0 -95 -92l-160 12q11 78 76.5 136t178.5 58q115 0 185 -60t70 -149v-257 q0 -36 10.5 -50t44.5 -18l-40 -103q-96 13 -129 72q-63 -72 -171 -72t-169 51.5t-61 138.5zM408 230q-74 9 -146 9q-25 0 -46 -16.5t-21 -50.5q0 -49 28 -71t67 -22q100 0 118 124v27z" />
<glyph unicode="&#x1eb0;" horiz-adv-x="750" d="M210 1135l65 105l220 -160l-40 -60zM165 984l96 31q26 -80 114 -80t114 80l96 -31q-19 -60 -70 -102t-140 -42t-140 42t-70 102zM750 0h-190l-49 150h-272l-49 -150h-190v11l305 769h140l305 -769v-11zM472 270l-97 296l-97 -296h194z" />
<glyph unicode="&#x1eb1;" horiz-adv-x="625" d="M145 985l65 105l220 -160l-40 -60zM100 834l96 31q26 -80 114 -80t114 80l96 -31q-19 -60 -70 -102t-140 -42t-140 42t-70 102zM40 174q0 63 54 109.5t159 46.5q70 0 147 -7v89q0 95 -100 95q-82 0 -95 -92l-160 12q11 78 76.5 136t178.5 58q115 0 185 -60t70 -149v-257 q0 -36 10.5 -50t44.5 -18l-40 -103q-96 13 -129 72q-63 -72 -171 -72t-169 51.5t-61 138.5zM408 230q-74 9 -146 9q-25 0 -46 -16.5t-21 -50.5q0 -49 28 -71t67 -22q100 0 118 124v27z" />
<glyph unicode="&#x1eb2;" horiz-adv-x="750" d="M255 1205q51 30 122 30q52 0 85 -25t33 -70q0 -34 -13 -59t-38 -40.5t-46 -23.5t-53 -17l-25 50q80 32 80 70q0 17 -9.5 23.5t-32.5 6.5q-43 0 -93 -24zM165 984l96 31q26 -80 114 -80t114 80l96 -31q-19 -60 -70 -102t-140 -42t-140 42t-70 102zM750 0h-190l-49 150 h-272l-49 -150h-190v11l305 769h140l305 -769v-11zM472 270l-97 296l-97 -296h194z" />
<glyph unicode="&#x1eb3;" horiz-adv-x="625" d="M190 1055q51 30 122 30q52 0 85 -25t33 -70q0 -34 -13 -59t-38 -40.5t-46 -23.5t-53 -17l-25 50q80 32 80 70q0 17 -9.5 23.5t-32.5 6.5q-43 0 -93 -24zM100 834l96 31q26 -80 114 -80t114 80l96 -31q-19 -60 -70 -102t-140 -42t-140 42t-70 102zM40 174q0 63 54 109.5 t159 46.5q70 0 147 -7v89q0 95 -100 95q-82 0 -95 -92l-160 12q11 78 76.5 136t178.5 58q115 0 185 -60t70 -149v-257q0 -36 10.5 -50t44.5 -18l-40 -103q-96 13 -129 72q-63 -72 -171 -72t-169 51.5t-61 138.5zM408 230q-74 9 -146 9q-25 0 -46 -16.5t-21 -50.5 q0 -49 28 -71t67 -22q100 0 118 124v27z" />
<glyph unicode="&#x1eb4;" horiz-adv-x="750" d="M165 1070q24 60 54 92.5t81 32.5q59 0 115 -48q32 -27 39 -27t13.5 4.5t13 15t9.5 16.5t9 19.5t6 14.5l80 -30q-24 -60 -54 -92.5t-81 -32.5q-59 0 -115 48q-32 27 -39 27t-13.5 -4.5t-13 -15t-9.5 -16.5t-9 -19.5t-6 -14.5zM165 984l96 31q26 -80 114 -80t114 80l96 -31 q-19 -60 -70 -102t-140 -42t-140 42t-70 102zM750 0h-190l-49 150h-272l-49 -150h-190v11l305 769h140l305 -769v-11zM472 270l-97 296l-97 -296h194z" />
<glyph unicode="&#x1eb5;" horiz-adv-x="625" d="M100 920q24 60 54 92.5t81 32.5q59 0 115 -48q32 -27 39 -27t13.5 4.5t13 15t9.5 16.5t9 19.5t6 14.5l80 -30q-24 -60 -54 -92.5t-81 -32.5q-59 0 -115 48q-32 27 -39 27t-13.5 -4.5t-13 -15t-9.5 -16.5t-9 -19.5t-6 -14.5zM100 834l96 31q26 -80 114 -80t114 80l96 -31 q-19 -60 -70 -102t-140 -42t-140 42t-70 102zM40 174q0 63 54 109.5t159 46.5q70 0 147 -7v89q0 95 -100 95q-82 0 -95 -92l-160 12q11 78 76.5 136t178.5 58q115 0 185 -60t70 -149v-257q0 -36 10.5 -50t44.5 -18l-40 -103q-96 13 -129 72q-63 -72 -171 -72t-169 51.5 t-61 138.5zM408 230q-74 9 -146 9q-25 0 -46 -16.5t-21 -50.5q0 -49 28 -71t67 -22q100 0 118 124v27z" />
<glyph unicode="&#x1eb6;" horiz-adv-x="750" d="M165 984l96 31q26 -80 114 -80t114 80l96 -31q-19 -60 -70 -102t-140 -42t-140 42t-70 102zM280 -180q0 40 27 64t68 24t68 -24t27 -64t-27 -64t-68 -24t-68 24t-27 64zM750 0h-190l-49 150h-272l-49 -150h-190v11l305 769h140l305 -769v-11zM472 270l-97 296l-97 -296 h194z" />
<glyph unicode="&#x1eb7;" horiz-adv-x="625" d="M100 834l96 31q26 -80 114 -80t114 80l96 -31q-19 -60 -70 -102t-140 -42t-140 42t-70 102zM235 -180q0 40 27 64t68 24t68 -24t27 -64t-27 -64t-68 -24t-68 24t-27 64zM40 174q0 63 54 109.5t159 46.5q70 0 147 -7v89q0 95 -100 95q-82 0 -95 -92l-160 12 q11 78 76.5 136t178.5 58q115 0 185 -60t70 -149v-257q0 -36 10.5 -50t44.5 -18l-40 -103q-96 13 -129 72q-63 -72 -171 -72t-169 51.5t-61 138.5zM408 230q-74 9 -146 9q-25 0 -46 -16.5t-21 -50.5q0 -49 28 -71t67 -22q100 0 118 124v27z" />
<glyph unicode="&#x1eb8;" horiz-adv-x="675" d="M255 -180q0 40 27 64t68 24t68 -24t27 -64t-27 -64t-68 -24t-68 24t-27 64zM75 0v780h545v-130h-375v-205h335v-120h-335v-195h390v-130h-560z" />
<glyph unicode="&#x1eb9;" horiz-adv-x="640" d="M235 -180q0 40 27 64t68 24t68 -24t27 -64t-27 -64t-68 -24t-68 24t-27 64zM40 287v26q0 42 8 82.5t28 82.5t51.5 73t83 50.5t117.5 19.5q67 0 120.5 -23t85.5 -61t49 -84.5t17 -95.5q0 -42 -10 -92h-393q4 -86 39 -130t92 -44q42 0 70 23t33 53l154 -14 q-5 -27 -22 -55.5t-46.5 -56t-78.5 -45t-110 -17.5q-83 0 -142.5 29t-89.5 77t-43 97.5t-13 104.5zM199 365h251q-1 75 -35 109.5t-87 34.5q-51 0 -85 -36.5t-44 -107.5z" />
<glyph unicode="&#x1eba;" horiz-adv-x="675" d="M230 1025q51 30 122 30q52 0 85 -25t33 -70q0 -34 -13 -59t-38 -40.5t-46 -23.5t-53 -17l-25 50q80 32 80 70q0 17 -9.5 23.5t-32.5 6.5q-43 0 -93 -24zM75 0v780h545v-130h-375v-205h335v-120h-335v-195h390v-130h-560z" />
<glyph unicode="&#x1ebb;" horiz-adv-x="640" d="M210 875q51 30 122 30q52 0 85 -25t33 -70q0 -34 -13 -59t-38 -40.5t-46 -23.5t-53 -17l-25 50q80 32 80 70q0 17 -9.5 23.5t-32.5 6.5q-43 0 -93 -24zM40 287v26q0 42 8 82.5t28 82.5t51.5 73t83 50.5t117.5 19.5q67 0 120.5 -23t85.5 -61t49 -84.5t17 -95.5 q0 -42 -10 -92h-393q4 -86 39 -130t92 -44q42 0 70 23t33 53l154 -14q-5 -27 -22 -55.5t-46.5 -56t-78.5 -45t-110 -17.5q-83 0 -142.5 29t-89.5 77t-43 97.5t-13 104.5zM199 365h251q-1 75 -35 109.5t-87 34.5q-51 0 -85 -36.5t-44 -107.5z" />
<glyph unicode="&#x1ebc;" horiz-adv-x="675" d="M140 890q24 60 54 92.5t81 32.5q59 0 115 -48q32 -27 39 -27t13.5 4.5t13 15t9.5 16.5t9 19.5t6 14.5l80 -30q-24 -60 -54 -92.5t-81 -32.5q-59 0 -115 48q-32 27 -39 27t-13.5 -4.5t-13 -15t-9.5 -16.5t-9 -19.5t-6 -14.5zM75 0v780h545v-130h-375v-205h335v-120h-335 v-195h390v-130h-560z" />
<glyph unicode="&#x1ebd;" horiz-adv-x="640" d="M120 740q24 60 54 92.5t81 32.5q59 0 115 -48q32 -27 39 -27t13.5 4.5t13 15t9.5 16.5t9 19.5t6 14.5l80 -30q-24 -60 -54 -92.5t-81 -32.5q-59 0 -115 48q-32 27 -39 27t-13.5 -4.5t-13 -15t-9.5 -16.5t-9 -19.5t-6 -14.5zM40 287v26q0 42 8 82.5t28 82.5t51.5 73 t83 50.5t117.5 19.5q67 0 120.5 -23t85.5 -61t49 -84.5t17 -95.5q0 -42 -10 -92h-393q4 -86 39 -130t92 -44q42 0 70 23t33 53l154 -14q-5 -27 -22 -55.5t-46.5 -56t-78.5 -45t-110 -17.5q-83 0 -142.5 29t-89.5 77t-43 97.5t-13 104.5zM199 365h251q-1 75 -35 109.5 t-87 34.5q-51 0 -85 -36.5t-44 -107.5z" />
<glyph unicode="&#x1ebe;" horiz-adv-x="675" d="M495 1135l-245 -115l-40 60l220 160zM140 875l190 145h40l190 -145l-45 -50l-165 80l-165 -80zM75 0v780h545v-130h-375v-205h335v-120h-335v-195h390v-130h-560z" />
<glyph unicode="&#x1ebf;" horiz-adv-x="640" d="M465 985l-245 -115l-40 60l220 160zM120 725l190 145h40l190 -145l-45 -50l-165 80l-165 -80zM40 287v26q0 42 8 82.5t28 82.5t51.5 73t83 50.5t117.5 19.5q67 0 120.5 -23t85.5 -61t49 -84.5t17 -95.5q0 -42 -10 -92h-393q4 -86 39 -130t92 -44q42 0 70 23t33 53 l154 -14q-5 -27 -22 -55.5t-46.5 -56t-78.5 -45t-110 -17.5q-83 0 -142.5 29t-89.5 77t-43 97.5t-13 104.5zM199 365h251q-1 75 -35 109.5t-87 34.5q-51 0 -85 -36.5t-44 -107.5z" />
<glyph unicode="&#x1ec0;" horiz-adv-x="675" d="M225 1135l65 105l220 -160l-40 -60zM140 875l190 145h40l190 -145l-45 -50l-165 80l-165 -80zM75 0v780h545v-130h-375v-205h335v-120h-335v-195h390v-130h-560z" />
<glyph unicode="&#x1ec1;" horiz-adv-x="640" d="M195 985l65 105l220 -160l-40 -60zM120 725l190 145h40l190 -145l-45 -50l-165 80l-165 -80zM40 287v26q0 42 8 82.5t28 82.5t51.5 73t83 50.5t117.5 19.5q67 0 120.5 -23t85.5 -61t49 -84.5t17 -95.5q0 -42 -10 -92h-393q4 -86 39 -130t92 -44q42 0 70 23t33 53l154 -14 q-5 -27 -22 -55.5t-46.5 -56t-78.5 -45t-110 -17.5q-83 0 -142.5 29t-89.5 77t-43 97.5t-13 104.5zM199 365h251q-1 75 -35 109.5t-87 34.5q-51 0 -85 -36.5t-44 -107.5z" />
<glyph unicode="&#x1ec2;" horiz-adv-x="675" d="M390 1205q51 30 122 30q52 0 85 -25t33 -70q0 -34 -13 -59t-38 -40.5t-46 -23.5t-53 -17l-25 50q80 32 80 70q0 17 -9.5 23.5t-32.5 6.5q-43 0 -93 -24zM140 875l190 145h40l190 -145l-45 -50l-165 80l-165 -80zM75 0v780h545v-130h-375v-205h335v-120h-335v-195h390 v-130h-560z" />
<glyph unicode="&#x1ec3;" horiz-adv-x="640" d="M360 1055q51 30 122 30q52 0 85 -25t33 -70q0 -34 -13 -59t-38 -40.5t-46 -23.5t-53 -17l-25 50q80 32 80 70q0 17 -9.5 23.5t-32.5 6.5q-43 0 -93 -24zM120 725l190 145h40l190 -145l-45 -50l-165 80l-165 -80zM40 287v26q0 42 8 82.5t28 82.5t51.5 73t83 50.5 t117.5 19.5q67 0 120.5 -23t85.5 -61t49 -84.5t17 -95.5q0 -42 -10 -92h-393q4 -86 39 -130t92 -44q42 0 70 23t33 53l154 -14q-5 -27 -22 -55.5t-46.5 -56t-78.5 -45t-110 -17.5q-83 0 -142.5 29t-89.5 77t-43 97.5t-13 104.5zM199 365h251q-1 75 -35 109.5t-87 34.5 q-51 0 -85 -36.5t-44 -107.5z" />
<glyph unicode="&#x1ec4;" horiz-adv-x="675" d="M140 1070q24 60 54 92.5t81 32.5q59 0 115 -48q32 -27 39 -27t13.5 4.5t13 15t9.5 16.5t9 19.5t6 14.5l80 -30q-24 -60 -54 -92.5t-81 -32.5q-59 0 -115 48q-32 27 -39 27t-13.5 -4.5t-13 -15t-9.5 -16.5t-9 -19.5t-6 -14.5zM140 875l190 145h40l190 -145l-45 -50 l-165 80l-165 -80zM75 0v780h545v-130h-375v-205h335v-120h-335v-195h390v-130h-560z" />
<glyph unicode="&#x1ec5;" horiz-adv-x="640" d="M120 920q24 60 54 92.5t81 32.5q59 0 115 -48q32 -27 39 -27t13.5 4.5t13 15t9.5 16.5t9 19.5t6 14.5l80 -30q-24 -60 -54 -92.5t-81 -32.5q-59 0 -115 48q-32 27 -39 27t-13.5 -4.5t-13 -15t-9.5 -16.5t-9 -19.5t-6 -14.5zM120 725l190 145h40l190 -145l-45 -50l-165 80 l-165 -80zM40 287v26q0 42 8 82.5t28 82.5t51.5 73t83 50.5t117.5 19.5q67 0 120.5 -23t85.5 -61t49 -84.5t17 -95.5q0 -42 -10 -92h-393q4 -86 39 -130t92 -44q42 0 70 23t33 53l154 -14q-5 -27 -22 -55.5t-46.5 -56t-78.5 -45t-110 -17.5q-83 0 -142.5 29t-89.5 77 t-43 97.5t-13 104.5zM199 365h251q-1 75 -35 109.5t-87 34.5q-51 0 -85 -36.5t-44 -107.5z" />
<glyph unicode="&#x1ec6;" horiz-adv-x="675" d="M140 875l190 145h40l190 -145l-45 -50l-165 80l-165 -80zM255 -180q0 40 27 64t68 24t68 -24t27 -64t-27 -64t-68 -24t-68 24t-27 64zM75 0v780h545v-130h-375v-205h335v-120h-335v-195h390v-130h-560z" />
<glyph unicode="&#x1ec7;" horiz-adv-x="640" d="M120 725l190 145h40l190 -145l-45 -50l-165 80l-165 -80zM235 -180q0 40 27 64t68 24t68 -24t27 -64t-27 -64t-68 -24t-68 24t-27 64zM40 287v26q0 42 8 82.5t28 82.5t51.5 73t83 50.5t117.5 19.5q67 0 120.5 -23t85.5 -61t49 -84.5t17 -95.5q0 -42 -10 -92h-393 q4 -86 39 -130t92 -44q42 0 70 23t33 53l154 -14q-5 -27 -22 -55.5t-46.5 -56t-78.5 -45t-110 -17.5q-83 0 -142.5 29t-89.5 77t-43 97.5t-13 104.5zM199 365h251q-1 75 -35 109.5t-87 34.5q-51 0 -85 -36.5t-44 -107.5z" />
<glyph unicode="&#x1ec8;" horiz-adv-x="320" d="M40 1025q51 30 122 30q52 0 85 -25t33 -70q0 -34 -13 -59t-38 -40.5t-46 -23.5t-53 -17l-25 50q80 32 80 70q0 17 -9.5 23.5t-32.5 6.5q-43 0 -93 -24zM75 0v780h170v-780h-170z" />
<glyph unicode="&#x1ec9;" horiz-adv-x="300" d="M30 875q51 30 122 30q52 0 85 -25t33 -70q0 -34 -13 -59t-38 -40.5t-46 -23.5t-53 -17l-25 50q80 32 80 70q0 17 -9.5 23.5t-32.5 6.5q-43 0 -93 -24zM70 0v600h160v-600h-160z" />
<glyph unicode="&#x1eca;" horiz-adv-x="320" d="M65 -180q0 40 27 64t68 24t68 -24t27 -64t-27 -64t-68 -24t-68 24t-27 64zM75 0v780h170v-780h-170z" />
<glyph unicode="&#x1ecb;" horiz-adv-x="300" d="M55 -180q0 40 27 64t68 24t68 -24t27 -64t-27 -64t-68 -24t-68 24t-27 64zM55 780q0 40 27 64t68 24t68 -24t27 -64t-27 -64t-68 -24t-68 24t-27 64zM70 0v600h160v-600h-160z" />
<glyph unicode="&#x1ecc;" horiz-adv-x="820" d="M315 -180q0 40 27 64t68 24t68 -24t27 -64t-27 -64t-68 -24t-68 24t-27 64zM45 373v34q0 56 10 108t36 105.5t65.5 92.5t105 63.5t148.5 24.5t148.5 -24.5t105 -63.5t65.5 -92.5t36 -105.5t10 -108v-34q0 -56 -10 -108t-36 -105.5t-65.5 -92.5t-105 -63.5t-148.5 -24.5 t-148.5 24.5t-105 63.5t-65.5 92.5t-36 105.5t-10 108zM410 104q91 0 141 69t50 200v34q0 131 -50 200t-141 69t-141 -69t-50 -200v-34q0 -131 50 -200t141 -69z" />
</font>
</defs>
</svg>
